<?xml version="1.0" encoding="utf-8"?>
<!-- Generator: Adobe Illustrator 27.5.0, SVG Export Plug-In . SVG Version: 6.00 Build 0)  -->
<svg version="1.1" id="Layer_1" xmlns="http://www.w3.org/2000/svg" xmlns:xlink="http://www.w3.org/1999/xlink" x="0px" y="0px"
	 viewBox="0 0 3550 2000" style="enable-background:new 0 0 3550 2000;" xml:space="preserve">
<rect style="fill:#FFFFFF;" width="3550" height="2000"/>
<g>
	<rect x="1193.88" y="1384.739" style="fill:#355389;" width="845.561" height="194.52"/>
	<g>
		
			<rect x="784.945" y="883.908" transform="matrix(-0.8703 -0.4925 0.4925 -0.8703 1036.3964 2049.6746)" style="fill:#86B1F2;" width="6.288" height="8.924"/>
		<path style="fill:#9BC1F9;" d="M728.369,973.083l17.122,9.691c5.751,3.256,13.054,1.232,16.309-4.519l34.495-60.942
			c5.932-10.479,2.245-23.784-8.235-29.716l0,0c-10.48-5.932-23.784-2.245-29.716,8.234l-34.494,60.942
			C720.594,962.525,722.617,969.827,728.369,973.083z"/>
		<path style="fill:#86B1F2;" d="M757.217,898.048l37.758,21.372c1.71,0.969,3.882,0.367,4.85-1.344l0.09-0.16
			c0.969-1.71,0.367-3.882-1.344-4.851l-37.757-21.371c-1.711-0.968-3.882-0.367-4.851,1.344l-0.09,0.16
			C754.904,894.908,755.506,897.08,757.217,898.048z"/>
		<path style="fill:#FAE0B2;" d="M787.997,877.492c1.708,0.967,3.877,0.366,4.844-1.343c0.967-1.708,0.366-3.876-1.342-4.843
			c-0.362-0.205-0.746-0.336-1.132-0.404l0.626-1.107c1.117-1.974,3.624-2.668,5.597-1.551l3.849,2.179
			c1.974,1.117,2.668,3.623,1.551,5.597l-4.747,8.385c-1.117,1.974-3.623,2.668-5.597,1.551l-3.849-2.179
			c-1.974-1.117-2.668-3.624-1.551-5.597l0.821-1.451C787.326,877.026,787.635,877.287,787.997,877.492z"/>
		<path style="fill:#50BFA5;" d="M795.071,919.475l-37.951-21.481c-4.968,8.776-27.787,49.091-33.071,58.426L762,977.901
			L795.071,919.475z"/>
	</g>
	<g>
		<g>
			<path style="fill:#86B1F2;" d="M1983.523,1547.271c0,0-153.478-478.146-170.668-586.359c-17.191-108.214,64.551-85.7,64.551-85.7
				s-97.226-248.986-51.164-305.688c46.063-56.703,111.085,58.971,111.085,58.971s14.849-217.537,85.027-222.169
				c97.411-6.43,80.197,241.793,80.197,241.793s19.008-112.136,72.285-89.828c80.347,33.643-20.2,267.372-20.2,267.372
				s46.558-86.845,84.154-40.377C2306.248,868.656,1983.523,1547.271,1983.523,1547.271z"/>
		</g>
	</g>
	<g>
		<g>
			<path style="fill:#466EB6;" d="M1968.869,1559.682c0,0,396.004-175.118,468.422-274.32
				c72.418-99.201-24.128-111.795-24.128-111.795s182.028-163.276,162.569-238.669c-19.458-75.394-113.678-11.169-113.678-11.169
				s127.491-252.869,77.245-282.372c-93.589-54.954-246.458,212.969-246.458,212.969s36.658-118.452-30.111-119.146
				c-100.695-1.047-113.594,271.75-113.594,271.75s-4.797-105.272-67.388-75.522
				C1969.445,984.787,1968.869,1559.682,1968.869,1559.682z"/>
		</g>
		<path style="fill:#355389;" d="M2081.749,931.407c62.96-28.875,67.388,75.522,67.388,75.522s12.898-272.797,113.594-271.75
			c66.77,0.694,30.111,119.146,30.111,119.146s152.869-267.923,246.458-212.969l-569.01,918.104
			C1967.587,1485.961,1976.195,979.817,2081.749,931.407z"/>
	</g>
	<rect x="1313.334" y="1440.41" style="fill:#F47458;" width="52.114" height="136.281"/>
	<rect x="1955.09" y="1434.115" style="fill:#F47458;" width="57.605" height="119.325"/>
	<g>
		<g>
			<path style="fill:#355389;" d="M1113.405,969.605c-0.388-3.181,4.422-3.773,4.812-0.588c0.003,0.028,0.006,0.055,0.01,0.082l0,0
				l11.694,95.725l19.589,6.822l0,0l9.171,68.764c0.14,1.048-0.595,2.009-1.642,2.148c-1.047,0.141-2.009-0.594-2.15-1.641
				l-0.006-0.043l-8.944-66.68l-17.431-8.305c0,0-8.179-52.174-15.093-96.203C1113.413,969.664,1113.408,969.629,1113.405,969.605z"
				/>
			<path style="fill:#355389;" d="M1095.162,875.566l-2.087,137.183c-0.251,16.482,12.908,30.048,29.391,30.299
				c19.547,0.297,34.334-18.036,29.312-37.471l-35.05-132.646C1113.491,860.691,1095.361,862.852,1095.162,875.566z"/>
			<path style="fill:#B75742;" d="M1185.102,1371.968c-11.72,0.069-22.39-15.049-23.831-33.768l-15.95-207.127l23.417-2.861
				l34.383,204.876c0.249,1.526,0.471,3.274,0.593,4.859C1205.155,1356.666,1196.822,1371.897,1185.102,1371.968z"/>
			<path style="opacity:0.55;fill:#466EB6;" d="M1110.426,884.329c-8.609,41.015-14.155,107.358-2.619,144.523
				c0.593,1.911,2.623,2.979,4.534,2.386c1.969-0.611,3.039-2.744,2.332-4.696C1101.974,991.472,1103.802,926.234,1110.426,884.329z
				"/>
			
				<rect x="1143.753" y="1126.056" transform="matrix(-0.9926 0.1212 -0.1212 -0.9926 2441.2048 2108.594)" style="fill:#B75742;" width="25.415" height="5.001"/>
		</g>
		<g>
			<g>
				
					<rect x="1227.716" y="939.429" transform="matrix(1 0.0061 -0.0061 1 7.0859 -7.5831)" style="fill:#96D9C9;" width="47.092" height="445.372"/>
				
					<rect x="1226.156" y="979.401" transform="matrix(1 0.0061 -0.0061 1 6.0667 -7.5898)" style="fill:#86B1F2;" width="52.243" height="30.691"/>
				
					<rect x="1226.37" y="944.191" transform="matrix(1 0.0061 -0.0061 1 5.8435 -7.5799)" style="fill:#86B1F2;" width="52.242" height="30.691"/>
				
					<rect x="1228.331" y="910.646" transform="matrix(1 0.0061 -0.0061 1 5.6462 -7.59)" style="fill:#86B1F2;" width="48.727" height="30.69"/>
				<polygon style="fill:#86B1F2;" points="1277.149,911.15 1228.423,910.855 1224.054,821.967 1282.597,822.322 				"/>
				<polygon style="fill:#F7CC7F;" points="1270.807,743.976 1269.627,778.396 1266.409,778.378 1265.398,743.943 1241.751,743.799 
					1239.423,795.753 1235.008,795.726 1232.797,743.745 1224.45,743.694 1223.976,821.963 1282.594,822.319 1283.069,744.05 				
					"/>
				<polygon style="fill:#9BC1F9;" points="1231.204,829.742 1236.836,912.214 1237.687,933.632 1244.066,933.313 1246.182,907.989 
					1253.767,830.236 				"/>
			</g>
			<g>
				
					<rect x="1117.447" y="1127.844" transform="matrix(0.9836 -0.1803 0.1803 0.9836 -212.2348 226.6982)" style="fill:#355389;" width="47.092" height="306.098"/>
				
					<rect x="1094.132" y="1157.2" transform="matrix(0.9836 -0.1803 0.1803 0.9836 -192.1624 221.0871)" style="fill:#86B1F2;" width="52.242" height="21.093"/>
				
					<rect x="1089.769" y="1133.396" transform="matrix(0.9836 -0.1803 0.1803 0.9836 -187.9411 219.9083)" style="fill:#86B1F2;" width="52.243" height="21.093"/>
				
					<rect x="1087.37" y="1110.718" transform="matrix(0.9836 -0.1803 0.1803 0.9836 -183.9386 218.8127)" style="fill:#86B1F2;" width="48.727" height="21.093"/>
				<path style="fill:#86B1F2;" d="M1106.086,1042.545l-7.691,1.41l5.418,29.561c2.223,0.452,4.057,2.207,4.491,4.574
					c0.57,3.109-1.489,6.092-4.597,6.661c-3.109,0.57-6.091-1.488-6.661-4.598c-0.457-2.491,0.777-4.899,2.886-6.052l-5.396-29.438
					l-8.023,1.47l-10.327,45.06l0.116,0.188c3.462,1.731,7.545,6.211,10.689,12.168c2.186,4.14,3.518,8.248,3.96,11.66l0.231,0.378
					l17.591-3.224l17.582-3.224l0.083-0.435c-0.798-3.348-1.009-7.661-0.434-12.307c0.827-6.686,3.056-12.321,5.678-15.168
					l0.042-0.218L1106.086,1042.545z"/>
			</g>
			<rect x="1094.491" y="1334.898" style="fill:#3C8F7C;" width="200.176" height="249.402"/>
			<rect x="1079.279" y="1300.485" style="fill:#50BFA5;" width="229.083" height="34.828"/>
		</g>
	</g>
	<g>
		<g>
			<path style="fill:#355389;" d="M1990.067,1571.475c0,0,90.099-168.426,134.833-196.576
				c44.734-28.151,46.023,15.091,46.023,15.091s76.236-74.153,107.143-62.565c30.904,11.588-0.021,50.771-0.021,50.771
				s111.658-46.475,121.982-23.064c19.23,43.604-99.813,100.721-99.813,100.721s51.346-11.56,48.867,18.031
				c-3.74,44.625-119.024,39.576-119.024,39.576s44.083,6.275,28.971,32.814C2231.912,1593.891,1990.067,1571.475,1990.067,1571.475
				z"/>
		</g>
		<path style="fill:#355389;" d="M2259.028,1546.273c14.759-26.737-28.97-32.814-28.97-32.814s115.283,5.048,119.023-39.576
			c2.479-29.591-48.867-18.031-48.867-18.031s119.043-57.117,99.813-100.721l-409.809,215.723c11.47,1.525,48.252,4.926,91.16,6.023
			C2153.715,1578.727,2243.496,1574.41,2259.028,1546.273z"/>
	</g>
	<path style="fill:#F79C8D;" d="M2301.164,565.959l6.949-23.894l-15.742-19.27c-1.793-2.195-0.291-5.494,2.541-5.582l24.872-0.774
		l13.463-20.928c1.533-2.384,5.134-1.974,6.093,0.693l8.422,23.416l24.064,6.336c2.74,0.722,3.465,4.273,1.225,6.01l-19.668,15.245
		l1.41,24.844c0.16,2.83-2.994,4.615-5.338,3.021l-20.576-13.993l-23.192,9.018C2303.045,571.128,2300.372,568.681,2301.164,565.959
		z"/>
	<polygon style="fill:#F48C7F;" points="1116.338,591.163 1100.023,606.357 1072.677,582.806 1046.084,602.079 1022.737,587.801 
		1015.51,599.619 1046.734,618.716 1071.937,600.451 1100.385,624.95 1124.935,602.087 	"/>
	<g>
		<path style="fill:#FAE0B2;" d="M1544.878,574.307l-97.117,4.193c-11.456,0.495-21.144-8.391-21.639-19.848l-2.362-54.687
			c-0.495-11.456,8.392-21.145,19.848-21.639l97.117-4.194c11.456-0.495,21.145,8.391,21.639,19.848l2.362,54.687
			C1565.22,564.124,1556.334,573.813,1544.878,574.307z"/>
		<polygon style="fill:#FAE0B2;" points="1429.163,530.654 1389.98,574.856 1440.468,562.757 		"/>
		<g>
			<path style="fill:#FFFFFF;" d="M1466.14,522.831l12.423-0.854c0,0,15.075-12.495,15.345-16.655
				c0.27-4.16-2.743-12.782-0.368-14.003c2.375-1.222,7.478-2.352,11.007,2.96c2.563,3.855,1.333,18.464,2.843,19.36
				c0.945,0.561,8.099,0.271,13.321-0.024c3.435-0.194,6.688,1.536,8.452,4.488l0.005,0.009c1.192,1.996,0.825,4.554-0.881,6.134
				l-2.655,2.46l2.329,2.789c1.734,2.077,1.467,5.164-0.599,6.911l-2.104,1.781l1.586,1.632c2.042,2.101,1.807,5.511-0.505,7.312
				l-1.877,1.462l0.32,0.523c1.329,2.177,0.772,5.01-1.28,6.523l-1.89,1.394l-33.087,2.267c-3.1,0.212-6.21-0.211-9.141-1.244
				l-11.769-1.126c-1.265-0.122-2.251-1.149-2.318-2.419l-1.544-28.984C1463.678,524.128,1464.741,522.927,1466.14,522.831z"/>
		</g>
	</g>
	<g>
		<path style="fill:#FAE0B2;" d="M2414.354,445.395l-97.117,4.193c-11.457,0.495-21.145-8.392-21.639-19.848l-2.362-54.688
			c-0.495-11.456,8.392-21.145,19.848-21.639l97.116-4.194c11.457-0.495,21.146,8.392,21.641,19.848l2.361,54.688
			C2434.695,435.211,2425.81,444.899,2414.354,445.395z"/>
		<polygon style="fill:#FAE0B2;" points="2298.639,401.742 2259.455,445.943 2309.943,433.844 		"/>
	</g>
	<g>
		<path style="fill:#F7CC7F;" d="M637.149,894.016c0,15.527-12.587,28.115-28.115,28.115c-15.527,0-28.114-12.588-28.114-28.115
			c0-15.527,12.587-28.114,28.114-28.114C624.562,865.901,637.149,878.489,637.149,894.016z"/>
		<g>
			<path style="fill:#F7CC7F;" d="M595.031,811.528c1.108,8.246,1.604,16.897,3.715,24.953c1.835,7.006,12.839,5.632,12.699-1.719
				c-0.169-8.914-2.188-17.991-3.443-26.81c-0.513-3.6-5.091-5.572-8.274-4.698C595.839,804.323,594.545,807.913,595.031,811.528
				L595.031,811.528z"/>
		</g>
		<g>
			<path style="fill:#F7CC7F;" d="M544.578,842.971c8.908,6.124,16.559,13.454,24.664,20.548c6.383,5.588,14.322-2.722,9.162-9.163
				c-7.365-9.194-17.219-16.651-26.87-23.285c-3.068-2.109-7.646-0.573-9.428,2.472
				C540.108,836.959,541.503,840.857,544.578,842.971L544.578,842.971z"/>
		</g>
		<g>
			<path style="fill:#F7CC7F;" d="M558.753,894.401c2.241-1.506,2.869-4.037,1.694-6.461c-2.862-5.904-10.559-6.194-16.326-6.414
				c-5.979-0.228-12.038,0.57-17.813,2.099c-8.532,2.257-4.913,15.501,3.649,13.236C546.45,892.497,552.2,898.806,558.753,894.401z"
				/>
		</g>
		<g>
			<path style="fill:#F7CC7F;" d="M566.174,946.598c9.677-12.32,14.69-14.992,13.338-21.759c-0.45-2.251-3.026-4.137-5.294-4.031
				c-5.064,0.237-7.431,4.089-10.419,7.597c-2.432,2.854-4.838,5.716-7.137,8.68c-2.224,2.868-2.796,6.717,0,9.513
				C558.993,948.928,563.918,949.47,566.174,946.598L566.174,946.598z"/>
		</g>
		<g>
			<path style="fill:#F7CC7F;" d="M598.791,949.579c0.98,4.179-2.506,11.44,2.777,17.928c2.882,3.54,7.805,0.977,9.15-2.416
				c1.214-3.063,1.292-6.274,1.515-9.523c0.221-3.226,0.328-6.404-0.418-9.58C609.831,937.53,596.804,941.111,598.791,949.579
				L598.791,949.579z"/>
		</g>
		<g>
			<path style="fill:#F7CC7F;" d="M631.059,938.693c11.308,9.899,13.376,12.459,18.061,12.292c2.757-0.099,6.012-2.514,5.628-5.628
				c-0.7-5.673-3.761-7.411-14.177-16.176c-2.777-2.337-6.788-2.724-9.512,0C628.618,931.623,628.314,936.291,631.059,938.693
				L631.059,938.693z"/>
		</g>
		<g>
			<path style="fill:#F7CC7F;" d="M679.615,901.751c7.004-2.559,5.35-11.538-1.685-12.447c-4.147-0.536-4.802-0.02-28.536,2.631
				c-3.683,0.412-6.863,2.86-6.863,6.863c0,3.397,3.155,7.27,6.863,6.863C674.443,902.916,675.367,903.303,679.615,901.751z"/>
		</g>
		<g>
			<path style="fill:#F7CC7F;" d="M647.302,860.238c13.305-11.191,15.534-9.369,20.979-16.423c2.574-3.335-0.885-9.182-5.002-8.716
				c-5.471,0.619-7.264,1.764-13.77,6.211c-4.15,2.836-8.138,5.919-11.99,9.144c-2.867,2.399-2.478,7.306,0,9.784
				C640.351,863.071,644.434,862.65,647.302,860.238L647.302,860.238z"/>
		</g>
	</g>
	<g>
		<g>
			<path style="fill:#355389;" d="M846.855,1585.97c0,0-149.129-33.622-170.787-66.132c-21.657-32.508,23.549-32.373,23.549-32.373
				s-56.307-54.996-48.273-77.938c8.034-22.942,29.288-11.432,29.288-11.432s-33.887-54.572-18.41-71.418
				c23.783-25.884,83.886,64.542,83.886,64.542s-9.482-37.637,12.487-36.271c33.132,2.061,38.248,87.687,38.248,87.687
				s4.8-29.485,17-22.486C849.067,1440.359,846.855,1585.97,846.855,1585.97z"/>
			<path style="fill:#466EB6;" d="M662.223,1326.678c-15.477,16.846,18.41,71.418,18.41,71.418s-21.254-11.511-29.288,11.432
				c-8.034,22.941,48.273,77.938,48.273,77.938s-45.206-0.136-23.549,32.373c21.658,32.51,170.787,66.132,170.787,66.132
				L662.223,1326.678z"/>
		</g>
		<g>
			<g>
				<path style="fill:#355389;" d="M842.954,1585.884c0,0-99.504,1.845-121.241-1.106c-21.736-2.951-13.724-17.348-13.724-17.348
					s-42.178,3.475-51.108-8.646c-8.93-12.121,9.965-16.487,9.965-16.487s-49.59-15.096-48.741-25.491
					c1.58-19.365,49.369-6.741,49.369-6.741s-14.314-9.116-7.613-18.059c10.107-13.485,44.641,11.887,44.641,11.887
					s-3.943-9.257,2.2-11.052C726.688,1486.998,842.954,1585.884,842.954,1585.884z"/>
			</g>
		</g>
	</g>
	<g>
		<path style="fill:#F47458;" d="M1854.482,1454.678h-559.54c-13.118,0-23.751-10.633-23.751-23.752V624.701
			c0-13.117,10.634-23.751,23.751-23.751h559.54c13.118,0,23.752,10.634,23.752,23.751v806.225
			C1878.234,1444.045,1867.601,1454.678,1854.482,1454.678z"/>
		<path style="fill:#FAE0B2;" d="M1891.955,1454.683h-573.781c-13.277,0-24.04-10.762-24.04-24.039V624.99
			c0-13.277,10.763-24.04,24.04-24.04h573.781c13.277,0,24.04,10.763,24.04,24.04v805.654
			C1915.995,1443.921,1905.232,1454.683,1891.955,1454.683z"/>
		<rect x="1356.982" y="697.683" style="fill:#FFFFFF;" width="679.761" height="721.302"/>
		<path style="fill:#F47458;" d="M1402.052,1454.692h-107.675c-2.182,0-3.951-1.77-3.951-3.951v-36.698h111.626V1454.692z"/>
		<path style="fill:#F47458;" d="M1401.843,1454.162h-40.591v-61.15c0-10.021,8.123-18.144,18.144-18.144h22.447V1454.162z"/>
		<rect x="1390.964" y="1374.992" style="fill:#F7CC7F;" width="682.21" height="79.689"/>
		<path style="fill:#F47458;" d="M1356.982,697.683l-0.574,287.936c0,0,49.494,109.156,76.239,100.927
			c26.745-8.229-55.666-172.933-26.863-185.277c28.803-12.344,185.159,337.402,218.076,298.312
			c32.917-39.089-121.382-267.452-98.751-281.853c22.63-14.401,117.268,166.643,172.815,133.727
			c55.547-32.918-162.529-189.274-115.21-209.847c47.318-20.574,102.866,80.235,137.841,74.064
			c34.975-6.172-127.554-106.981-109.038-141.956c18.516-34.974,172.815,113.153,205.731,72.007
			c32.918-41.147-102.865-148.128-102.865-148.128L1356.982,697.683z"/>
	</g>
	<g>
		<path style="fill:#184655;" d="M3212.352,1582.782c0-3.354-2.533-6.074-5.657-6.074H665.321c-3.791,0-6.864,2.72-6.864,6.074
			s3.073,6.073,6.864,6.073h2541.374C3209.818,1588.855,3212.352,1586.137,3212.352,1582.782L3212.352,1582.782z"/>
	</g>
	<path style="fill:#F7CC7F;" d="M686.925,650.502l-8.821-20.859l-22.185-4.559c-2.526-0.519-3.361-3.711-1.412-5.4l17.112-14.836
		l-2.519-22.507c-0.287-2.564,2.49-4.344,4.699-3.012l19.398,11.69l20.627-9.352c2.349-1.065,4.9,1.026,4.317,3.539l-5.124,22.061
		l15.268,16.728c1.739,1.905,0.539,4.978-2.032,5.198l-22.564,1.944l-11.19,19.69C691.223,653.07,687.93,652.878,686.925,650.502z"
		/>
	<path style="fill:#466EB6;" d="M932.828,780.965l10.626-17.948l-8.762-18.928c-0.998-2.156,0.91-4.521,3.228-4.001l20.353,4.559
		l15.294-14.182c1.742-1.615,4.58-0.532,4.803,1.833l1.954,20.766l18.214,10.164c2.075,1.158,1.921,4.192-0.259,5.134l-19.146,8.275
		l-4.037,20.463c-0.46,2.331-3.393,3.123-4.963,1.34l-13.787-15.652l-20.71,2.484C933.277,785.554,931.618,783.009,932.828,780.965z
		"/>
	<polygon style="fill:#F48C7F;" points="2646.114,523.269 2641.068,498.197 2617.443,501.349 2611.383,476.87 2588.434,477.098 
		2580.903,459.52 2572.005,463.332 2582.076,486.842 2603.824,486.625 2610.129,512.092 2633.365,508.991 2637.938,531.711 	"/>
	<polygon style="fill:#96D9C9;" points="1110.879,426.065 1117.449,445.615 1138.351,447.955 1144.163,470.391 1167.194,466.019 
		1174.888,491.1 1196.592,489.689 1207.938,512.611 1199.263,516.906 1190.778,499.769 1167.876,501.256 1160.481,477.146 
		1137.064,481.591 1130.65,456.833 1110.239,454.548 1104.15,436.428 1090.432,437.73 1089.517,428.093 	"/>
	<path style="fill:#F47458;" d="M2128.486,504.95l10.112,16.799c1.095,1.82,3.802,1.594,4.58-0.383l7.183-18.245l19.102-4.427
		c2.069-0.479,2.69-3.124,1.051-4.474l-15.131-12.469l1.692-19.535c0.183-2.116-2.14-3.524-3.931-2.382l-16.535,10.538
		l-18.056-7.647c-1.956-0.828-4.013,0.946-3.48,3.002l4.913,18.983l-12.852,14.809c-1.393,1.604-0.34,4.108,1.78,4.238
		L2128.486,504.95z"/>
	<g>
		<g>
			<path style="fill:#F7CC7F;" d="M2395.873,395.69c1.794,15.053-8.953,28.707-24.004,30.499
				c-15.051,1.79-28.707-8.96-30.501-24.013c-1.794-15.053,8.954-28.707,24.005-30.498
				C2380.424,369.886,2394.08,380.637,2395.873,395.69z"/>
			<path style="fill:#EFEFEF;" d="M2354.564,404.985c0.959,8.048,8.261,13.796,16.308,12.838
				c8.047-0.958,13.793-8.258,12.834-16.307L2354.564,404.985z"/>
		</g>
	</g>
	<g>
		<path style="fill:#3C8F7C;" d="M2106.086,1066.64l47.999,34.285c0,0,85.798,29.004,94.459,44.159
			c8.661,15.156-7.796,14.451-25.985,12.337c-18.188-2.115-84.017-17.64-84.017-17.64l-44.8-54.398L2106.086,1066.64z"/>
		<g>
			<path style="fill:#3C8F7C;" d="M2043.646,1066.854c-2.818,4.979-9.14,6.731-14.119,3.913l-82.15-46.493
				c-4.184-2.367-6.19-7.304-4.842-11.918l61.522-210.847l-52.245-29.567l-33.072,54.403c-2.974,4.888-9.346,6.442-14.236,3.471
				c-4.889-2.974-6.411-9.332-3.471-14.235l38.291-62.983c2.908-4.781,9.086-6.391,13.956-3.634l68.124,38.555
				c4.184,2.368,6.19,7.304,4.842,11.918l-61.521,210.847l75.008,42.451C2044.713,1055.552,2046.465,1061.873,2043.646,1066.854z"/>
		</g>
		<path style="fill:#F7CC7F;" d="M1961.729,835.312l-172.363,304.557c-6.264,11.065-20.311,14.96-31.377,8.696l-57.438-32.507
			c-11.066-6.263-14.959-20.311-8.697-31.376l172.364-304.557c6.264-11.066,20.312-14.959,31.377-8.697l57.438,32.507
			C1964.098,810.198,1967.991,824.245,1961.729,835.312z"/>
		<path style="fill:#F47458;" d="M1864.217,780.125l-172.363,304.556c-6.263,11.066-2.369,25.114,8.696,31.376l18.696,10.582
			c15.721-4.146,31.493-8.113,42.673-27.868c22.112-39.07-17.961-61.75,4.151-100.82c22.111-39.069,62.185-16.39,84.296-55.459
			c22.114-39.074-17.959-61.754,4.155-100.828c20.631-36.454,56.887-19.179,79.615-48.423l-38.543-21.813
			C1884.528,765.165,1870.48,769.059,1864.217,780.125z"/>
	</g>
	<g>
		<path style="fill:#184655;" d="M1859.569,440.95l7.994-5.974l10.835-9.238c0.42-0.358,0.503-0.976,0.191-1.432l0,0
			c-0.305-0.448-0.895-0.601-1.379-0.358l-12.792,6.41l-8.771,6.196L1859.569,440.95z"/>
		
			<rect x="1794.83" y="451.515" transform="matrix(0.8266 -0.5628 0.5628 0.8266 59.1923 1108.2843)" style="fill:#3C8F7C;" width="66.447" height="13.147"/>
		
			<rect x="1790.271" y="476.33" transform="matrix(-0.5628 -0.8266 0.8266 -0.5628 2418.03 2234.561)" style="fill:#9BC1F9;" width="19.393" height="2.958"/>
		<path style="fill:#F79C8D;" d="M1795.105,473.298l7.061,10.369l-7.279,4.957c-1.707,1.162-4.031,0.72-5.193-0.986l-2.854-4.19
			c-1.162-1.707-0.72-4.031,0.986-5.193L1795.105,473.298z"/>
		<path style="fill:#F7A491;" d="M1864.981,430.076l-13.165,3.88c0,0-0.273,6.759,7.398,10.868l8.787-10.22L1864.981,430.076z"/>
	</g>
	<g>
		
			<rect x="1214.581" y="1515.26" transform="matrix(0.03 -0.9996 0.9996 0.03 -318.3159 2726.8521)" style="fill:#F7CC7F;" width="62.392" height="24.34"/>
		<path style="fill:#86B1F2;" d="M803.634,1436.163l43.162,3.104l45.708,3.306l85.911,6.239l85.871,6.197l144.988,9.74
			c14.474,0.434,25.841,12.504,25.407,26.978l-2.135,71.177c-0.434,14.475-12.504,25.842-26.978,25.408l-17.758,0.607
			l-127.554,0.426l-86.09,1.08l-86.13,1.08l-45.823,0.561l-43.271,0.513L803.634,1436.163z"/>
		<path style="fill:#9BC1F9;" d="M1054.459,1469.521c72.008,2.159,130.102,13.269,129.755,24.813
			c-0.346,11.544-59.001,19.151-131.009,16.992c-72.008-2.16-130.101-13.27-129.755-24.813
			C923.797,1474.97,982.451,1467.361,1054.459,1469.521z"/>
		<polygon style="fill:#FAE0B2;" points="1270.381,1467.398 1267.172,1576.707 1266.815,1588.857 1254.37,1588.857 
			1254.706,1576.707 1257.709,1467.021 		"/>
		<polygon style="fill:#9BC1F9;" points="803.625,1436.15 846.787,1439.256 842.205,1592.054 798.934,1592.566 		"/>
		<polygon style="fill:#F47458;" points="892.503,1442.573 978.414,1448.813 1059.869,1454.863 1060.257,1589.346 974.167,1590.426 
			888.037,1591.506 		"/>
	</g>
	<g>
		<path style="fill:#B75742;" d="M874.701,1132.896c-7.344-8.245-31.317-42.353-51.547-27.071
			c-20.229,15.281-4.308,38.175-40.424,22.498c-33.458-14.523-50.603,22.131-33.111,41.323c-2.749,2.391-4.959,5.429-6.355,9.013
			c-4.827,12.397,1.881,26.583,14.982,31.685c2.082,0.811,3.205,2.585,5.315,2.857c6.057,9.969,16.732,17.497,32.207,20.368
			c42.271,7.842,31.841-35.533,44.487-45.688c12.646-10.156,14.375,6.135,31.131,2.965c16.756-3.169,22.724-13.017,19.294-47.958
			l-1.4-9.162C889.279,1133.725,882.046,1141.141,874.701,1132.896z"/>
		<g>
			<g>
				<path style="fill:#F7A491;" d="M1061.366,1561.735c7.884,15.173,18.118,33.036,19.917,33.499
					c0.864,0.223,4.315-0.104,5.201,0.15c20.919-5.548,31.941-17.073,40.488-31.691c-10.502,4.673-26.811,12.145-29.183,11.736
					c-3.776-0.647-5.344-9.172-15.053-28.803C1077.541,1549.657,1067.508,1551.77,1061.366,1561.735z"/>
				<path style="fill:#13375B;" d="M1080.446,1594.534c3.059,5.956,10.567,15.393,11.832,14.553
					c1.511-1.003,53.915-40.747,54.741-51.422c0.497-6.42-8.055-0.856-21.128,4.687
					C1117.344,1576.971,1083.976,1597.25,1080.446,1594.534z"/>
				<path style="fill:#355389;" d="M1036.841,1406.465c16.773,4.653,55.18,159.74,55.18,159.74l-25.134,15.929
					c0,0-51.538-119.496-62.503-122.813C993.419,1456.004,1020.067,1401.811,1036.841,1406.465z"/>
			</g>
			<path style="fill:#F7A491;" d="M1002.784,1561.491c3.52,13.458,0.774,40.005,0.125,42.929c-0.188,0.848,0.866,4.275,1.388,5.045
				c19.691,9.381,39.282,5.028,55.19-0.515c-11.087-3.276-25.788-7.503-28.016-8.749c-5.809-3.249-2.172-21.11-3.772-40.768
				C1019.944,1567.266,1013.872,1557.917,1002.784,1561.491z"/>
			<path style="fill:#355389;" d="M1002.962,1604.15c-1.307,6.606-1.574,19.213-0.064,19.397c1.806,0.221,67.742,4.408,75.175-3.159
				c4.47-4.55-4.96-7.15-18.587-11.438C1043.579,1614.493,1003.959,1608.506,1002.962,1604.15z"/>
			<path style="fill:#466EB6;" d="M926.744,1367.385l3.526,21.069c0,0,111.669,4.338,113.657,26.296
				c1.987,21.959-13.485,165.713-13.485,165.713h-30.628c0,0-5.618-81.486-4.915-104.342c0.686-22.286,2.743-25.715,2.743-25.715
				s-122.083-5.619-130.536-9.338c-8.453-3.719-21.868-15.398-13.421-48.102c8.446-32.704,12.918-41.113,12.918-41.113
				L926.744,1367.385z"/>
			<path style="fill:#B75742;" d="M882.608,1125.562c-7.424,20.433,5.618,45.813,27.744,48.745
				c14.38,1.905,30.217-6.467,34.147-21.153c6.376-23.822-2.199-39.679-15.771-47.313c-15.885-8.937-35.783,0.567-44.152,15.424
				C883.803,1122.637,883.148,1124.074,882.608,1125.562z"/>
			<path style="fill:#FAE0B2;" d="M940.827,1238.119c-5.533-9.781-11.232-17.543-11.232-17.543
				c-5.738-9.783-20.565-14.731-20.565-14.731s-4.959,0.097-10.653,0.364c-0.353,0.906-0.713,1.554-1.074,1.813
				c-2.141,1.539-14.405-0.447-22.328,4.71c-26.553,21.827-13.038,141.491-19.957,174.555l77.955,5.732
				c0,0-4.446-90.413,11.985-108.885C956.399,1271.27,949.036,1252.628,940.827,1238.119z"/>
			<path style="fill:#F7A491;" d="M904.376,1170.053c0,0-4.444,30.443-7.55,37.841c-3.104,7.398,17.071,23.22,33.859,28.021
				c16.787,4.803-5.131-16.341-4.435-24.249s3.747-45.353,3.747-45.353L904.376,1170.053z"/>
			<path style="fill:#F47458;" d="M929.117,1177.078c0.51-6.225,0.878-10.745,0.88-10.764v-0.001
				c-1.842,0.269,7.701-1.124-25.621,3.739l0,0c0,0.004-0.527,3.611-1.344,8.643
				C913.396,1184.454,922.715,1182.645,929.117,1177.078z"/>
			<path style="fill:#F7A491;" d="M912.41,1114.447c0,0-10.099,2.183-16.334,11.308c-6.235,9.125-10.514,35.988,10.023,48.528
				c20.537,12.538,36.509-5.199,36.773-22.499C943.138,1134.484,939.272,1111.396,912.41,1114.447z"/>
			<path style="fill:#F7A491;" d="M947.573,1146.37c-1.752,4.175-5.227,6.766-7.764,5.786c-2.536-0.979-3.171-5.156-1.419-9.33
				c1.752-4.175,5.228-6.766,7.764-5.787C948.69,1138.019,949.326,1142.195,947.573,1146.37z"/>
			<path style="fill:#F7A491;" d="M895.749,1149.802c1.488,4.497,0.126,8.925-3.044,9.89c-3.17,0.966-6.947-1.897-8.436-6.395
				c-1.489-4.497-0.126-8.926,3.044-9.891C890.483,1142.441,894.26,1145.305,895.749,1149.802z"/>
			<path style="fill:#F7A491;" d="M989.65,1386.118c-0.639-2.487-12.354-15.45-16.412-15.939
				c-3.937-0.476-29.432-4.356-29.432-4.356s-45.23-37.246-47.65-39.186c-0.115-1.304-0.532-56.741,0.343-72.342
				c-14.15-2.026-22.349,1.131-36.037,4.131c-2.886,31.072-2.527,78.723,13.065,88.439c14.998,9.346,65.575,30.129,65.575,30.129
				s16.651,6,19.731,6.189c2.337,0.143,8.75-0.368,11.9,0.104c7.157,1.072,16.233,11.289,16.81,10.113
				c0.42-0.857-0.808-5.978-4.633-9.534c-3.743-3.482-10.264-6.572-9.899-7.084C974.488,1374.713,990.799,1390.587,989.65,1386.118z
				"/>
			<path style="fill:#F7CC7F;" d="M902.595,1235.518c-0.653-9.872-1.648-19.824-12.042-24.338c-6.441-2.796-14.25-2.02-20.247,1.458
				c-7.135,4.136-10.114,11.923-11.214,19.524c-2.501,17.264-3.936,35.319-3.176,52.753c13.155-4.831,30.79-1.675,45.084-1.589
				C904.592,1268.151,903.446,1248.381,902.595,1235.518z"/>
			<path style="fill:#184655;" d="M1051.161,1406.514l-122.319-13.82c-4.831-0.586-9.359-5.021-10.096-9.22l-1.074-6.124
				l137.653,15.801L1051.161,1406.514z"/>
			<path style="fill:#184655;" d="M1051.784,1404.664l-9.746-2.863l38.119-124.766l2.873,0.83c3.913,1.129,6.161,5.071,5.021,8.805
				L1051.784,1404.664z"/>
		</g>
	</g>
	<path style="fill:#FAE0B2;" d="M2081.326,1576.697h-725.686v-0.754c0-25.644,20.789-46.433,46.432-46.433h632.819
		c25.645,0,46.434,20.789,46.434,46.433V1576.697z"/>
	<g>
		<path style="fill:#F47458;" d="M2548.986,753.735c-51.999-78.856-165.008-201.921-246.428-158.558
			c-22.81,12.147-35.085,36.085-50.156,56.817c-41.108,56.551-111.277,81.399-179.203,79.439
			c-107.221-3.093-200.162-72.335-282.341-139.392c-84.052-68.584-169.254-145.797-274.032-174.035
			c-92.502-24.929-196.131-9.682-262.999,69.481c-66.053,78.2-89.852,185.997-157.929,263.003
			c-36.343,41.111-82.607,78.911-134.051,94.17c-42.809,12.698-84.384,3.87-121.622-20.657
			c-68.015-44.796-114.355-120.428-186.472-159.049c-94.165-50.43-197.937-10.36-239.747,82.572
			c-58.391,129.785,46.791,248.071,150.159,227.112c14.069-2.853,9.01-26.112-5.064-23.261
			c-77.044,15.611-162.689-67.622-133.771-169.921c28.13-99.513,131.976-144.321,221.129-93.607
			c68.655,39.053,114.184,110.93,179.537,155.002c68.698,46.329,147.647,48.719,247.326-37.397
			c38.794-33.515,70.709-75.02,95.8-121.096c46.512-85.414,76.976-186.855,164.053-231.029
			c41.649-21.128,88.977-25.837,134.219-20.555c103.165,12.045,190.11,80.079,270.027,145.711
			c82.541,67.788,167.165,141.022,270.418,167.836c82.442,21.41,179.723,7.729,243.453-57.291
			c16.791-17.132,27.739-38.843,43.275-56.971c17.255-20.133,40.57-25.15,64.722-18.751c48.902,12.956,87.009,54.167,123.097,89.29
			c19.367,18.85,37.442,39.155,54.324,60.585C2542.156,770.097,2554.016,761.362,2548.986,753.735L2548.986,753.735z"/>
	</g>
	<g>
		<path style="fill:#F48C7F;" d="M1178.077,865.298c0,0-21.389,39.508-25.199,53.476c-3.81,13.968,14.419,47.509,14.419,47.509
			l43.042-2.343c0,0,17.711-18.551,10.13-37.127C1212.887,908.237,1183.609,900.037,1178.077,865.298z"/>
		<polygon style="fill:#F7CC7F;" points="1231.06,1300.484 1216.836,1044.271 1169.816,1046.882 1183.895,1300.484 		"/>
		<polygon style="fill:#86B1F2;" points="1167.296,966.285 1210.419,963.891 1219.422,1047.566 1167.611,1050.443 		"/>
		<polygon style="fill:#9BC1F9;" points="1193.542,1041.634 1184.976,985.365 1183.292,970.72 1177.661,971.278 1176.89,988.762 
			1173.559,1042.498 		"/>
	</g>
	<g>
		<path style="fill:#F79C8D;" d="M2310.883,1599.662c-8.229,4.8-22.057,6.057-22.057,6.057l52.8,3.771l-1.028-9.257
			c0,0-0.229-14.628-9.143-25.942s-56.686-54.628-56.686-54.628l-23.314,10.972c0,0,49.41,39.106,62.399,57.941
			C2316.879,1592.961,2312.438,1598.756,2310.883,1599.662z"/>
		<path style="fill:#F79C8D;" d="M2429.168,1599.662c-8.229,4.8-24.572,8.229-24.572,8.229l53.715,0.457l0.57-8.114
			c0,0-0.228-14.628-9.143-25.942c-8.914-11.314-56.685-54.628-56.685-54.628l-23.313,10.972c0,0,52.838,40.82,65.827,59.656
			C2438.592,1594.676,2430.721,1598.756,2429.168,1599.662z"/>
		<g>
			<path style="fill:#F7CC7F;" d="M2239.627,1130.958l-11.242-3.989l-21.76,10.154c0,0-7.786,9.4-13.227,28.258
				c-5.439,18.858-3.455,129.861,5.61,147.994C2208.076,1331.508,2239.627,1130.958,2239.627,1130.958z"/>
			<path style="fill:#B75742;" d="M2281.591,1287.781c0,0,26.942,53.504,32.468,67.868l36.596,91.786l108.113,133.713
				c0,0-21.258,5.028-34.057,3.199c0,0-119.019-91.028-127.999-104.913c-13.689-21.164-81.37-142.627-81.37-142.627l7.905-26.582
				L2281.591,1287.781z"/>
			<path style="fill:#F47458;" d="M2216.469,1287.214l0.432,45.624c0,0-20.879,141.856-17.102,150.711
				c9.214,21.6,111.656,102.971,111.656,102.971l28.285-3.771l-81.885-113.37l26.514-70.856
				c7.713-18.364,19.992-50.873,19.574-70.788c-0.356-17.067-34.186-56.641-34.186-56.641L2216.469,1287.214z"/>
			<path style="fill:#50BFA5;" d="M2257.822,1354.639c26.832-6.095,48.549-15.577,50.774-23.063
				c1.007-3.385-13.958-37.423-24.968-82.875c-3.594-14.839-2.949-28.779-8.703-80.752c-1.223-11.024-5.789-34.131-22.859-40.092
				c-6-2.088-9.342-1.824-9.342-1.824c-0.143,0.024-21.723,0.17-31.595,5.648c-2.436,3.309-11.517,21.398-13.934,70.72
				c-1.056,21.533-5.356,90.673-4.474,101.907c0.132,1.666,0.3,3.279,0.502,4.84
				C2197.086,1338.995,2228.475,1361.305,2257.822,1354.639z"/>
			<path style="fill:#F7A491;" d="M2210.391,1165.401c0.02,0.007,0.047-0.005,0.078-0.003c10.936-1.207,40.072-37.845,40.072-37.845
				l-18.657-26.396c0,0-23.15,1.638-18.257,9.254c4.889,7.603,5.777,28.791,5.777,28.791c-0.082,0.208-0.191,0.46-0.344,0.762
				C2217.345,1143.695,2211.74,1154.747,2210.391,1165.401z"/>
			<path style="fill:#F47458;" d="M2232.738,1103.178c0.07-0.112,0.135-0.23,0.202-0.348l-1.057-1.673c0,0-23.15,1.638-18.257,9.254
				c0.944,1.468,1.738,3.445,2.406,5.678C2222.486,1113.889,2228.965,1109.2,2232.738,1103.178z"/>
			<g>
				<path style="fill:#F7A491;" d="M2229.318,1054.016c0.638-0.382,12.369,34.185,5.134,45.734
					c-7.235,11.549-24.419,18.215-32.304,11.765c-8.723-7.134-15.801-45.362-3.55-58.18
					C2210.85,1040.519,2229.318,1054.016,2229.318,1054.016z"/>
				<path style="fill:#F7CC7F;" d="M2205.554,1034.385c11.416,0.086,30.161,7.635,39.403,17.782
					c11.363,12.479,8.063,29.397-0.457,39.044c-8.52,9.646-6.566,18.507-6.566,18.507s-18.771-5.356-19.736-19.098
					c-0.406-5.768,2.411-8.985-0.548-12.845c-2.278-2.974-3.112-10.33-4.669-16.442c0,0-10.769-9.214-16.609-4.903
					C2194.373,1057.903,2190.906,1034.276,2205.554,1034.385z"/>
				<path style="fill:#F7A491;" d="M2215.217,1079.716c0.771,4.346,3.444,7.506,5.971,7.058s3.949-4.334,3.178-8.68
					s-3.444-7.506-5.971-7.059C2215.867,1071.483,2214.445,1075.369,2215.217,1079.716z"/>
			</g>
		</g>
		<path style="fill:#F47458;" d="M2210.295,1140.887l-17.388,30.723c-4.802,8.483-15.571,11.469-24.056,6.668l-176.322-99.79
			c-8.484-4.802-11.469-15.571-6.667-24.056l17.388-30.723c4.801-8.484,15.57-11.469,24.055-6.667l176.322,99.789
			C2212.111,1121.633,2215.096,1132.402,2210.295,1140.887z"/>
		<path style="fill:#F8A492;" d="M2040.129,1105.368c0,0,1.386,9.613,5.957,14.643c4.572,5.028,19.543,2.171,21.828,2.856
			c2.287,0.686,14.857,13.258,14.857,13.258l11.429-13.486c0,0-14.856-8.229-16.457-13.714s-10.857-11.057-13.829-11.057
			c-2.971,0,0.801,6.429,3.543,8.714c2.744,2.286-5.484,5.143-9.656,4.857C2053.396,1111.138,2040.129,1105.368,2040.129,1105.368z"
			/>
		<path style="fill:#96D9C9;" d="M2079.115,1136.125l15.541-17.828l55.203,39.891c0,0,88.529-28.15,88.777-28.181l8.705-2.396
			c25.542-3.771,28.402,30.414,24.066,36.815c-10.102,14.916-89.602,41.677-120.745,36.653
			C2125.023,1196.943,2079.115,1136.125,2079.115,1136.125z"/>
	</g>
	<g>
		<path style="fill:#F8A492;" d="M1333.356,1114.627c0.753,2.771,1.187,3.69,2.145,5.551c6.179,12.003,20.515,29.13,20.515,29.13
			l11.089-26.665c0,0-1.808-8.373-4.943-20.342C1351.451,1105.285,1341.25,1107.014,1333.356,1114.627z"/>
		<path style="fill:#13375B;" d="M1396.937,1091.499c0,0-61.852,28.426-63.852,27.883c-1.288-0.35-25.371-43.371-25.629-83.827
			c-0.119-18.685,18.064-41.163,38.351-36.717c10.213,2.238,10.055,5.27,25.166,28.704
			C1386.083,1050.975,1396.937,1091.499,1396.937,1091.499z"/>
		<path style="fill:#F7A491;" d="M1449.736,1601.157c0,0-1.467,25.925-1.476,25.979c-0.539,3.292-2.664,11.424-2.664,14.415
			c0,11.242,50.015-9.542,38.806-14.523c-1.015-0.451-6.33-3.861-6.664-7.688c-0.514-5.895-1.818-17.819-1.818-17.819
			L1449.736,1601.157z"/>
		<path style="fill:#184655;" d="M1484.278,1626.921c0,0-11.742,3.438-17.756,4.298s-13.943-6.378-18.197-4.424
			c-4.682,2.152-4.499,21.523-4.499,21.523s62.971,5.515,80.677-0.189C1531.519,1645.868,1508.284,1634.93,1484.278,1626.921z"/>
		<path style="fill:#F7A491;" d="M1347.422,1601.157c0,0-1.467,25.925-1.476,25.979c-0.54,3.292-2.664,11.424-2.664,14.415
			c0,11.242,50.016-9.542,38.806-14.523c-1.015-0.451-7.906-6.406-8.239-10.232c-0.514-5.896-0.243-15.274-0.243-15.274
			L1347.422,1601.157z"/>
		<path style="fill:#184655;" d="M1381.964,1626.921c0,0-11.743,3.438-17.756,4.298c-6.015,0.859-13.943-6.378-18.197-4.424
			c-4.682,2.152-4.869,21.523-4.869,21.523s63.256,6.429,81.048-0.189C1429.097,1645.559,1405.971,1634.93,1381.964,1626.921z"/>
		<g>
			<path style="fill:#F7A491;" d="M1362.708,1128.992l44.05-65.857c0.185-0.576,0.585-1.756,1.197-3.559
				c2.219-6.535,6.835-20.133,10.856-33.661l0.043-0.145c1.263-4.728,3.941-12.977,6.532-20.957
				c2.881-8.873,6.453-19.875,6.578-21.753c-0.111-0.321-0.318-0.897-0.595-1.662c-1.615-4.476-3.798-15.131-4.571-19.764
				c-0.492-2.951-0.982-10.123,2.303-10.123c5.168,0,2.705,7.163,5.087,11.636c0.876-2.99,2.646-8.92,3.581-14.924l0.864-14.001
				c0.166-1.056-0.886-8.78,2.738-8.78l0.173,0.007c3.256,0.253,3.183,8.466,4.536,22.355c0.428-1.598,0.857-3.525,1.18-5.297
				c-0.038-0.95,0.614-5.126,1.102-7.33c-0.654-3.87-0.274-9.974,3.588-9.398c1.936,0.289,1.776,8.808,1.776,8.808
				c-0.021,1.169-0.134,10.176-0.076,11.956c0.399-3.022,1.946-15.912,4.976-15.912c2.513,0,2.714,3.47,2.662,6.214
				c-0.03,1.625-1.609,15.59-1.697,17.214c1.182-2.119,2.586-14.426,3.758-14.426c4.9,0,3.128,17.499,1.328,22.058
				c-0.169,0.466-0.349,1.382-0.557,2.442c-0.612,3.118-1.637,8.335-4.201,13.019c-3.077,5.616-7.32,14.546-7.967,15.915
				c-0.475,2.79-1.948,12.821-3.802,25.44c-0.794,5.398-1.664,11.32-2.57,17.452l-0.048-0.007
				c-0.166,1.327-1.085,5.547-4.568,21.379c-4.768,21.666-5.264,22.602-5.475,23.002c-2.07,3.911-49.565,72.747-51.586,75.675
				l-1.192,1.729L1362.708,1128.992z"/>
			<path style="fill:#F47458;" d="M1444.64,975.393c0,0-3.575-9.759-9.94-9.776c0,0,3.557-1.369,6.606,1.207
				C1444.355,969.4,1444.64,975.393,1444.64,975.393z"/>
		</g>
		<g>
			<path style="fill:#F7A491;" d="M1352.065,956.539l-5.67,38.274c0,0,21.607,18.516,34.202,14.61
				c10.568-3.277,3.321-18.023,3.321-18.023s-5.63-20.432-3.902-31.142C1381.743,949.548,1352.065,956.539,1352.065,956.539z"/>
			<path style="fill:#FE875E;" d="M1356.136,968.11c5.416,2.728,16.123,6.454,24.455,7.355c-0.797-5.356-1.251-11.021-0.576-15.207
				c0.797-4.942-5.096-6.111-11.672-5.941c-8.606,0.787-16.278,2.222-16.278,2.222l-1.09,7.355
				C1352.611,965.736,1354.332,967.201,1356.136,968.11z"/>
			<path style="fill:#F7A491;" d="M1324.797,912.391c-0.892,0.004,8.541,42.759,23.139,50.114
				c14.598,7.356,36.369,3.523,40.454-7.993c4.518-12.738-11.964-56.358-32.495-61.899
				C1335.363,887.07,1324.797,912.391,1324.797,912.391z"/>
			<path style="fill:#13375B;" d="M1341.689,873.105c-11.661,7.178-17.012,17.822-18.813,22.183
				c-5.474,2.771-12.095,8.767-15.274,24.92c-3.909,19.861,9.987,35.171,24.72,39.776c14.732,4.606,17.221,15.01,17.221,15.01
				l1.458-11.197c0,0-3.277-9.749-8.205-14.628c-4.928-4.879,2.334-11.99,2.973-17.789c0.492-4.466-2.589-13.137-1.922-20.465
				c0,0,8.186-13.241,16.255-16.512C1373.859,888.825,1356.65,863.896,1341.689,873.105z"/>
			<path style="fill:#F7A491;" d="M1347.895,938.824c1.908,4.938,1.128,9.841-1.742,10.95c-2.87,1.109-6.743-1.994-8.651-6.932
				c-1.908-4.938-1.128-9.841,1.742-10.951C1342.113,930.782,1345.986,933.886,1347.895,938.824z"/>
		</g>
		<path style="fill:#F8A492;" d="M1402.271,1130.052l84.969-14.784c0,0-9.668-25.975-13.122-25.975
			c-3.455,0-64.249,28.324-64.249,28.324l-4.835,10.362L1402.271,1130.052z"/>
		<path style="fill:#3C8F7C;" d="M1358.747,1192.228c0,0-8.476,43.733-5.022,76.894s3.726,150.957,3.726,150.957l-13.181,188.473
			l31.276,0.729c0,0,37.086-188.384,36.396-183.548c-0.691,4.836,12.435-132.642,12.435-132.642l-44.214-105.008L1358.747,1192.228z
			"/>
		<path style="fill:#50BFA5;" d="M1367.038,1190.155c0,0-5.527,39.378,1.382,56.649c6.908,17.27,59.254,186.73,59.945,200.547
			c0.691,13.816,18.099,166.533,18.099,166.533l36.368-1.09l7.868-169.793l-16.475-213.4l-15.995-53.954L1367.038,1190.155z"/>
		<path style="fill:#F7A491;" d="M1346.395,994.813c0,0,8.968,6.279,17.332,5.553c8.365-0.727,20.191-8.965,20.191-8.965
			l-1.643-5.946c0,0-21.639-3.364-22.185-3C1359.544,982.817,1346.395,994.813,1346.395,994.813z"/>
		<path style="fill:#F8A492;" d="M1441.977,1088.011c0,0,32.141,32.37,46.648,26.843c14.508-5.527,20.511-24.418-14.887-52.058
			C1442.059,1038.06,1441.977,1088.011,1441.977,1088.011z"/>
		<path style="fill:#355389;" d="M1463.755,1127.979c-4.775-27.722-39.378-113.989-42.141-129.878
			c-1.344-7.728-20.009-7.899-37.787-6.89c-18.778,1.065-37.432,3.601-37.432,3.601s-16.624,2.914-23.939,10.228
			c-7.314,7.314-9.257,27.543,1.257,65.942c8.3,30.313,18.589,46.957,23.681,69.035c1.031,7.406,1.915,14.713,3.086,23.25
			c1.872,33.014-0.022,76.628-0.022,76.628s90.5,20.034,124.351-10.362C1474.809,1229.533,1468.647,1156.381,1463.755,1127.979z"/>
		<path style="fill:#13375B;" d="M1486.831,1068.373c0,0-35.511,31.282-37.584,31.282c-1.334,0-50.674-38.736-62.064-70.561
			c-6.296-17.593,6.91-37.276,21.995-37.211c10.456,0.045,15.104,2.921,35.83,21.573
			C1465.733,1032.109,1486.831,1068.373,1486.831,1068.373z"/>
	</g>
	<g>
		<g>
			<path style="fill:#F8A492;" d="M2691.639,874.14c-3.83,11.253-5.5,10.15-5.953,11.606c-0.536,1.723,5.702,25.082,5.702,25.082
				s17.942,68.968,19.038,72.657l45.263,57.266l-21.116,31.162c0,0-47.638-63.646-49.566-67.421
				c-1.928-3.775-15.656-99.886-17.131-108.308c0,0-5.35-9.387-8.523-15.395c-3.172-6.007-3.592-13.155-4.232-14.987
				c-0.095-0.27-1.887-6.5-2.111-14.769c-0.193-7.127,3.154-0.45,3.154-0.45s2.66,13.145,3.628,12.753
				c0.746-0.302-1.116-7.394-1.411-15.277c-0.076-2.026-0.144-4.027-0.191-5.866c-0.125-4.826,2.711-6.275,3.622-1.245
				c0.322,1.777,0.788,4.741,0.829,6.901c0.045,2.335,0.816,4.466,1.146,6.423c0.652,3.885,1.08,6.726,1.221,6.611
				c0.184-0.148,0.84,0.529,0.824-1.625c-0.019-2.59-1.238-8.086-0.98-11.896c0.146-2.16,0.187-6.694,0.187-6.694
				s1.302-6.838,1.716-6.894c2.238-0.296,2.629,4.635,2.057,7.542c0.559,2.046,0.386,6.815,0.386,6.815s1.749,9.73,3.087,9.499
				c0.57-0.098,0.19-6.196,0.728-12.233c0.499-5.605,1.892-11.181,2.982-11.245c1.85-0.108,1.938,6.179,1.938,6.179
				s-0.165,4.406-0.112,5.874c0.063,1.721,0.634,6.861,0.634,6.861s2.303,15.834,3.553,15.504c1.248-0.33,4.137-1.96,4.334-3.125
				c0.198-1.163-1.891-6.933-1.693-8.097c0.197-1.163,1.889-1.371,3.294-1.227c1.405,0.144,3.917,9.88,3.917,9.88
				S2692.744,870.892,2691.639,874.14z"/>
			<path style="fill:#F47458;" d="M2681.854,868.625c0,0-3.136,0.238-6.079,2.774c-2.943,2.537-3.439,10.261-3.439,10.261
				s-1.469-6.499-0.538-10.048C2672.728,868.065,2678.555,867.122,2681.854,868.625z"/>
		</g>
		<g>
			<polygon style="fill:#355389;" points="2661.285,721.076 2632.201,857.449 2918.957,937.684 2955.582,765.954 			"/>
			<path style="fill:#86B1F2;" d="M2602.99,819.938l29.211,37.512l29.084-136.374l-35.989,13.842
				c-13.18,5.069-22.905,16.455-25.851,30.265l-4.348,20.389C2592.525,797.63,2595.414,810.209,2602.99,819.938z"/>
			
				<rect x="2564.743" y="751.419" transform="matrix(0.2086 -0.978 0.978 0.2086 1290.0376 3138.7578)" style="fill:#86B1F2;" width="39.26" height="41.761"/>
			<path style="fill:#355389;" d="M2568.113,748.661c4.801,1.023,6.85,10.486,4.58,21.135c-2.271,10.649-8.004,18.452-12.803,17.428
				c-4.801-1.024-6.852-10.486-4.58-21.135C2557.582,755.44,2563.314,747.638,2568.113,748.661z"/>
			<path style="fill:#86B1F2;" d="M3022.652,779.265l-37.029,173.63c-1.723,8.078-9.668,13.231-17.747,11.508l-37.614-8.022
				c-8.077-1.723-13.23-9.668-11.507-17.747l37.03-173.629c1.723-8.078,9.668-13.231,17.746-11.508l37.613,8.022
				C3019.224,763.24,3024.375,771.187,3022.652,779.265z"/>
			<polygon style="fill:#F47458;" points="2900.965,932.649 2937.116,763.138 2737.071,732.633 2706.045,878.111 			"/>
		</g>
		<g>
			<g>
				<path style="fill:#F7A491;" d="M2924.818,845.614c0,0-2.229-10.171-3.085-13.029c-0.857-2.857-5.601-8.857-6.343-8
					c-0.742,0.857-0.514,3.371,0.285,4.743c0.801,1.372,3.258,8.972,3.258,8.972l0.571,10.628c0,0-1.157-8.337-2.101-10.964
					c-0.83-2.318-4.606-8.443-4.777-8.614c-0.128-0.127-2.852-2.78-4.251-4.143c-0.647-0.632-1.759-0.362-2.002,0.51
					c-0.072,0.259-0.104,0.565-0.069,0.926c0.172,1.772,1.658,3.828,2.686,5.143c1.029,1.314,3.22,5.693,3.829,7.886
					c0.651,2.341,1.314,9.828,0.8,9.828c-0.514,0-1.288-6.582-2.129-8.643c-0.753-1.848-3.3-4.928-4.671-6.471
					c-1.372-1.543-5.371-5-7.085-5c-1.715,0,2.628,5.771,2.971,6.285c0.343,0.515,3.943,6,3.943,6s1.885,8.229,0.856,8.229
					s-10.071-16.153-10.628-13.371c-0.515,2.571,5.092,12.226,5.656,14.057c0.408,1.323,2.217,15.586,3.258,25.028
					c0.324,2.948,2.252,5.136,1.885,6.685c-1.543,6.515-22.287,93.068-22.287,93.068s-17.313,25.216-22.283,31.731
					c-4.971,6.514-16.8,24.343-16.8,24.343l29.143,17.37l41.6-68.113c0,0,8.8-107.877,8.972-107.934L2924.818,845.614z"/>
				<path style="fill:#F7A491;" d="M2928.934,846.128c0,0-0.137,0.085-0.348,0.254c-0.736,0.593-2.396,2.223-2.396,4.888
					c0,3.429-2,6.8-2,6.8l-1.086,12.058l2.872,2.743C2925.977,872.871,2932.19,847.671,2928.934,846.128z"/>
				<path style="fill:#F7A491;" d="M2632.641,1428.834c-2.666,15.991-2.56,31.764-2.658,33.557
					c-0.076,1.385,0.559,7.709,0.642,8.602c-14.157,7.235-22.757,7.89-37.79,11.338c3.76-6.834,11.192-6.333,12.186-9.209
					c1.199-3.475,0.463-17.027-2.314-39.167C2613.146,1436.475,2622.339,1431.475,2632.641,1428.834z"/>
				<path style="fill:#F7A491;" d="M2753.377,1475.633c4.84,15.53,11.18,26.982,12.1,28.548c0.441,0.752,4.204,3.288,4.683,4.055
					c-9.435,12.513-12.343,32.377-24.277,41.849c0.284-7.745,4.487-22.56,4.078-25.569c-0.495-3.637-7.288-15.529-19.798-34.291
					C2740.675,1488.071,2745.322,1482.375,2753.377,1475.633z"/>
				<path style="fill:#466EB6;" d="M2762.754,1509.847c1.14-3.521,5.629-6.23,9.117-4.458c3.514,1.785,8.152,3.679,11.656,5.641
					c3.944,2.208,4.436,4.983,4.393,5.624c-0.125,1.851-34.398,55.386-48.094,58.181c-5.607,1.145,3.624-43.878,9.49-48.654
					C2754.533,1521.931,2757.628,1525.681,2762.754,1509.847z"/>
				<path style="fill:#466EB6;" d="M2626.854,1467.327c3.417-1.655,8.575-0.435,9.695,3.205c1.127,3.669,2.96,8.188,3.949,11.972
					c1.113,4.258-0.611,6.522-1.117,6.938c-1.465,1.199-71.715,10.213-76.485,7.129c-4.771-3.084,34.736-27.934,42.396-27.195
					C2612.104,1470.031,2611.475,1474.772,2626.854,1467.327z"/>
				<path style="fill:#B75742;" d="M2748.902,1215.151l72.373,22.512l-90.668,68.589l-88.043,15.931c0,0-6.758,81.528-7.307,113.961
					c-9.059,3.717-25.811,8.439-35.209,7.316c-6.561-45.029-13.307-138.053-5.277-152.302
					C2601.713,1278.84,2748.902,1215.151,2748.902,1215.151z"/>
				<path style="fill:#F47458;" d="M2767.414,1225.927c3.756-7.102,4.418-21.44,4.418-21.44l46.305,32.163l13.773,8.038
					c0,0,2.822,33.896-14.86,54.182s-100.982,75.275-100.982,75.275s29.53,76.204,43.28,104.75
					c-6.977,7.77-18.799,17.386-28.888,20.946c-12.604-20.544-80.739-114.381-77.563-135.2
					C2655.245,1349.258,2763.658,1233.027,2767.414,1225.927z"/>
				<path style="fill:#466EB6;" d="M2850.419,1018.604c0,0-26.729,29.709-41.906,35.962c-3.323,1.369-11.917,0.83-14.671,0.984
					c-15.328,0.855-54.854-36.666-54.854-36.666s-21.421,28.909-21.243,33.122c0.152,3.594,24.552,28.033,26.073,37.077
					c4.745,28.22-3.018,127.356-3.018,127.356c21.062,16.392,92.652,30.321,92.652,30.321s15.47-152.76,16.747-153.859
					c5.291-4.556,30.541-42.404,31.518-46.778C2883.478,1038.245,2850.419,1018.604,2850.419,1018.604z"/>
			</g>
			<path style="fill:#F7A491;" d="M2789.285,1042.592l-3.576,14.582c0,0-0.814,12.694,5.078,13.836
				c7.107,1.377,17.668-9.259,17.668-9.259l6.117-41.124L2789.285,1042.592z"/>
			<path style="fill:#F7A491;" d="M2789.285,1042.592l-3.576,14.582c0,0-0.814,12.694,5.078,13.836
				c7.107,1.377,18.078-11.596,18.078-11.596l5.707-38.787L2789.285,1042.592z"/>
			<path style="fill:#F47458;" d="M2814.512,1020.816l-25.227,21.775l-2.671,10.893
				C2796.257,1051.165,2810.004,1040.554,2814.512,1020.816z"/>
			<path style="fill:#F7A491;" d="M2789.199,982.979c-6.1-0.02-11.591,4.215-13.736,10.303c-1.778,5.046-4.055,12.528-5.504,21.113
				c-2.67,15.815,6.336,30.291,14.173,31.447c7.837,1.155,26.501-4.036,30.63-26.438c1.771-9.604,4.098-22.199-3.801-28.816
				C2804.818,985.44,2796.211,983.001,2789.199,982.979z"/>
			<path style="fill:#184655;" d="M2812.216,1036.475c0,0,27.624-24.617,28.829-43.849c1.206-19.232-16.555-29.535-31.743-30.07
				c-6.861-0.242-11.503,0.064-18.588,0.958c-15.217,1.918-25.077,8.664-21.606,21.13c4.659,16.738,36.241,2.617,42.697,7.812
				c5.33,4.288-3.31,14.6,1.867,18.532c4.865,3.698,2.387,2.445,0.776,9.477C2812.838,1027.495,2812.216,1036.475,2812.216,1036.475
				z"/>
			<path style="fill:#F7A491;" d="M2822.867,1014.173c-0.686,4.608-3.502,8.011-6.293,7.599c-2.791-0.411-4.498-4.48-3.814-9.089
				c0.686-4.608,3.502-8.01,6.293-7.599C2821.844,1005.496,2823.551,1009.565,2822.867,1014.173z"/>
		</g>
	</g>
	<path style="fill:#466EB6;" d="M2333.794,1587.639c3.526-1.117,8.341,0.962,8.925,4.83c0.588,3.897,1.742,8.772,2.182,12.766
		c0.494,4.492-1.479,6.504-2.025,6.842c-1.578,0.975-65.063,4.184-75.295-5.339c-4.189-3.899,37.816-22.544,45.113-20.546
		C2319.182,1587.969,2317.928,1592.667,2333.794,1587.639z"/>
	<path style="fill:#466EB6;" d="M2452.992,1586.84c3.526-1.118,8.342,0.961,8.926,4.829c0.588,3.897,1.741,8.772,2.182,12.765
		c0.494,4.493-1.48,6.506-2.026,6.842c-1.578,0.975-65.063,4.186-75.296-5.339c-4.188-3.898,37.818-22.544,45.113-20.545
		C2438.381,1587.169,2437.127,1591.867,2452.992,1586.84z"/>
</g>
</svg>
