<?xml version="1.0" encoding="utf-8"?>
<!-- Generator: Adobe Illustrator 27.5.0, SVG Export Plug-In . SVG Version: 6.00 Build 0)  -->
<svg version="1.1" xmlns="http://www.w3.org/2000/svg" xmlns:xlink="http://www.w3.org/1999/xlink" x="0px" y="0px"
	 viewBox="0 0 1100 800" style="enable-background:new 0 0 1100 800;" xml:space="preserve">
<g id="Background">
	<rect style="fill:#8EC3CB;" width="1100" height="800"/>
</g>
<g id="Shadow">
	<g style="opacity:0.4;">
		<path style="fill:#F1F2F2;" d="M528.63,626.116c-25.126,0.067-50.253,0.611-75.335,3.123c-9.457,0.947-18.716,3.03-28.195,3.87
			c-18.933,1.678-37.528,4.809-56.528,6.254c-15.301,1.163-30.665,1.849-45.922,3.325c-14.303,1.383-30.139,1.064-44.332-1.221
			c-10.508-1.692-21.063-2.644-31.394-5.362c-11.557-3.04-24.112-5.214-36.153-5.136c-17.171,0.111-33.892,0.125-50.325,5.492
			c-5.768,1.884-12.83,4.982-17.21,8.936c-10.027,9.053-11.384,31.641-1.372,41.03c16.863,15.802,52.855,22.003,76.493,22.295
			c25.902,0.321,51.065-1.41,77.005-2.428c24.104-0.946,48.147-2.292,72.291-2.244c49.311,0.097,98.628,0,147.851-2.966
			c46.245-2.786,92.607-1.83,138.953-1.83c47.526,0,94.731,0.336,141.915,6.023c20.559,2.478,41.503,3.345,62.164,5.081
			c18.504,1.555,36.286-0.031,54.717-1.467c15.476-1.206,30.851-4.785,44.911-10.835c11.129-4.789,30.97-19.665,34.383-31.095
			c9.568-32.044-134.845-31.274-157.018-31.202c-24.805,0.081-49.806,0.815-74.591-0.036c-10.426-0.358-20.698-2.193-30.874-4.203
			c-10.135-2.003-20.347-1.493-30.625-2.335c-42.861-3.51-85.818-2.997-128.816-2.997
			C556.629,626.189,542.629,626.079,528.63,626.116z"/>
	</g>
</g>
<g id="Object">
	<g>
		<g>
			<g>
				<g>
					<g>
						<polygon style="fill:#FFFFFF;" points="507.685,134.921 354.875,127.653 350.762,212.784 483.488,219.097 504.996,190.551 
							514.165,190.988 532.823,221.444 666.422,227.799 670.536,142.668 						"/>
					</g>
				</g>
				<polygon style="fill:#474EBB;" points="374.165,145.045 487.68,150.444 486.057,184.021 473.075,201.251 371.682,196.429 				
					"/>
				<polygon style="fill:#D34E4E;" points="649.658,158.149 536.142,152.749 534.52,186.326 545.781,204.71 647.175,209.532 				"/>
				<polygon style="opacity:0.11;fill:#3B455A;" points="487.614,150.406 371.517,196.257 473.02,201.054 486.113,183.638 				"/>
				<polygon style="opacity:0.11;fill:#3B455A;" points="649.86,158.273 545.755,204.928 647.258,209.726 				"/>
			</g>
		</g>
		<g>
			<polygon style="fill:#CACACA;" points="847.924,311.049 911.365,379.289 863.146,419.91 856.016,411.38 874.9,372.441 
				837.913,340.084 			"/>
			<g>
				<g>
					<polygon style="fill:#3B455A;" points="863.713,481.104 866.576,547.001 858.182,659.047 845.622,659.933 830.361,558.168 
						809.25,472.055 					"/>
					<polygon style="fill:#3B455A;" points="846.071,665.183 860.136,670.964 866.445,663.747 859.171,657.487 845.588,658.445 
											"/>
				</g>
				<g>
					<polygon style="fill:#3B455A;" points="774.799,457.786 772.043,507.596 780.221,655.701 792.798,656.324 811.646,559.187 
						828.271,452.663 					"/>
					<polygon style="fill:#3B455A;" points="792.46,661.583 778.521,667.655 772.06,660.571 779.2,654.161 792.8,654.836 					"/>
				</g>
				<g>
					<path style="fill:#CACACA;" d="M847.924,311.049l-39.245-4.172c0,0-21.833,2.315-36.646,53.759
						c-8.242,28.621-10.75,73.715-11.354,108.094c0.927,4.904,6.312,26.385,29.081,22.741c39.101-6.258,59.913-12.515,76.94-9.386
						c14.505,3.129,13.278-16.686,11.684-31.808l-5.78-46.788L847.924,311.049z"/>
				</g>
				<g>
					<path style="fill:#A36D62;" d="M840.345,262.579c-9.892-2.164-20.073-4.102-29.975-2.157c-2.169,0.426-4.497,1.175-5.673,3.033
						c-0.456,0.72-0.697,1.55-0.919,2.371c-2.499,9.216-5.669,22.878,0.446,31.37c1.166,1.619,2.732,2.905,4.415,3.948
						c2.25,1.395,4.741,2.344,7.317,2.848c-0.533,2.291-1.275,4.535-2.215,6.693c2.264,3.388,12.828,3.794,14.781,0.546
						c0.109-2.811,0.219-5.621,0.328-8.431c1.286-0.515,2.528-1.142,3.695-1.904c4.515-2.95,7.489-7.427,9.217-12.436
						c1.881-5.454,4.528-10.638,6.247-16.197c0.626-2.025,1.12-4.336,0.046-6.167c-1.143-1.949-3.61-2.612-5.829-3.103
						C841.6,262.855,840.973,262.716,840.345,262.579z"/>
					<path style="fill:#3B455A;" d="M807.421,267.848c4.889-3.12,12.224-4.463,16.821-4.132
						c13.898,0.999,18.99,11.126,19.732,23.806c3.829-4.828,11.014-10.902,11.448-17.115c0.355-5.086-0.354-12.021-3.225-16.413
						c-2.687-4.109-9.558-6.367-13.644-8.748c-3.852-2.245-7.703-4.49-11.555-6.735c-0.801-0.467-1.624-0.942-2.54-1.1
						c-1.083-0.186-2.186,0.088-3.25,0.361c-9.103,2.334-18.206,4.669-27.31,7.003c-1.749,0.448-3.741,1.104-4.385,2.778
						c-0.392,1.018-0.161,2.156,0.073,3.221c1.034,4.689,3.018,9.481,3.509,14.231c0.556,2.759,2.214,16.903,7.139,15.271
						c1.446-2.346,1.662-5.236,2.789-7.748C803.857,270.671,805.438,269.114,807.421,267.848z"/>
				</g>
				<polygon style="fill:#CACACA;" points="808.679,306.877 794.174,311.257 741.198,366.323 738.045,384.469 763.37,425.958 
					770.208,410.751 759.487,380.089 776.515,368.2 799.219,317.515 				"/>
			</g>
		</g>
		<g>
			<g id="XMLID_523_">
				<g id="XMLID_525_">
					<polygon style="fill:#3B455A;" points="281.684,659.511 281.018,666.385 266.993,672.347 260.979,665.016 268.324,658.599 
						282.35,652.637 					"/>
				</g>
				<g id="XMLID_524_">
					<polygon style="fill:#3B455A;" points="293.397,520.192 282.598,657.344 269.083,659.166 257.898,542.27 248.65,505.184 					
						"/>
				</g>
			</g>
			<g id="XMLID_520_">
				<g id="XMLID_522_">
					<polygon style="fill:#3B455A;" points="325.717,484.2 333.819,647.175 321.491,649.477 295.805,526.159 281.675,490.452 					
						"/>
				</g>
				<g id="XMLID_521_">
					<polygon style="fill:#3B455A;" points="322.587,654.871 337.234,659.316 342.585,651.137 334.604,645.448 321.272,647.937 
											"/>
				</g>
			</g>
			<g id="XMLID_519_">
				<path style="fill:#979797;" d="M308.286,308.178c-9.982-8.199-34.048-3.485-46.71-3.485c1.219,0-12,70.13-12.419,76.246
					c-1.525,22.299-8.489,44.855-18.1,65.272c-4.052,8.608-8.881,16.912-11.762,25.972c-4.774,15.014-4.761,32.702-3.411,48.242
					c13.589,3.706,26.317,10.646,40.293,12.445c11.497,1.479,23.109-0.619,34.658-1.633c13.657-1.199,27.41-0.88,41.08-1.922
					c13.67-1.043,27.488-3.536,39.588-9.932c-5.411-10.389-9.578-21.366-13.046-32.53c-3.443-11.086-7.872-23.397-9.129-34.957
					c-1.135-10.442-1.321-21.069-2.852-31.657c-1.781-12.317-3.922-24.594-6.895-36.687c-3.4-13.83-7.887-27.396-13.396-40.54
					c-4.194-10.007-9.198-26.396-17.077-34.098C308.845,308.657,308.571,308.413,308.286,308.178z"/>
			</g>
			<polygon style="fill:#979797;" points="313.731,314.815 349.569,371.634 369.223,344.543 387.792,347.642 378.988,391.598 
				354.609,409.55 313.731,385.229 			"/>
		</g>
		<g>
			<polygon style="fill:#EBB044;" points="542.455,323.062 526.646,328.442 501.068,366.48 468.313,344.736 457.904,356.994 
				474.423,381.315 504.168,402.39 542.455,362.633 			"/>
			<polygon style="fill:#E5BBA3;" points="615.522,238.71 616.731,221.645 602.82,210.959 596.987,218.528 603.269,229.659 
				601.025,235.447 607.193,244.638 			"/>
			<g>
				<g>
					<g>
						<polygon style="fill:#3B455A;" points="505.294,432.517 504.168,529.071 514.539,653.367 528.64,653.367 545.512,538.693 
							564.808,423.822 						"/>
						<polygon style="fill:#3B455A;" points="528.558,659.267 513.31,666.831 505.686,659.267 513.31,651.702 528.558,651.702 
													"/>
					</g>
					<g>
						<polygon style="fill:#3B455A;" points="601.969,432.517 602.247,488.377 592.737,653.367 578.636,653.367 555.048,543.88 
							542.455,423.822 						"/>
						<polygon style="fill:#3B455A;" points="578.717,659.267 593.965,666.831 601.59,659.267 593.965,651.702 578.717,651.702 
													"/>
					</g>
				</g>
				<path style="fill:#EBB044;" d="M616.634,466.151c0.302,8.863,0.108,20.718-3.653,21.161c-0.704,0.083-1.383-0.226-2.003-0.525
					c-6.539-3.152-11.201-7.609-17.649-10.654c-6.756-3.191-14.435-4.862-21.939-6.015c-11.193-1.774-22.571-2.839-33.836-2.939
					c-9.682-0.085-19.75,4.297-28.903,6.707c-3.523,0.928-6.389,3.475-9.316,5.473c-4.323,2.951-6.218,4.12-5.629-1.91
					c0.962-9.839,1.961-19.675,3.181-29.486c2.433-19.568,5.745-39.09,11.349-58.033c2.141-7.237,4.611-14.373,7.079-21.506
					c3.006-8.687,6.013-17.373,9.019-26.059c3.737-10.796,10.043-18.401,21.085-22.178c9.543-3.264,21.396-4.156,30.677,0.412
					c10.318,5.078,15.225,22.38,20.237,31.625c4.392,8.102,9.929,30.2,11.573,38.935c1.979,10.513,3.807,20.976,5.246,31.412
					c1.594,11.559,2.717,23.083,3.043,34.539C616.232,458.378,616.49,461.92,616.634,466.151z"/>
				<g>
					<path style="fill:#E5BBA3;" d="M554.11,322.495c0.224,0.193,0.482,0.345,0.779,0.442c0.592,0.193,1.235,0.123,1.854,0.05
						c2.521-0.296,5.041-0.592,7.562-0.888c-0.831-7.659,3.681-9.391,8.078-14.317c4.457-4.994,3.085-11.727,2.834-17.838
						c-0.072-1.702-0.155-3.455-0.88-4.999c-1.273-2.709-4.236-4.206-7.113-5.093c-7.342-2.264-15.739-1.706-22.203,2.423
						c-1.72,1.099-3.327,2.48-4.259,4.287c-1.437,2.787-1.072,6.112-0.671,9.217c0.616,4.772,2.039,9.459,4.759,13.482
						c2.534,3.747,7.365,5.542,7.92,10.039C552.914,320.462,553.268,321.769,554.11,322.495z"/>
					<g>
						<path style="fill:#3B455A;" d="M540.304,290.232c0.429,1.925,1.333,3.872,0.862,5.786c-3.081-1.038-5.094-4.164-6.186-7.343
							c-0.495-1.441-0.854-2.966-0.73-4.491c0.125-1.524,0.792-3.056,2.005-3.917c1.693-1.202,4.729-0.73,5.213,1.449
							C541.956,283.912,539.659,287.336,540.304,290.232z"/>
						<path style="fill:#3B455A;" d="M523.946,273.326c0.073-2.306,0.958-4.367,3.035-5.759c1.79-1.2,3.855-2.195,4.942-4.102
							c0.844-1.48,0.968-3.313,1.805-4.798c1.515-2.689,4.803-3.48,7.663-4.392c7.156-2.28,11.008-4.912,18.587-1.993
							c5.388,2.075,12.351,2.353,17.352,5.381c2.089,1.264,3.866,3.295,5.324,5.557c5.052,7.838,6.265,18.858,2.975,27.033
							c-0.737,1.83-1.672,3.513-2.673,5.124c-2.001,3.222-4.144,7.186-7.686,8.763c-0.223-1.518-1.362-2.356-1.719-3.848
							c-0.257-1.074-0.171-2.199-0.115-3.304c0.218-4.298,1.546-11.094-2.78-13.226c-5.471-2.695-15.732-0.264-21.001,2.018
							c-4.662,2.019-12.53,4.645-17.5,2.483C527.542,286.254,523.79,278.252,523.946,273.326z"/>
					</g>
				</g>
			</g>
			<polygon style="fill:#EBB044;" points="571.778,319.618 620.152,305.473 602.247,245.467 617.001,234.967 652.618,304.432 
				642.768,328.488 596.55,352.158 			"/>
		</g>
		<g>
			<path style="fill:#EBB044;" d="M982.095,358.572c1.346-1.774,2.251-3.915,2.529-6.28c0.541-4.605-1.425-8.924-4.824-11.621
				c0.204-0.615,0.348-1.259,0.427-1.926c0.629-5.359-3.239-10.209-8.639-10.833c-0.517-0.06-1.029-0.078-1.532-0.059
				c-1.814-4.962-6.318-8.747-11.961-9.399c-3.186-0.368-6.249,0.319-8.838,1.78c0.16-0.597,0.281-1.212,0.355-1.843
				c0.835-7.105-4.294-13.536-11.455-14.364c-5.119-0.592-9.89,1.841-12.5,5.871c-2.426-3.01-5.992-5.107-10.144-5.587
				c-3.027-0.35-5.951,0.208-8.498,1.456c-1.984-3.467-5.547-5.983-9.844-6.48c-5.162-0.597-9.97,1.881-12.565,5.973
				c-0.888-0.392-1.85-0.66-2.867-0.777c-5.401-0.624-10.289,3.213-10.919,8.572c-0.09,0.768-0.085,1.525,0.001,2.261
				c-1.914-1.647-4.329-2.762-7.035-3.075c-7.161-0.828-13.642,4.26-14.477,11.365c-0.22,1.873-0.022,3.698,0.515,5.387
				c-5.276,1.161-9.479,5.519-10.14,11.145c-0.077,0.659-0.103,1.313-0.081,1.956L982.095,358.572z"/>
			<path style="fill:#E7B43A;" d="M981.589,359.197c1.625-1.886,2.723-4.254,3.034-6.905c0.478-4.07-1.003-7.917-3.701-10.617
				c-37.542,10.088-117.608,1.197-117.608,1.197l-0.618,2.578L981.589,359.197z"/>
			<g>
				<path style="fill:#D34E4E;" d="M864.398,348.262l-7.711,130.644c3.375,0.884,7.074,1.797,11.048,2.696l10.85-131.699
					L864.398,348.262z"/>
				<path style="fill:#D34E4E;" d="M916.997,354.345l-15.624,133.021c3.823,0.435,7.728,0.801,11.691,1.077l20.204-132.216
					L916.997,354.345z"/>
				<path style="fill:#D34E4E;" d="M840.35,345.482l-5.073,126.955c0,0,3.882,1.425,10.599,3.439L853.482,347L840.35,345.482z"/>
				<path style="fill:#D34E4E;" d="M889.49,351.164l-10.933,132.7c3.821,0.732,7.813,1.426,11.941,2.054L906.1,353.085
					L889.49,351.164z"/>
				<path style="fill:#D34E4E;" d="M982.747,361.947l-13.132-1.518l-22.583,127.819c3.99-0.362,7.971-0.859,11.922-1.51
					L982.747,361.947z"/>
				<path style="fill:#D34E4E;" d="M944.172,357.487l-20.09,131.474c3.872,0.092,7.776,0.085,11.692-0.035l22.926-129.759
					L944.172,357.487z"/>
				<path style="fill:#EEECEC;" d="M906.1,353.085l-15.602,132.833c3.533,0.537,7.166,1.026,10.876,1.449l15.624-133.021
					L906.1,353.085z"/>
				<path style="fill:#EEECEC;" d="M853.482,347l-7.606,128.875c3.051,0.915,6.688,1.951,10.811,3.031l7.711-130.644L853.482,347z"
					/>
				<path style="fill:#EEECEC;" d="M878.585,349.903l-10.85,131.699c3.417,0.773,7.036,1.536,10.822,2.262l10.933-132.7
					L878.585,349.903z"/>
				<path style="fill:#EEECEC;" d="M958.699,359.167l-22.926,129.759c3.748-0.116,7.507-0.337,11.258-0.678l22.583-127.819
					L958.699,359.167z"/>
				<path style="fill:#EEECEC;" d="M933.268,356.226l-20.204,132.216c3.63,0.253,7.309,0.431,11.018,0.518l20.09-131.474
					L933.268,356.226z"/>
			</g>
			<polygon style="fill:#DEDDDB;" points="986.181,357.336 838.076,340.211 837.496,345.152 985.601,362.277 			"/>
			<polygon style="fill:#AF1A1D;" points="982.747,361.947 981.632,367.799 889.49,351.164 			"/>
			<g>
				<path style="fill:#AF1A1D;" d="M856.98,473.945l-0.293,4.961c3.375,0.884,7.074,1.797,11.048,2.696l0.623-7.564
					C864.302,474.088,860.483,474.044,856.98,473.945z"/>
				<path style="fill:#AF1A1D;" d="M903.279,471.137l-1.906,16.229c3.823,0.435,7.728,0.801,11.691,1.077l3.043-19.913
					C911.853,469.572,907.557,470.432,903.279,471.137z"/>
				<path style="fill:#AF1A1D;" d="M846.02,473.423c-6.711-0.455-10.744-0.986-10.744-0.986s3.882,1.425,10.599,3.439
					L846.02,473.423z"/>
				<path style="fill:#AF1A1D;" d="M879.396,473.677l-0.839,10.187c3.821,0.732,7.813,1.426,11.941,2.054l1.557-13.257
					C887.737,473.127,883.496,473.456,879.396,473.677z"/>
				<path style="fill:#AF1A1D;" d="M953.397,452.22l-6.365,36.027c3.99-0.362,7.971-0.859,11.922-1.51l9.523-49.947
					C964.371,442.838,959.238,447.933,953.397,452.22z"/>
				<path style="fill:#AF1A1D;" d="M927.719,465.161l-3.637,23.8c3.872,0.092,7.776,0.085,11.692-0.035l5.159-29.198
					C936.702,461.816,932.271,463.615,927.719,465.161z"/>
				<path style="fill:#DDDBDB;" d="M892.055,472.66l-1.557,13.257c3.533,0.537,7.166,1.026,10.876,1.449l1.906-16.229
					C899.51,471.759,895.754,472.26,892.055,472.66z"/>
				<path style="fill:#DDDBDB;" d="M846.02,473.423l-0.145,2.453c3.051,0.915,6.688,1.951,10.811,3.031l0.293-4.961
					C852.837,473.828,849.139,473.634,846.02,473.423z"/>
				<path style="fill:#DDDBDB;" d="M868.358,474.039l-0.623,7.564c3.417,0.773,7.036,1.536,10.822,2.262l0.839-10.187
					C875.575,473.883,871.878,473.996,868.358,474.039z"/>
				<path style="fill:#DDDBDB;" d="M940.932,459.728l-5.159,29.198c3.748-0.116,7.507-0.337,11.258-0.678l6.365-36.027
					C949.523,455.065,945.337,457.553,940.932,459.728z"/>
				<path style="fill:#DDDBDB;" d="M916.107,468.53l-3.043,19.913c3.63,0.253,7.309,0.431,11.018,0.518l3.637-23.8
					C923.916,466.453,920.03,467.569,916.107,468.53z"/>
			</g>
		</g>
		<g>
			<g>
				<path style="fill:#FFFFFF;" d="M284.34,346.025c-0.82,17.458-15.748,30.951-33.344,30.138l-6.578,140.061
					c17.596,0.814,31.195,15.626,30.375,33.084l347.057,16.046c5.785,0.268,10.693-4.169,10.962-9.908l8.571-182.498
					c0.27-5.74-4.201-10.609-9.986-10.877L284.34,346.025z"/>
				<path style="fill:#474EBB;" d="M806.121,542.194l6.578-140.061c-17.595-0.814-31.194-15.626-30.374-33.084l-130.688-6.042
					c-5.393-0.249-9.969,3.887-10.221,9.238l-8.637,183.904c-0.251,5.351,3.917,9.892,9.311,10.141l130.688,6.042
					C773.597,554.874,788.526,541.38,806.121,542.194z"/>
				<path style="opacity:0.19;fill:#2B292A;" d="M632.723,362.133l-9.283-0.429c5.052,0.234,8.929,5.076,8.659,10.815
					l-8.571,182.499c-0.27,5.74-4.583,10.203-9.636,9.969l9.283,0.429c5.052,0.233,9.366-4.23,9.636-9.969l8.571-182.498
					C641.652,367.208,637.775,362.366,632.723,362.133z"/>
				<g>
					<path style="fill:#474EBB;" d="M351.246,417.856l11.437,0.529l-3.085,65.685l-12.832-0.593l1.685-35.887l-16.934,35.182
						l-9.391-0.434l-13.678-36.135l-1.664,35.426l-12.737-0.589l3.085-65.685l11.529,0.533l19.11,49.422L351.246,417.856z"/>
					<path style="fill:#474EBB;" d="M386.39,482.026c-4.738-2.961-8.304-7.055-10.698-12.282c-2.396-5.226-3.432-11.253-3.111-18.08
						s1.915-12.701,4.788-17.622c2.87-4.921,6.803-8.638,11.798-11.15c4.994-2.511,10.776-3.616,17.348-3.312
						c6.569,0.304,12.209,1.937,16.915,4.897c4.706,2.961,8.243,7.023,10.609,12.186c2.367,5.164,3.389,11.159,3.069,17.986
						c-0.321,6.827-1.902,12.733-4.746,17.717c-2.842,4.985-6.746,8.734-11.709,11.246c-4.963,2.514-10.732,3.618-17.301,3.315
						C396.78,486.621,391.127,484.989,386.39,482.026z M417.217,470.462c3.311-3.73,5.139-9.223,5.48-16.481
						c0.341-7.256-0.966-12.864-3.916-16.823c-2.951-3.957-7.216-6.066-12.794-6.324c-5.579-0.258-10.024,1.448-13.333,5.116
						c-3.309,3.669-5.134,9.132-5.475,16.389c-0.344,7.32,0.958,12.973,3.908,16.961c2.95,3.989,7.215,6.112,12.794,6.37
						C409.46,475.928,413.905,474.192,417.217,470.462z"/>
					<path style="fill:#474EBB;" d="M496.666,424.58l14.598,0.675l-32.838,64.309l-11.623-0.537l-26.668-67.061l15.063,0.696
						l18.401,48.65L496.666,424.58z"/>
					<path style="fill:#474EBB;" d="M513.385,491.18l3.085-65.685l14.506,0.671l-3.085,65.685L513.385,491.18z"/>
					<path style="fill:#474EBB;" d="M541.184,492.466l3.085-65.685l45.654,2.111l-0.524,11.163l-31.521-1.457l-0.728,15.499
						l29.567,1.367l-0.529,11.255l-29.567-1.367l-0.78,16.606l31.521,1.457l-0.524,11.163L541.184,492.466z"/>
				</g>
			</g>
			<polygon style="fill:#7FC5A3;" points="724.679,418.168 737.394,447.046 768.578,453.024 744.828,473.947 748.734,505.221 
				721.34,489.274 692.569,502.624 699.39,471.846 677.703,448.823 709.312,445.748 			"/>
		</g>
		<g id="XMLID_515_">
			<g id="XMLID_517_">
				<g id="XMLID_518_">
					<path style="fill:#F4D3C3;" d="M171.507,408.671c-2.77,2.288-12.031,4.618-15.471,2.825c-7.941-4.141,3.322-7.759,6.933-9.878
						c-1.13-1.029-2.253-1.989-3.143-3.19c-0.816-1.102,11.792-4.061,13.477-3.512c4.044,1.318,4.052,4.003,5.758,7.559
						C176.502,404.474,174.016,406.596,171.507,408.671z"/>
				</g>
			</g>
			<g id="XMLID_516_">
				<polygon style="fill:#979797;" points="276.951,332.993 238.037,403.811 170.497,411.562 176.364,396.632 222.661,378.943 
					244.435,332.612 269.35,312.233 				"/>
			</g>
		</g>
		<polygon style="fill:#E5BBA3;" points="366.984,341.359 381.973,340.04 391.593,351.914 385.029,357.086 375.14,351.824 
			370.085,353.859 361.904,348.666 		"/>
		<polygon style="fill:#E5BBA3;" points="464.791,342.766 448.647,348.774 444.641,365.771 454.004,367.886 461.593,357.587 
			467.831,357.204 473.689,347.816 		"/>
		<polygon style="fill:#A36D62;" points="747.444,363.802 751.198,372.022 737.538,377.916 724.892,369.237 731.552,357.856 		"/>
		<polygon style="fill:#A36D62;" points="972.998,430.098 964.564,433.477 959.197,419.69 968.464,407.515 979.647,414.591 		"/>
		<g>
			<g>
				<g>
					<path style="fill:#EBB044;" d="M174.26,298.081l-8.047,1.792l-12.531-55.407c-1.233-4.584-0.159-14.627,12.596-20.694
						l31.169-16.292l3.846,7.121l-31.392,16.405c-9.998,4.725-8.263,11.308-8.244,11.374l0.052,0.206L174.26,298.081z"/>
				</g>
				<polygon style="fill:#979797;" points="153.825,245.131 154.182,246.708 162.142,244.534 161.786,242.956 				"/>
				<path style="fill:#979797;" d="M161.553,240.517l-8.199-0.619c-0.051,0.561-0.072,1.101-0.063,1.616l8.311,0.627
					C161.55,241.841,161.488,241.271,161.553,240.517z"/>
				<path style="fill:#979797;" d="M162.177,238.029l-7.461-3.326c-0.226,0.51-0.419,1.017-0.586,1.517l7.559,3.369
					C161.789,239.109,161.944,238.584,162.177,238.029z"/>
				<path style="fill:#979797;" d="M163.579,235.688l-5.861-5.657c-0.369,0.425-0.712,0.853-1.027,1.283l5.959,5.752
					C162.903,236.617,163.208,236.156,163.579,235.688z"/>
				<path style="fill:#979797;" d="M160.78,227.136l3.66,7.579c0.375-0.382,0.8-0.765,1.274-1.146l-3.585-7.425
					C161.654,226.468,161.208,226.8,160.78,227.136z"/>
			</g>
			<path style="fill:#D34E4E;" d="M247.901,448.151L222.3,291.006l-99.361,22.122l45.252,152.769
				C168.191,465.898,207.004,468.984,247.901,448.151z"/>
			<polygon style="fill:#D5D4D3;" points="226.639,278.938 113.819,304.057 116.209,314.627 229.03,289.508 			"/>
			<polygon style="fill:#FFFFFF;" points="221.026,273.081 116.371,296.382 117.902,303.148 222.557,279.847 			"/>
			<path style="opacity:0.15;fill:#3B455A;" d="M122.939,313.128c0,0,77.6-14.001,101.521-8.863l-2.16-13.259L122.939,313.128z"/>
			<path style="opacity:0.16;fill:#3B455A;" d="M168.191,465.898c0,0,38.813,3.086,79.71-17.747l-19.438-119.313
				C220.713,442.07,168.191,465.898,168.191,465.898z"/>
			<polygon style="fill:#FFFFFF;" points="241.67,399.023 231.072,332.713 132.968,354.556 152.264,418.929 			"/>
			<path style="opacity:0.1;fill:#474EBB;" d="M231.072,332.713c0,0,0.085,43.064-22.79,73.743l33.388-7.434L231.072,332.713z"/>
			<polygon style="opacity:0.14;fill:#3B455A;" points="154.154,418.508 239.96,399.404 241.104,406.426 			"/>
			<path style="fill:#CBC9C8;" d="M221.026,273.081l1.53,6.766l-49.387,10.996C173.17,290.843,214.735,281.444,221.026,273.081z"/>
		</g>
		<g id="XMLID_511_">
			<g id="XMLID_514_">
				<path style="fill:#3B455A;" d="M287.08,270.268c6.324,1.142,14.12,6.503,15.644,13.122c0.734,3.188-0.312,6.123,0.61,9.504
					c1.792,6.672-6.344,16.501,1.71,21.138c4.14,2.384,9.313,1.611,14.023,0.767c0.571-0.102,1.168-0.216,1.62-0.578
					c0.744-0.595,0.869-1.707,0.587-2.613c-0.282-0.906-0.886-1.671-1.416-2.46c-5.534-8.257-4.193-20.1-6.345-29.503
					c-2.148-9.385-7.23-18.733-16.6-22.585c-4.672,3.003-8.069,7.895-9.233,13.296L287.08,270.268z"/>
			</g>
			<g id="XMLID_513_">
				<path style="fill:#F4D3C3;" d="M295.014,310.671c6.084-2.582,10.115-8.728,11.44-15.16c1.325-6.433,0.275-13.13-1.516-19.45
					c-5.961-21.033-32.565-15.008-38.769,2.978C260.763,294.713,277.324,318.178,295.014,310.671z"/>
			</g>
			<g id="XMLID_512_">
				<path style="fill:#3B455A;" d="M264.041,322.242c2.986-1.842,5.915-3.771,7.645-7.211c2.797-5.561,1.617-14.202,1.951-20.234
					c0.349-6.359,0.933-13.288,5.327-17.93c2.87-3.032,6.4-3.864,10.387-4.267c2.73-0.276,2.924,0.741,5.11-0.911
					c1.676-1.266,2.902-4.726,3.144-6.71c0.407-3.345-1.222-6.698-3.63-9.073c-3.707-3.655-7.866-5.273-12.951-4.954
					c-17.848,1.118-30.319,12.73-33.855,30.424c-1.7,8.505,0.882,17.595-1.006,25.801c-1.166,5.066-4.068,8.622-4.907,13.983
					c-2.177,13.911-8.266,31.982-6.477,46.024c0.066,0.52,0.178,1.092,0.601,1.405c0.862,0.637,1.989-0.323,2.619-1.188
					c3.674-5.049,7.348-10.098,11.022-15.147c1.443-1.982,2.904-3.999,3.74-6.299c2.081-5.727,0.147-12.744,3.738-17.681
					C258.458,325.582,261.274,323.949,264.041,322.242z"/>
			</g>
		</g>
		<polygon style="fill:#F4D3C3;" points="155.066,402.455 152.113,410.992 138.1,405.981 134.901,391.058 147.615,387.312 		"/>
	</g>
</g>
</svg>
