<?xml version="1.0" encoding="utf-8"?>
<!-- Generator: Adobe Illustrator 27.5.0, SVG Export Plug-In . SVG Version: 6.00 Build 0)  -->
<svg version="1.1" xmlns="http://www.w3.org/2000/svg" xmlns:xlink="http://www.w3.org/1999/xlink" x="0px" y="0px"
	 viewBox="0 0 750 500" style="enable-background:new 0 0 750 500;" xml:space="preserve">
<g id="BACKGROUND">
	<rect style="fill:#EBF2FF;" width="750" height="500"/>
</g>
<g id="OBJECTS">
	<path style="fill:#FFFFFF;" d="M690.033,324.79c-17.48-44.066-76.474-59.452-95.763-102.757
		c-18.124-40.689,5.331-91.868-15.618-131.177c-15.303-28.714-50.864-41.769-83.342-39.81
		c-33.282,2.007-58.524,20.167-89.577,28.083c-12.637,3.221-25.445-2.779-37.46-6.37c-16.277-4.865-32.555-9.729-48.832-14.594
		c-27.207-8.131-57.748-16.003-82.9-2.821c-18.991,9.954-30.461,29.903-38.848,49.636c-8.387,19.733-14.983,40.73-28.443,57.421
		c-27.591,34.214-77.82,43.084-106.302,76.56c-22.503,26.449-27.308,65.313-16.552,98.331
		c10.757,33.019,35.468,60.299,64.722,79.012c29.254,18.712,62.9,29.511,96.825,36.932c105.238,23.021,214.527,15.07,321.803,5.236
		c40.505-3.713,82.655-8.227,117.076-29.898C681.242,406.902,705.031,362.599,690.033,324.79z"/>
	<g>
		<g>
			<path style="fill:#93D8C3;" d="M616.793,304.341c-2.612,0.537-5.123,4.951-4.175,9.564s3.868,10.115,8.843,13.141
				c3.378-4.744,3.89-10.951,2.941-15.564C623.454,306.87,619.404,303.804,616.793,304.341z"/>
			<path style="fill:#93D8C3;" d="M607.604,331.564c-2.175,1.541-2.701,6.593,0.022,10.436c2.723,3.843,7.608,7.707,13.38,8.478
				c1.186-5.701-0.84-11.591-3.563-15.434C614.719,331.202,609.779,330.023,607.604,331.564z"/>
			<path style="fill:#93D8C3;" d="M603.638,352.473c-2.175,1.541-2.701,6.593,0.022,10.436c2.723,3.843,7.608,7.707,13.38,8.478
				c1.186-5.701-0.84-11.591-3.563-15.434C610.753,352.11,605.813,350.931,603.638,352.473z"/>
			<path style="fill:#93D8C3;" d="M597.353,370.165c-2.175,1.541-2.701,6.593,0.022,10.436c2.723,3.843,7.608,7.707,13.38,8.478
				c1.186-5.701-0.841-11.591-3.563-15.434C604.468,369.802,599.528,368.624,597.353,370.165z"/>
			<path style="fill:#93D8C3;" d="M590.086,386.677c-2.414,1.132-3.825,6.011-1.826,10.275c2,4.264,6.123,8.932,11.668,10.713
				c2.176-5.401,1.224-11.557-0.775-15.821C597.153,387.579,592.5,385.544,590.086,386.677z"/>
			<path style="fill:#93D8C3;" d="M638.459,331.463c1.877,1.893,1.525,6.96-1.819,10.276c-3.344,3.316-8.821,6.282-14.64,6.047
				c-0.186-5.82,2.824-11.273,6.168-14.59C631.512,329.881,636.581,329.57,638.459,331.463z"/>
			<path style="fill:#93D8C3;" d="M637.29,353.997c1.576,2.15,0.478,7.109-3.32,9.893c-3.798,2.785-9.654,4.906-15.374,3.812
				c0.678-5.784,4.463-10.73,8.261-13.515C630.655,351.403,635.714,351.847,637.29,353.997z"/>
			<path style="fill:#93D8C3;" d="M635.105,373.299c0.997,2.473-1.291,7.007-5.658,8.768c-4.368,1.762-10.566,2.373-15.839-0.098
				c2.084-5.438,6.972-9.298,11.339-11.06C629.314,369.148,634.108,370.826,635.105,373.299z"/>
			<path style="fill:#93D8C3;" d="M624.855,396.412c0.811,2.54-1.807,6.892-6.293,8.325c-4.486,1.433-10.713,1.583-15.789-1.272
				c2.481-5.268,7.642-8.756,12.128-10.189C619.388,391.844,624.044,393.873,624.855,396.412z"/>
			
				<path style="fill:none;stroke:#5FC5A9;stroke-width:1.0724;stroke-linecap:round;stroke-linejoin:round;stroke-miterlimit:10;" d="
				M619.905,316.657c4.048,21.251,2.091,43.612-5.586,63.837c-7.677,20.225-21.051,38.252-38.18,51.465"/>
			
				<path style="fill:none;stroke:#5FC5A9;stroke-width:1.0724;stroke-linecap:round;stroke-linejoin:round;stroke-miterlimit:10;" d="
				M621.177,348.963c-4.621-2.853-8.342-7.141-10.516-12.117"/>
			
				<path style="fill:none;stroke:#5FC5A9;stroke-width:1.0724;stroke-linecap:round;stroke-linejoin:round;stroke-miterlimit:10;" d="
				M621.821,346.622c4.948-3.55,9.586-7.531,13.845-11.883"/>
			
				<path style="fill:none;stroke:#5FC5A9;stroke-width:1.0724;stroke-linecap:round;stroke-linejoin:round;stroke-miterlimit:10;" d="
				M618.794,366.948c5.518-2.555,10.654-5.932,15.186-9.985"/>
			
				<path style="fill:none;stroke:#5FC5A9;stroke-width:1.0724;stroke-linecap:round;stroke-linejoin:round;stroke-miterlimit:10;" d="
				M617.455,370.706c-4.838-4.04-8.549-9.414-10.615-15.369"/>
			
				<path style="fill:none;stroke:#5FC5A9;stroke-width:1.0724;stroke-linecap:round;stroke-linejoin:round;stroke-miterlimit:10;" d="
				M614.058,381.144c6.204-0.561,12.258-2.712,17.425-6.19"/>
			
				<path style="fill:none;stroke:#5FC5A9;stroke-width:1.0724;stroke-linecap:round;stroke-linejoin:round;stroke-miterlimit:10;" d="
				M610.589,388.692c-3.967-4.326-6.896-9.234-9.188-14.637"/>
			
				<path style="fill:none;stroke:#5FC5A9;stroke-width:1.0724;stroke-linecap:round;stroke-linejoin:round;stroke-miterlimit:10;" d="
				M603.118,402.533c6.028-0.38,11.968-2.094,17.271-4.984"/>
			
				<path style="fill:none;stroke:#5FC5A9;stroke-width:1.0724;stroke-linecap:round;stroke-linejoin:round;stroke-miterlimit:10;" d="
				M599.724,407.163c-2.164-5.269-4.328-10.537-6.492-15.806"/>
		</g>
		<g>
			<path style="fill:#7B85E8;" d="M126.639,236.461c2.612,0.537,5.123,4.951,4.175,9.564s-3.868,10.115-8.843,13.141
				c-3.378-4.744-3.89-10.951-2.941-15.564C119.978,238.989,124.028,235.924,126.639,236.461z"/>
			<path style="fill:#7B85E8;" d="M135.828,263.684c2.175,1.541,2.701,6.593-0.022,10.436s-7.608,7.707-13.38,8.479
				c-1.186-5.701,0.84-11.591,3.563-15.434C128.713,263.321,133.653,262.142,135.828,263.684z"/>
			<path style="fill:#7B85E8;" d="M139.794,284.592c2.175,1.541,2.701,6.593-0.022,10.436c-2.723,3.843-7.608,7.707-13.38,8.478
				c-1.186-5.701,0.84-11.591,3.563-15.434C132.679,284.229,137.619,283.051,139.794,284.592z"/>
			<path style="fill:#7B85E8;" d="M146.079,302.284c2.175,1.541,2.701,6.593-0.022,10.436c-2.723,3.843-7.608,7.707-13.38,8.478
				c-1.186-5.701,0.84-11.591,3.563-15.434C138.964,301.922,143.904,300.743,146.079,302.284z"/>
			<path style="fill:#7B85E8;" d="M153.346,318.796c2.414,1.132,3.825,6.011,1.826,10.275c-2,4.264-6.124,8.932-11.668,10.713
				c-2.176-5.401-1.224-11.557,0.775-15.821C146.279,319.698,150.933,317.664,153.346,318.796z"/>
			<path style="fill:#7B85E8;" d="M104.973,263.583c-1.878,1.893-1.525,6.96,1.819,10.276c3.344,3.316,8.821,6.282,14.64,6.047
				c0.186-5.82-2.824-11.273-6.168-14.59C111.92,262,106.851,261.69,104.973,263.583z"/>
			<path style="fill:#7B85E8;" d="M106.142,286.116c-1.576,2.15-0.478,7.109,3.321,9.893c3.798,2.785,9.654,4.906,15.374,3.812
				c-0.678-5.784-4.463-10.73-8.261-13.515C112.777,283.522,107.718,283.966,106.142,286.116z"/>
			<path style="fill:#7B85E8;" d="M108.327,305.418c-0.997,2.473,1.291,7.007,5.658,8.768c4.368,1.762,10.566,2.373,15.84-0.098
				c-2.083-5.438-6.972-9.298-11.339-11.06C114.118,301.267,109.324,302.945,108.327,305.418z"/>
			<path style="fill:#7B85E8;" d="M118.577,328.532c-0.811,2.54,1.807,6.892,6.293,8.325c4.486,1.433,10.713,1.583,15.789-1.272
				c-2.481-5.268-7.642-8.756-12.128-10.189C124.044,323.963,119.388,325.992,118.577,328.532z"/>
			<path style="fill:none;stroke:#4D52A8;stroke-linecap:round;stroke-linejoin:round;stroke-miterlimit:10;" d="M123.527,248.777
				c-4.048,21.251-2.091,43.612,5.586,63.837c7.677,20.225,21.051,38.253,38.18,51.465"/>
			<path style="fill:none;stroke:#4D52A8;stroke-linecap:round;stroke-linejoin:round;stroke-miterlimit:10;" d="M122.255,281.082
				c4.621-2.853,8.342-7.141,10.516-12.117"/>
			<path style="fill:none;stroke:#4D52A8;stroke-linecap:round;stroke-linejoin:round;stroke-miterlimit:10;" d="M121.611,278.741
				c-4.948-3.55-9.586-7.531-13.845-11.883"/>
			<path style="fill:none;stroke:#4D52A8;stroke-linecap:round;stroke-linejoin:round;stroke-miterlimit:10;" d="M124.638,299.067
				c-5.518-2.555-10.654-5.932-15.186-9.985"/>
			<path style="fill:none;stroke:#4D52A8;stroke-linecap:round;stroke-linejoin:round;stroke-miterlimit:10;" d="M125.977,302.825
				c4.838-4.04,8.549-9.414,10.615-15.369"/>
			<path style="fill:none;stroke:#4D52A8;stroke-linecap:round;stroke-linejoin:round;stroke-miterlimit:10;" d="M129.374,313.263
				c-6.204-0.561-12.258-2.711-17.425-6.19"/>
			<path style="fill:none;stroke:#4D52A8;stroke-linecap:round;stroke-linejoin:round;stroke-miterlimit:10;" d="M132.843,320.811
				c3.967-4.326,6.896-9.234,9.189-14.637"/>
			<path style="fill:none;stroke:#4D52A8;stroke-linecap:round;stroke-linejoin:round;stroke-miterlimit:10;" d="M140.314,334.652
				c-6.028-0.38-11.968-2.094-17.271-4.984"/>
			<path style="fill:none;stroke:#4D52A8;stroke-linecap:round;stroke-linejoin:round;stroke-miterlimit:10;" d="M143.708,339.282
				c2.164-5.269,4.328-10.538,6.492-15.806"/>
		</g>
		<g>
			<path style="fill:#93D8C3;" d="M103.297,385.387c-5.588-2.451-11.294-5.42-14.692-10.489c-1.361-2.03-2.233-4.912-0.674-6.794
				c1.63-1.967,4.716-1.52,7.177-0.832c7.895,2.205,15.612,5.047,23.052,8.488c-13.471-5.311-25.219-14.898-33.126-27.029
				c-1.709-2.623-3.171-6.316-1.063-8.631c2.084-2.288,5.842-1.235,8.626,0.117c7.866,3.821,15.199,8.735,21.724,14.556
				c-9.272-7.93-16.313-18.443-20.116-30.036c-0.85-2.59-1.412-5.792,0.491-7.744c1.642-1.684,4.511-1.562,6.529-0.354
				c2.018,1.208,3.378,3.241,4.646,5.222c5.741,8.971,10.984,18.261,15.698,27.812c-2.052-7.815-3.457-15.8-4.195-23.846
				c-0.254-2.772-0.248-6.005,1.895-7.781c2.042-1.692,5.275-1.173,7.309,0.528c2.034,1.701,3.104,4.279,3.88,6.814
				c3.27,10.68,2.592,22.114,1.883,33.26c0.406-6.936,2.016-13.799,4.736-20.192c0.852-2.003,1.996-4.134,4.035-4.897
				c1.71-0.639,3.703-0.109,5.145,1.011c1.442,1.12,2.403,2.752,3.106,4.438c2.956,7.086,1.784,15.177-0.055,22.632
				c-2.248,9.113-5.424,17.995-9.458,26.47c-1.727,3.627-2.804,7.689-7.489,6.972c-4.623-0.708-9.333-2.411-13.767-3.859
				C113.405,389.528,108.297,387.58,103.297,385.387z"/>
			<path style="fill:#C1EADC;" d="M145.029,333.829c-0.355-0.164-0.725-0.291-1.103-0.382c0.359,17.037-4.131,34.519-12.727,49.12
				c-2.431-6.192-5.035-12.308-7.806-18.347c-0.007-0.138-0.065-0.263-0.161-0.358c-0.008-0.017-0.015-0.034-0.023-0.052
				c2.768-15.839,2.937-31.816,0.519-46.629c-0.378-0.087-0.759-0.132-1.14-0.149c2.374,14.298,2.308,29.706-0.202,45.03
				c-7.457-15.967-16.094-31.374-25.872-46.116c-0.361,0.104-0.708,0.243-1.028,0.436c9.964,15.002,18.744,30.695,26.294,46.969
				c-14.324-4.213-27.625-12.21-38.113-22.865c-0.23,0.326-0.404,0.672-0.523,1.036c10.804,10.886,24.516,19.006,39.253,23.161
				c3.262,7.109,6.279,14.332,9.067,21.652c-15.86-2.787-31.075-8.989-43.824-17.773c-0.195,0.329-0.348,0.674-0.43,1.04
				c13.013,8.923,28.546,15.19,44.711,17.935c0.935,2.481,1.833,4.976,2.715,7.479c0.372-0.094,0.706-0.24,1.019-0.414
				c-0.904-2.564-1.825-5.12-2.785-7.661c-0.006-0.029-0.02-0.053-0.031-0.08c-0.375-0.994-0.749-1.988-1.133-2.978
				C140.628,369.075,145.318,351.235,145.029,333.829z"/>
		</g>
		<g>
			<path style="fill:#A9B3FF;" d="M579.99,441.532c-1.253-5.972-2.151-12.341-0.001-18.051c0.861-2.288,2.7-4.672,5.138-4.496
				c2.548,0.184,3.977,2.955,4.848,5.357c2.793,7.707,4.965,15.639,6.488,23.693c-3.505-14.05-2.53-29.181,2.748-42.665
				c1.141-2.915,3.298-6.251,6.406-5.88c3.073,0.367,4.4,4.037,4.917,7.088c1.461,8.621,1.724,17.445,0.777,26.138
				c1.066-12.155,5.53-23.993,12.756-33.825c1.614-2.197,3.893-4.515,6.587-4.1c2.325,0.358,3.892,2.764,4.082,5.108
				c0.19,2.344-0.674,4.633-1.55,6.816c-3.965,9.885-8.479,19.55-13.512,28.937c5.168-6.211,10.85-11.994,16.969-17.271
				c2.108-1.818,4.743-3.691,7.434-2.979c2.563,0.678,4.02,3.611,3.817,6.255c-0.203,2.644-1.678,5.012-3.291,7.118
				c-6.791,8.867-16.491,14.96-25.974,20.86c5.88-3.699,12.402-6.377,19.185-7.878c2.126-0.47,4.525-0.778,6.33,0.438
				c1.514,1.021,2.24,2.95,2.167,4.775c-0.074,1.824-0.844,3.555-1.807,5.106c-4.049,6.523-11.315,10.271-18.451,13.106
				c-8.722,3.466-17.797,6.043-27.038,7.684c-3.955,0.703-7.887,2.186-10.025-2.043c-2.11-4.173-3.461-8.996-4.859-13.447
				C582.494,452.165,581.111,446.876,579.99,441.532z"/>
			<path style="fill:#CDD7FF;" d="M646.201,445.536c-0.073-0.384-0.185-0.759-0.329-1.12
				c-13.657,10.192-30.493,16.696-47.371,18.186c3.626-5.576,7.091-11.25,10.395-17.014c0.108-0.085,0.176-0.205,0.198-0.339
				c0.009-0.016,0.019-0.032,0.029-0.049c14.499-6.952,27.6-16.098,38.249-26.673c-0.149-0.358-0.333-0.694-0.541-1.014
				c-10.257,10.24-22.835,19.14-36.765,26.002c8.661-15.347,16.182-31.329,22.497-47.853c-0.295-0.233-0.609-0.434-0.953-0.583
				c-6.419,16.827-14.089,33.091-22.946,48.692c-4.895-14.106-6.115-29.578-3.539-44.305c-0.399,0.002-0.782,0.061-1.147,0.177
				c-2.581,15.119-1.222,30.997,3.96,45.404c-3.89,6.786-8.016,13.438-12.353,19.961c-6.948-14.527-10.741-30.513-11.001-45.993
				c-0.381,0.033-0.75,0.109-1.096,0.255c0.3,15.776,4.225,32.059,11.385,46.81c-1.476,2.202-2.985,4.384-4.509,6.556
				c0.293,0.248,0.605,0.435,0.929,0.588c1.561-2.225,3.106-4.461,4.616-6.718c0.02-0.022,0.032-0.047,0.048-0.071
				c0.591-0.883,1.183-1.765,1.766-2.652C614.958,462.435,632.203,455.886,646.201,445.536z"/>
		</g>
		<g>
			<path style="fill:#252A5E;" d="M366.319,293.579c-1.253-5.972-2.151-12.341-0.001-18.051c0.861-2.288,2.7-4.672,5.138-4.496
				c2.548,0.184,3.977,2.955,4.848,5.357c2.793,7.707,4.965,15.638,6.488,23.693c-3.505-14.05-2.53-29.181,2.748-42.665
				c1.141-2.915,3.298-6.251,6.406-5.88c3.073,0.367,4.4,4.037,4.917,7.088c1.461,8.621,1.724,17.445,0.777,26.138
				c1.066-12.155,5.53-23.993,12.756-33.825c1.614-2.197,3.893-4.515,6.587-4.1c2.325,0.358,3.892,2.764,4.081,5.108
				c0.19,2.344-0.674,4.633-1.55,6.816c-3.965,9.885-8.479,19.55-13.512,28.937c5.168-6.211,10.85-11.994,16.969-17.271
				c2.108-1.818,4.743-3.691,7.434-2.979c2.563,0.678,4.02,3.611,3.817,6.255c-0.203,2.644-1.678,5.013-3.291,7.118
				c-6.791,8.867-16.491,14.96-25.974,20.86c5.88-3.699,12.402-6.377,19.185-7.878c2.126-0.47,4.525-0.778,6.33,0.438
				c1.514,1.021,2.24,2.95,2.167,4.775c-0.074,1.824-0.844,3.555-1.807,5.106c-4.049,6.523-11.316,10.271-18.451,13.106
				c-8.722,3.466-17.797,6.043-27.038,7.684c-3.955,0.703-7.887,2.186-10.026-2.043c-2.11-4.173-3.461-8.996-4.859-13.447
				C368.822,304.212,367.439,298.923,366.319,293.579z"/>
			<path style="fill:#93A0C9;" d="M432.529,297.583c-0.073-0.384-0.185-0.759-0.329-1.12
				c-13.657,10.192-30.493,16.696-47.371,18.186c3.626-5.576,7.091-11.25,10.395-17.014c0.108-0.085,0.176-0.205,0.198-0.339
				c0.009-0.016,0.019-0.032,0.029-0.049c14.499-6.952,27.6-16.098,38.249-26.673c-0.149-0.358-0.333-0.694-0.541-1.014
				c-10.257,10.24-22.835,19.14-36.764,26.002c8.661-15.347,16.182-31.329,22.497-47.852c-0.295-0.233-0.609-0.434-0.953-0.583
				c-6.419,16.827-14.089,33.091-22.947,48.692c-4.895-14.106-6.115-29.578-3.539-44.305c-0.399,0.002-0.782,0.061-1.147,0.177
				c-2.581,15.119-1.222,30.997,3.96,45.404c-3.89,6.786-8.016,13.438-12.353,19.961c-6.947-14.527-10.741-30.513-11.001-45.993
				c-0.381,0.033-0.75,0.109-1.096,0.255c0.3,15.776,4.225,32.059,11.385,46.81c-1.476,2.202-2.985,4.384-4.509,6.556
				c0.293,0.248,0.605,0.435,0.929,0.588c1.561-2.225,3.106-4.461,4.616-6.718c0.02-0.022,0.032-0.047,0.047-0.071
				c0.591-0.883,1.183-1.765,1.766-2.653C401.286,314.482,418.531,307.933,432.529,297.583z"/>
		</g>
	</g>
	<g>
		<g>
			<path style="fill:#F78721;" d="M214.372,404.012h-19.814l3.467-309.327c0.04-3.529,2.911-6.368,6.44-6.368l0,0
				c3.529,0,6.401,2.84,6.44,6.368L214.372,404.012z"/>
			<path style="fill:#FFB552;" d="M152.048,116.734l1.322,22.034c0.207,3.455,3.505,6.068,7.364,5.837l78.022-4.682
				c1.978-0.119,3.818-0.982,5.064-2.376l11.512-12.875c2.57-2.875,1.887-7.07-1.483-9.099l-14.995-9.029
				c-1.271-0.765-2.794-1.13-4.332-1.038l-75.861,4.553C154.802,110.29,151.841,113.279,152.048,116.734z"/>
			<path style="fill:#FFB552;" d="M255.472,185.075l1.583-22.017c0.248-3.452-2.681-6.476-6.544-6.754l-78.072-5.613
				c-1.979-0.142-3.919,0.472-5.34,1.69l-13.12,11.25c-2.929,2.512-2.802,6.761,0.276,9.215l13.7,10.922
				c1.161,0.926,2.625,1.487,4.165,1.598l75.91,5.458C251.891,191.101,255.224,188.528,255.472,185.075z"/>
			<path style="fill:#FFB552;" d="M153.352,199.728l-2.468,21.935c-0.387,3.44,2.442,6.582,6.318,7.018l78.361,8.816
				c1.986,0.223,3.964-0.31,5.442-1.469l13.654-10.703c3.048-2.39,3.089-6.64,0.088-9.219l-13.356-11.476
				c-1.132-0.973-2.583-1.594-4.128-1.768l-76.191-8.572C157.196,193.854,153.739,196.288,153.352,199.728z"/>
			<path style="opacity:0.3;fill:#FFFFFF;" d="M205.433,110.869c-14.316,1.624-28.674,2.773-43.066,3.447
				c-4.1,0.192-4.123,6.591,0,6.398c14.392-0.674,28.75-1.823,43.066-3.447C209.478,116.808,209.524,110.405,205.433,110.869z"/>
			<path style="opacity:0.3;fill:#FFFFFF;" d="M216.75,112.558c-0.152-0.542-0.426-1.012-0.823-1.412
				c-0.216-0.167-0.432-0.333-0.647-0.5c-0.499-0.289-1.037-0.435-1.615-0.437h-0.354c-0.441-0.016-0.851,0.075-1.233,0.276
				c-0.397,0.129-0.74,0.35-1.03,0.661c-0.312,0.29-0.532,0.633-0.661,1.03c-0.2,0.381-0.292,0.792-0.275,1.232
				c0.038,0.284,0.076,0.567,0.114,0.85c0.152,0.542,0.426,1.013,0.823,1.412c0.216,0.167,0.432,0.334,0.647,0.5
				c0.499,0.289,1.037,0.435,1.615,0.437h0.354c0.44,0.017,0.851-0.075,1.232-0.275c0.397-0.129,0.74-0.35,1.03-0.661
				c0.312-0.29,0.533-0.633,0.661-1.03c0.2-0.381,0.292-0.792,0.275-1.232C216.826,113.125,216.788,112.842,216.75,112.558z"/>
			<path style="opacity:0.3;fill:#FFFFFF;" d="M247.99,158.869c-13.285-0.347-26.542-1.163-39.769-2.446
				c-4.096-0.397-4.068,6.004,0,6.398c13.227,1.283,26.485,2.099,39.769,2.446C252.109,165.375,252.106,158.977,247.99,158.869z"/>
			<path style="opacity:0.3;fill:#FFFFFF;" d="M194.926,201.509c-10.465-1.102-20.931-2.204-31.396-3.307
				c-4.09-0.431-4.06,5.971,0,6.398c10.465,1.102,20.931,2.204,31.396,3.307C199.017,208.338,198.986,201.936,194.926,201.509z"/>
			<path style="opacity:0.3;fill:#FFFFFF;" d="M205.881,203.529c-4.117,0-4.124,6.398,0,6.398
				C209.998,209.928,210.005,203.529,205.881,203.529z"/>
		</g>
		<g>
			<g>
				<path style="fill:#5FC5A9;" d="M435.719,176.717c-0.52,0.532-0.31,1.432,0.389,1.685c7.9,2.858,17.156,2.2,24.399-2.039
					c2.574-1.507,5.234-2.867,7.963-4.068c-1.308,2.357-2.617,4.714-3.926,7.072c-2.016,3.631,0.027,8.181,4.08,9.086l0.119,0.027
					c2.08,0.465,4.252-0.174,5.75-1.69c6.142-6.217,12.284-12.435,18.426-18.652c-3.699,6.169-7.398,12.338-11.096,18.507
					c-1.142,1.905,0.027,4.347,2.224,4.674c0.979,0.145,1.968,0.285,2.967,0.419c1.017,0.136,2.038-0.245,2.722-1.009
					c4.609-5.141,9.219-10.281,13.828-15.422c-1.832,4.83-3.664,9.66-5.495,14.49c-0.575,1.516,0.476,3.16,2.093,3.268
					c0.703,0.047,1.409,0.091,2.119,0.13c0.729,0.041,1.44-0.254,1.93-0.796c5.6-6.206,11.2-12.413,16.799-18.619
					c-1.534,5.367-3.068,10.734-4.602,16.101c-0.512,1.79,0.872,3.561,2.733,3.493c0.836-0.031,1.675-0.068,2.516-0.112
					c0.93-0.048,1.766-0.577,2.23-1.385c1.991-3.464,4.168-6.821,6.523-10.049c0.038,2.41-0.052,4.822-0.267,7.222
					c-0.167,1.857,1.393,3.408,3.243,3.177c5.537-0.691,11.136-1.689,16.752-3.057C550.139,189.169,493.991,117.043,435.719,176.717
					z"/>
			</g>
			<g>
				<path style="fill:#5FC5A9;" d="M636.314,124.414c0.707,0.231,0.939,1.125,0.436,1.674c-5.674,6.194-14.181,9.904-22.563,9.506
					c-2.979-0.142-5.966-0.114-8.942,0.087c2.252,1.482,4.505,2.964,6.757,4.445c3.47,2.283,3.769,7.261,0.598,9.942l-0.093,0.079
					c-1.627,1.376-3.848,1.817-5.878,1.169c-8.325-2.661-16.649-5.322-24.974-7.983c6.138,3.751,12.275,7.502,18.412,11.253
					c1.895,1.158,1.992,3.864,0.196,5.172c-0.8,0.583-1.612,1.165-2.435,1.747c-0.838,0.592-1.919,0.728-2.88,0.369
					c-6.467-2.418-12.935-4.835-19.402-7.253c3.862,3.43,7.725,6.86,11.587,10.29c1.212,1.077,1.044,3.02-0.34,3.866
					c-0.601,0.368-1.207,0.734-1.817,1.098c-0.627,0.374-1.394,0.443-2.079,0.189c-7.839-2.903-15.678-5.805-23.517-8.708
					c3.848,4.044,7.695,8.088,11.543,12.132c1.283,1.349,0.878,3.56-0.802,4.362c-0.755,0.36-1.516,0.716-2.281,1.068
					c-0.847,0.389-1.833,0.307-2.618-0.193c-3.37-2.146-6.856-4.111-10.439-5.88c1.083,2.153,2.282,4.248,3.585,6.275
					c1.008,1.568,0.346,3.665-1.401,4.318c-5.226,1.955-10.65,3.667-16.26,5.058C540.708,188.497,557.016,98.558,636.314,124.414z"
					/>
			</g>
			<path style="fill:#252A5E;" d="M550.059,184.612c48.12,77.471,59.401,176.587,32.447,263.6c0,0-25.684-8.422-25.684-8.422
				c9.538-27.526,15.406-56.775,17.541-85.948c4.115-56.865-6.163-114.317-29.19-166.641L550.059,184.612L550.059,184.612z"/>
			<g>
				<path style="fill:#93D8C3;" d="M448,241.872c-0.138,0.731,0.535,1.364,1.258,1.187c8.159-2,15.5-7.677,19.178-15.219
					c1.307-2.681,2.767-5.287,4.374-7.8c0.217,2.687,0.434,5.374,0.651,8.062c0.335,4.14,4.556,6.794,8.432,5.301l0.114-0.044
					c1.989-0.766,3.443-2.502,3.849-4.594c1.667-8.579,3.333-17.158,5-25.737c0.34,7.185,0.681,14.37,1.021,21.555
					c0.105,2.219,2.432,3.604,4.441,2.657c0.896-0.422,1.797-0.854,2.702-1.296c0.922-0.45,1.56-1.333,1.707-2.348
					c0.987-6.833,1.975-13.667,2.962-20.5c1.152,5.036,2.304,10.071,3.456,15.107c0.362,1.581,2.147,2.366,3.554,1.56
					c0.611-0.35,1.223-0.706,1.836-1.066c0.63-0.37,1.058-1.01,1.165-1.732c1.221-8.27,2.443-16.539,3.664-24.809
					c1.698,5.318,3.395,10.635,5.093,15.953c0.566,1.774,2.7,2.481,4.211,1.393c0.679-0.489,1.357-0.985,2.032-1.487
					c0.748-0.556,1.15-1.46,1.089-2.389c-0.263-3.987-0.311-7.988-0.14-11.98c1.367,1.985,2.629,4.042,3.78,6.159
					c0.891,1.638,3.048,2.064,4.46,0.847c4.226-3.644,8.334-7.578,12.25-11.83C550.14,188.822,463.429,159.905,448,241.872z"/>
			</g>
			<g>
				<path style="fill:#93D8C3;" d="M498.338,98.547c-0.654-0.123-1.221,0.479-1.062,1.125c1.789,7.301,6.869,13.869,13.618,17.161
					c2.399,1.17,4.73,2.476,6.98,3.913c-2.405,0.194-4.809,0.389-7.214,0.583c-3.704,0.299-6.08,4.077-4.744,7.545l0.039,0.102
					c0.685,1.779,2.238,3.081,4.11,3.444c7.677,1.491,15.353,2.983,23.03,4.474c-6.429,0.305-12.858,0.609-19.287,0.914
					c-1.985,0.094-3.225,2.176-2.378,3.974c0.377,0.801,0.764,1.607,1.159,2.417c0.403,0.825,1.193,1.396,2.101,1.527
					c6.115,0.884,12.229,1.767,18.343,2.651c-4.506,1.031-9.011,2.062-13.517,3.093c-1.414,0.324-2.117,1.921-1.396,3.18
					c0.314,0.547,0.632,1.095,0.954,1.643c0.331,0.563,0.903,0.947,1.55,1.042c7.4,1.093,14.799,2.186,22.199,3.279
					c-4.758,1.519-9.516,3.038-14.274,4.557c-1.587,0.507-2.22,2.416-1.246,3.768c0.438,0.607,0.881,1.214,1.331,1.819
					c0.497,0.669,1.306,1.029,2.138,0.974c3.567-0.235,7.147-0.279,10.719-0.126c-1.776,1.224-3.617,2.352-5.511,3.383
					c-1.466,0.797-1.847,2.727-0.758,3.991c3.261,3.781,6.781,7.457,10.585,10.961C545.807,189.941,571.681,112.353,498.338,98.547z
					"/>
			</g>
			<g>
				<path style="fill:#93D8C3;" d="M651.511,222.936c0.231,0.707-0.354,1.422-1.094,1.34c-8.349-0.927-16.363-5.606-20.987-12.609
					c-1.643-2.489-3.428-4.884-5.346-7.168c0.132,2.693,0.265,5.385,0.397,8.078c0.204,4.148-3.638,7.327-7.675,6.348l-0.118-0.029
					c-2.071-0.502-3.738-2.035-4.412-4.057c-2.763-8.291-5.526-16.582-8.289-24.874c0.592,7.169,1.185,14.337,1.777,21.505
					c0.183,2.214-1.945,3.888-4.06,3.21c-0.943-0.302-1.892-0.614-2.847-0.935c-0.972-0.327-1.72-1.12-1.997-2.108
					c-1.864-6.648-3.727-13.296-5.591-19.944c-0.491,5.142-0.981,10.285-1.472,15.427c-0.154,1.614-1.823,2.624-3.322,2.007
					c-0.652-0.268-1.305-0.542-1.958-0.819c-0.672-0.286-1.18-0.864-1.379-1.567c-2.281-8.042-4.563-16.084-6.844-24.126
					c-0.995,5.493-1.99,10.985-2.986,16.478c-0.332,1.832-2.356,2.81-3.995,1.926c-0.737-0.397-1.472-0.801-2.208-1.212
					c-0.813-0.454-1.33-1.298-1.389-2.228c-0.256-3.987-0.725-7.961-1.411-11.897c-1.099,2.145-2.084,4.348-2.951,6.597
					c-0.671,1.739-2.755,2.442-4.313,1.417c-4.661-3.066-9.244-6.436-13.678-10.145
					C543.364,183.553,625.602,143.656,651.511,222.936z"/>
			</g>
			<g>
				<path style="fill:#383D84;" d="M569.289,392.708c8.048,2.111,16.192,3.804,24.413,5.069c0.181-1.304,0.356-2.608,0.521-3.914
					c-8.159-1.261-16.239-2.964-24.224-5.075C569.768,390.096,569.535,391.403,569.289,392.708z"/>
				<path style="fill:#383D84;" d="M591.646,410.686c-8.335-1.765-16.67-3.53-25.006-5.295c-0.294,1.29-0.592,2.579-0.902,3.865
					c8.393,1.777,16.785,3.555,25.178,5.332C591.167,413.288,591.411,411.988,591.646,410.686z"/>
				<path style="fill:#383D84;" d="M575.109,319.764c6.726,0.32,13.452,0.639,20.178,0.959c-0.128-1.332-0.263-2.664-0.408-3.995
					c-6.633-0.315-13.265-0.631-19.898-0.946C575.033,317.11,575.073,318.437,575.109,319.764z"/>
				<path style="fill:#383D84;" d="M596.32,334.376c-0.073-1.326-0.155-2.651-0.243-3.976l-20.839-0.069
					c-0.004,1.325-0.015,2.65-0.035,3.975L596.32,334.376z"/>
				<path style="fill:#383D84;" d="M567.643,217.35c-0.565-1.229-1.138-2.454-1.72-3.675c-3.187,0.761-6.374,1.521-9.561,2.281
					c0.429,1.259,0.847,2.521,1.262,3.784C560.964,218.944,564.304,218.147,567.643,217.35z"/>
				<path style="fill:#383D84;" d="M565.25,246.46c4.467-0.673,8.946-1.251,13.437-1.73c-0.447-1.279-0.901-2.554-1.364-3.827
					c-4.353,0.48-8.696,1.047-13.027,1.703C564.623,243.889,564.937,245.174,565.25,246.46z"/>
				<path style="fill:#383D84;" d="M552.285,204.618c0.479,1.265,0.953,2.532,1.417,3.803c2.435-1.534,4.87-3.068,7.305-4.602
					c-0.615-1.177-1.238-2.35-1.868-3.519C556.854,201.739,554.569,203.179,552.285,204.618z"/>
				<path style="fill:#383D84;" d="M573.006,289.923c5.876-0.323,11.748-0.711,17.616-1.149c-0.257-1.307-0.522-2.613-0.795-3.917
					c-5.764,0.425-11.531,0.802-17.302,1.116C572.69,287.289,572.856,288.605,573.006,289.923z"/>
				<path style="fill:#383D84;" d="M587.452,430.367c-8.531-2.154-17.075-4.257-25.631-6.31c-0.37,1.275-0.755,2.543-1.14,3.812
					c8.611,2.066,17.21,4.183,25.796,6.351C586.81,432.938,587.135,431.654,587.452,430.367z"/>
				<path style="fill:#383D84;" d="M561.162,231.162c3.954-0.491,7.91-0.961,11.871-1.39c-0.517-1.267-1.041-2.53-1.574-3.79
					c-3.813,0.422-7.622,0.876-11.428,1.352C560.418,228.608,560.79,229.885,561.162,231.162z"/>
				<path style="fill:#383D84;" d="M568.352,260.423c5.081-0.098,10.16-0.241,15.237-0.429c-0.385-1.312-0.779-2.622-1.181-3.929
					c-4.957,0.177-9.916,0.31-14.875,0.4C567.814,257.783,568.086,259.103,568.352,260.423z"/>
				<path style="fill:#383D84;" d="M574.037,357.851c-0.112,1.314-0.233,2.628-0.36,3.942c7.621,1.206,15.253,2.34,22.894,3.408
					c0.05-1.321,0.092-2.643,0.127-3.964C589.134,360.177,581.581,359.049,574.037,357.851z"/>
				<path style="fill:#383D84;" d="M596.725,344.953c-7.268-0.282-14.537-0.564-21.805-0.846c-0.058,1.323-0.12,2.645-0.193,3.968
					c7.355,0.285,14.71,0.571,22.065,0.856C596.778,347.605,596.755,346.279,596.725,344.953z"/>
				<path style="fill:#383D84;" d="M571.624,378.718c7.949,1.152,15.912,2.208,23.885,3.185c0.117-1.311,0.225-2.623,0.326-3.936
					c-7.897-0.966-15.784-2.013-23.657-3.155C572.003,376.115,571.815,377.416,571.624,378.718z"/>
				<path style="fill:#383D84;" d="M571.093,275.794c5.466-0.523,10.942-0.914,16.424-1.172c-0.319-1.313-0.645-2.624-0.981-3.932
					c-5.366,0.268-10.725,0.666-16.076,1.189C570.678,273.183,570.89,274.488,571.093,275.794z"/>
				<path style="fill:#383D84;" d="M573.94,299.285c0.115,1.318,0.219,2.637,0.318,3.957c6.24-0.333,12.479-0.666,18.719-0.998
					c-0.202-1.315-0.412-2.628-0.629-3.941C586.212,298.631,580.076,298.958,573.94,299.285z"/>
			</g>
			<path style="fill:#F78721;" d="M570.745,200.339c-0.02,5.867-4.792,10.608-10.659,10.588c-5.867-0.02-10.608-4.792-10.588-10.659
				c0.02-5.867,4.792-10.608,10.659-10.588C566.025,189.7,570.765,194.472,570.745,200.339z"/>
			<path style="fill:#FFB552;" d="M553.958,192.369c-0.02,5.867-4.792,10.608-10.659,10.588c-5.867-0.02-10.608-4.792-10.588-10.659
				c0.02-5.867,4.792-10.608,10.659-10.588C549.237,181.729,553.977,186.501,553.958,192.369z"/>
			<path style="opacity:0.3;fill:#FFFFFF;" d="M498.887,188.347c-9.254,1.086-17.988,4.854-25.131,10.842
				c-1.986,1.665-3.819,3.503-5.489,5.484c-0.576,0.684-0.677,1.668-0.008,2.342c0.588,0.592,1.763,0.695,2.342,0.008
				c7.085-8.407,17.325-14.08,28.275-15.364c0.888-0.104,1.658-0.679,1.662-1.651C500.541,189.197,499.782,188.242,498.887,188.347z
				"/>
			<path style="opacity:0.3;fill:#FFFFFF;" d="M514.279,163.264c-8.36-4.774-18.028-7.202-27.655-6.932
				c-2.752,0.077-5.497,0.385-8.203,0.884c-0.88,0.162-1.384,1.222-1.164,2.033c0.25,0.923,1.151,1.326,2.033,1.164
				c11.334-2.088,23.307-0.004,33.307,5.706C514.452,167.178,516.133,164.323,514.279,163.264z"/>
			<path style="opacity:0.3;fill:#FFFFFF;" d="M537.204,123.378c-1.429-1.588-3.774,0.753-2.35,2.334
				c6.785,7.536,9.421,17.851,10.104,27.747c0.062,0.893,0.71,1.659,1.651,1.662c0.846,0.003,1.723-0.753,1.662-1.651
				C547.524,142.654,544.611,131.606,537.204,123.378z"/>
			<path style="opacity:0.3;fill:#FFFFFF;" d="M585.916,128.882c-0.494-0.851-1.438-0.954-2.264-0.602
				c-9.565,4.079-17.716,11.252-23.068,20.159c-1.101,1.831,1.756,3.509,2.855,1.681c5.085-8.462,12.802-15.104,21.876-18.974
				C586.137,130.795,586.326,129.588,585.916,128.882z"/>
			<path style="opacity:0.3;fill:#FFFFFF;" d="M623.209,185.999c-8.823-5.957-19.161-9.461-29.773-10.21
				c-0.893-0.063-1.659,0.799-1.662,1.651c-0.003,0.946,0.755,1.599,1.651,1.662c10.039,0.708,19.768,4.125,28.102,9.752
				C623.299,190.049,624.969,187.187,623.209,185.999z"/>
			<path style="opacity:0.3;fill:#FFFFFF;" d="M631.318,192.844c-0.793-0.868-1.675-1.629-2.609-2.341
				c-0.19-0.122-0.395-0.188-0.615-0.199c-0.22-0.05-0.44-0.041-0.661,0.027c-0.216,0.051-0.404,0.149-0.564,0.295
				c-0.181,0.116-0.323,0.271-0.428,0.463c-0.204,0.384-0.308,0.849-0.171,1.276c0.055,0.132,0.11,0.264,0.166,0.396
				c0.106,0.18,0.247,0.325,0.406,0.452c0.762,0.595,1.473,1.252,2.126,1.966c0.149,0.162,0.327,0.277,0.532,0.344
				c0.197,0.104,0.409,0.153,0.638,0.145c0.228,0.009,0.441-0.038,0.638-0.141c0.206-0.066,0.384-0.18,0.534-0.341
				c0.291-0.315,0.507-0.728,0.489-1.169C631.78,193.567,631.624,193.179,631.318,192.844z"/>
			<path style="opacity:0.3;fill:#FFFFFF;" d="M472.895,159.426c-0.276-0.863-1.135-1.397-2.033-1.163
				c-1.382,0.359-2.728,0.898-3.984,1.576c-0.359,0.194-0.656,0.598-0.764,0.987c-0.111,0.396-0.063,0.924,0.163,1.277
				c0.496,0.774,1.448,1.042,2.264,0.602c0.409-0.221,0.831-0.418,1.257-0.603c0.632-0.252,1.276-0.471,1.934-0.642
				c0.4-0.104,0.783-0.403,0.992-0.758C472.933,160.347,473.023,159.824,472.895,159.426z"/>
			<path style="opacity:0.3;fill:#FFFFFF;" d="M531.216,116.439c-1.076-1.056-2.226-2.023-3.423-2.939
				c-0.318-0.243-0.91-0.271-1.276-0.171c-0.385,0.104-0.802,0.4-0.992,0.758c-0.204,0.384-0.308,0.849-0.171,1.276
				c0.055,0.132,0.11,0.264,0.166,0.396c0.132,0.224,0.311,0.402,0.525,0.544c0.986,0.77,1.928,1.595,2.822,2.471
				c0.306,0.3,0.739,0.488,1.169,0.489c0.406,0.001,0.892-0.177,1.173-0.481c0.291-0.315,0.507-0.728,0.489-1.169
				C531.679,117.176,531.535,116.752,531.216,116.439z"/>
		</g>
		<g>
			<path style="fill:none;stroke:#162A45;stroke-width:4;stroke-linecap:round;stroke-linejoin:round;stroke-miterlimit:10;" d="
				M288.903,247.918v-1.657c0-5.908,4.789-10.697,10.697-10.697h11.253c5.908,0,10.697,4.789,10.697,10.697v0"/>
			
				<polyline style="fill:none;stroke:#162A45;stroke-width:4;stroke-linecap:round;stroke-linejoin:round;stroke-miterlimit:10;" points="
				280.819,249.274 280.819,165.926 329.03,165.926 329.03,249.274 			"/>
			<path style="fill:#5FC5A9;" d="M332.532,171.232H277.92c-3.1,0-5.613-2.513-5.613-5.613v-1.882c0-3.1,2.513-5.613,5.613-5.613
				h54.612c3.1,0,5.613,2.513,5.613,5.613v1.882C338.145,168.719,335.632,171.232,332.532,171.232z"/>
			<circle style="fill:#162A45;" cx="266.613" cy="432.719" r="10.702"/>
			<circle style="fill:#162A45;" cx="344.706" cy="432.719" r="10.702"/>
			<path style="fill:#93D8C3;" d="M364.257,432.43H246.195c-5.416,0-9.807-4.391-9.807-9.807V255.971
				c0-5.416,4.391-9.806,9.807-9.806h118.062c5.416,0,9.806,4.391,9.806,9.806v166.653
				C374.063,428.04,369.673,432.43,364.257,432.43z"/>
			<g>
				<g>
					<path style="fill:#5FC5A9;" d="M268.783,246.165H247.38c-6.07,0-10.991,4.921-10.991,10.991v21.403
						C254.279,278.559,268.783,264.055,268.783,246.165z"/>
					<path style="fill:#5FC5A9;" d="M374.063,278.559v-21.403c0-6.07-4.921-10.991-10.991-10.991h-21.403
						C341.669,264.055,356.172,278.559,374.063,278.559z"/>
					<path style="fill:#5FC5A9;" d="M374.063,421.439v-21.403c-17.891,0-32.394,14.503-32.394,32.394h21.403
						C369.142,432.43,374.063,427.509,374.063,421.439z"/>
					<path style="fill:#5FC5A9;" d="M236.389,400.036v21.403c0,6.07,4.921,10.991,10.991,10.991h21.403
						C268.783,414.539,254.279,400.036,236.389,400.036z"/>
				</g>
			</g>
			<g>
				<path style="fill:#5FC5A9;" d="M272.523,405.242h-0.939c-1.547,0-2.801-1.254-2.801-2.801V283.673
					c0-1.547,1.254-2.801,2.801-2.801h0.939c1.547,0,2.801,1.254,2.801,2.801v118.768
					C275.324,403.988,274.07,405.242,272.523,405.242z"/>
				<path style="fill:#5FC5A9;" d="M289.109,405.242h-0.939c-1.547,0-2.801-1.254-2.801-2.801V283.673
					c0-1.547,1.254-2.801,2.801-2.801h0.939c1.547,0,2.801,1.254,2.801,2.801v118.768
					C291.91,403.988,290.656,405.242,289.109,405.242z"/>
				<path style="fill:#5FC5A9;" d="M305.695,405.242h-0.939c-1.547,0-2.801-1.254-2.801-2.801V283.673
					c0-1.547,1.254-2.801,2.801-2.801h0.939c1.547,0,2.801,1.254,2.801,2.801v118.768
					C308.496,403.988,307.242,405.242,305.695,405.242z"/>
				<path style="fill:#5FC5A9;" d="M322.282,405.242h-0.939c-1.547,0-2.801-1.254-2.801-2.801V283.673
					c0-1.547,1.254-2.801,2.801-2.801h0.939c1.547,0,2.801,1.254,2.801,2.801v118.768
					C325.083,403.988,323.829,405.242,322.282,405.242z"/>
				<path style="fill:#5FC5A9;" d="M338.868,405.242h-0.939c-1.547,0-2.801-1.254-2.801-2.801V283.673
					c0-1.547,1.254-2.801,2.801-2.801h0.939c1.547,0,2.801,1.254,2.801,2.801v118.768
					C341.669,403.988,340.415,405.242,338.868,405.242z"/>
			</g>
			<path style="opacity:0.3;fill:#FFFFFF;" d="M251.841,362.436h-1.801c-2.967,0-5.372-2.405-5.372-5.372v-89.33
				c0-2.967,2.405-5.372,5.372-5.372h1.801c2.967,0,5.372,2.405,5.372,5.372v89.33C257.213,360.031,254.808,362.436,251.841,362.436
				z"/>
			<path style="fill:#162A45;" d="M310.576,269.303h-10.7c-1.093,0-1.98-0.886-1.98-1.98v-6.019c0-1.093,0.886-1.98,1.98-1.98h10.7
				c1.093,0,1.98,0.886,1.98,1.98v6.019C312.556,268.417,311.669,269.303,310.576,269.303z"/>
			<path style="opacity:0.3;fill:#FFFFFF;" d="M302.925,165.055h-23.42c-1.105,0-2-0.895-2-2v-0.671c0-1.104,0.895-2,2-2h23.42
				c1.105,0,2,0.896,2,2v0.671C304.925,164.16,304.029,165.055,302.925,165.055z"/>
		</g>
		<g>
			<path style="fill:#4D52A8;" d="M477.663,319.349c-2.579,0-4.67-2.091-4.67-4.67v-9.582c0-4.818-3.92-8.738-8.738-8.738h-26.779
				c-4.818,0-8.738,3.92-8.738,8.738v9.582c0,2.579-2.091,4.67-4.67,4.67c-2.579,0-4.67-2.091-4.67-4.67v-9.582
				c0-9.968,8.11-18.079,18.079-18.079h26.779c9.969,0,18.079,8.111,18.079,18.079v9.582
				C482.334,317.258,480.243,319.349,477.663,319.349z"/>
			<path style="fill:#7B85E8;" d="M540.51,463.651H361.22c-6.749,0-12.219-5.471-12.219-12.219V325.538
				c0-6.749,5.471-12.219,12.219-12.219H540.51c6.749,0,12.219,5.471,12.219,12.219v125.894
				C552.73,458.18,547.259,463.651,540.51,463.651z"/>
			<path style="fill:none;stroke:#4D52A8;stroke-miterlimit:10;" d="M532.337,457.62H369.394c-6.749,0-12.219-5.471-12.219-12.219
				V331.569c0-6.749,5.471-12.22,12.219-12.22h162.943c6.749,0,12.22,5.471,12.22,12.22V445.4
				C544.556,452.149,539.085,457.62,532.337,457.62z"/>
			<g>
				<path style="fill:#4D52A8;" d="M552.73,345.891v-18.305c0-7.88-6.388-14.268-14.267-14.268h-18.305
					C520.157,331.307,534.741,345.891,552.73,345.891z"/>
				<path style="fill:#4D52A8;" d="M381.573,313.318h-18.305c-7.88,0-14.267,6.388-14.267,14.268v18.305
					C366.99,345.891,381.573,331.307,381.573,313.318z"/>
				<path style="fill:#4D52A8;" d="M349,431.078v18.305c0,7.88,6.388,14.267,14.267,14.267h18.305
					C381.573,445.662,366.99,431.078,349,431.078z"/>
				<path style="fill:#4D52A8;" d="M552.73,449.384v-18.305c-17.989,0-32.573,14.583-32.573,32.573h18.305
					C546.342,463.651,552.73,457.263,552.73,449.384z"/>
			</g>
			<g>
				<path style="fill:#FFB552;" d="M409.496,384.858l-19.788,9.133c-0.599,0.276-1.308,0.015-1.584-0.583l-9.133-19.788
					c-0.276-0.599-0.015-1.308,0.583-1.584l19.788-9.133c0.599-0.276,1.308-0.015,1.584,0.584l9.133,19.788
					C410.355,383.873,410.094,384.582,409.496,384.858z"/>
				<path style="fill:#F78721;" d="M395.066,383.553l-1.915,0.884c-3.154,1.456-6.892,0.079-8.347-3.075l-0.884-1.914
					c-1.456-3.154-0.079-6.892,3.075-8.347l1.915-0.884c3.154-1.456,6.892-0.079,8.347,3.075l0.884,1.915
					C399.597,378.36,398.221,382.098,395.066,383.553z"/>
				<path style="fill:#F78721;" d="M406.386,380.486c0.819,1.775,0.044,3.879-1.731,4.698c-1.775,0.819-3.879,0.044-4.698-1.731
					c-0.819-1.775-0.044-3.879,1.731-4.698C403.463,377.936,405.567,378.711,406.386,380.486z"/>
			</g>
			<rect x="401.43" y="313.318" style="fill:#383D84;" width="9.943" height="150.333"/>
			<g>
				<path style="fill:#93D8C3;" d="M457.965,420.046l-34.663-8.327c-1.411-0.339-2.28-1.757-1.941-3.168l4.358-18.142
					c0.339-1.411,1.757-2.28,3.168-1.941l34.663,8.327c1.411,0.339,2.28,1.757,1.941,3.168l-4.358,18.142
					C460.794,419.516,459.376,420.385,457.965,420.046z"/>
				<path style="fill:#5FC5A9;" d="M462.658,411.759l-8.041-9.096l-8.225,3.602l-7.797-11.402l-15.655,7.116l-1.476,6.144
					c-0.396,1.647,0.619,3.303,2.266,3.699l33.807,8.122c1.647,0.396,3.303-0.619,3.699-2.266L462.658,411.759z"/>
			</g>
			
				<ellipse transform="matrix(0.2289 -0.9735 0.9735 0.2289 -24.6072 763.3813)" style="fill:#FFB552;" cx="469.547" cy="397.223" rx="8.738" ry="8.738"/>
			
				<ellipse transform="matrix(0.6704 -0.742 0.742 0.6704 -92.5786 490.5048)" style="fill:#93D8C3;" cx="505.837" cy="349.461" rx="8.738" ry="8.738"/>
			<g>
				<path style="fill:#CDD7FF;" d="M496.704,372.122l-25.677,5.029c-1.259,0.247-2.479-0.574-2.726-1.833L464.85,357.7
					c-0.247-1.259,0.574-2.479,1.833-2.726l25.677-5.029c1.259-0.247,2.479,0.574,2.726,1.833l3.451,17.619
					C498.783,370.655,497.963,371.876,496.704,372.122z"/>
				<path style="fill:#A9B3FF;" d="M498.462,369.014l-1.94-9.902c-3.593,1.127-6.136,5.34-9.947,5.272
					c-3.035-0.054-5.392-2.879-8.399-3.295c-2.488-0.344-4.902,1.042-6.767,2.726c-1.553,1.403-2.909,3.031-4.505,4.372l1.322,6.75
					c0.288,1.47,1.713,2.428,3.183,2.14l24.913-4.88C497.792,371.909,498.75,370.484,498.462,369.014z"/>
			</g>
			<rect x="492.127" y="313.318" style="fill:#383D84;" width="9.944" height="150.333"/>
			<path style="opacity:0.3;fill:#FFFFFF;" d="M368.666,416.43h-1.817c-2.993,0-5.419-2.426-5.419-5.419v-80.009
				c0-2.993,2.426-5.419,5.419-5.419h1.817c2.993,0,5.419,2.426,5.419,5.419v80.009C374.085,414.003,371.659,416.43,368.666,416.43z
				"/>
		</g>
		<g>
			<path style="fill:#D35D57;" d="M590.81,481.078h-40.406c-3.706,0-6.71-3.004-6.71-6.71v-61.067c0-3.706,3.004-6.71,6.71-6.71
				h40.406c3.706,0,6.71,3.004,6.71,6.71v61.067C597.52,478.074,594.516,481.078,590.81,481.078z"/>
			<path style="fill:#A33636;" d="M550.112,406.592h-1.976c-2.453,0-4.442,1.989-4.442,4.442v65.603
				c0,2.453,1.989,4.442,4.442,4.442h1.976V406.592z"/>
			<path style="fill:#A33636;" d="M573.26,420.681c-7.172,0-13.008,5.835-13.008,13.008c0,7.172,5.835,13.008,13.008,13.008
				c7.173,0,13.008-5.835,13.008-13.008C586.268,426.516,580.433,420.681,573.26,420.681z M585.525,436.497
				c-0.318,0.3-2.325,2.113-5.504,3.403c0.801-2.124,1.148-4.136,1.189-6h4.63C585.824,434.792,585.716,435.66,585.525,436.497z
				 M560.682,433.901h4.63c0.039,1.819,0.372,3.779,1.133,5.848c-1.751-0.742-3.575-1.802-5.451-3.264
				C560.803,435.651,560.696,434.787,560.682,433.901z M560.993,430.893c1.829-1.424,3.608-2.466,5.318-3.204
				c-0.584,1.68-0.997,3.63-1.003,5.788h-4.626C560.696,432.59,560.803,431.726,560.993,430.893z M573.472,426.166
				c2.328,0.007,4.407,0.496,6.156,1.161c0.663,1.748,1.152,3.824,1.158,6.15h-7.314V426.166z M573.472,425.736v-4.626
				c0.891,0.015,1.76,0.123,2.597,0.315c0.296,0.314,2.063,2.27,3.348,5.371C577.702,426.182,575.699,425.743,573.472,425.736z
				 M573.048,425.74c-1.862,0.04-3.872,0.387-5.995,1.187c1.288-3.177,3.099-5.184,3.399-5.502c0.837-0.192,1.706-0.3,2.597-0.315
				V425.74z M573.048,426.17v7.307h-7.311c0.007-2.263,0.469-4.29,1.105-6.008C569.045,426.591,571.128,426.213,573.048,426.17z
				 M565.742,433.901h7.307v7.31c-1.879-0.042-3.913-0.405-6.065-1.243C566.145,437.815,565.784,435.78,565.742,433.901z
				 M573.048,441.635v4.632c-0.886-0.015-1.75-0.122-2.584-0.311c-1.462-1.877-2.522-3.701-3.263-5.452
				C569.27,441.264,571.23,441.596,573.048,441.635z M573.472,441.642c2.161-0.007,4.11-0.422,5.791-1.007
				c-0.739,1.711-1.781,3.491-3.207,5.321c-0.833,0.19-1.697,0.297-2.584,0.311V441.642z M573.472,441.214v-7.314h7.31
				c-0.043,1.921-0.422,4.005-1.302,6.209C577.763,440.746,575.735,441.208,573.472,441.214z M581.213,433.477
				c-0.007-2.225-0.445-4.227-1.058-5.941c3.101,1.284,5.056,3.049,5.37,3.344c0.192,0.837,0.3,1.706,0.315,2.597H581.213z
				 M585.335,430.15c-0.866-0.722-2.749-2.122-5.382-3.154c-1.031-2.633-2.432-4.516-3.154-5.382
				C580.897,422.818,584.131,426.052,585.335,430.15z M569.722,421.614c-0.735,0.881-2.173,2.817-3.209,5.526
				c-1.719,0.705-3.509,1.71-5.349,3.091C562.347,426.095,565.597,422.825,569.722,421.614z M561.162,437.142
				c1.892,1.419,3.73,2.447,5.494,3.154c0.707,1.762,1.729,3.599,3.147,5.49C565.638,444.593,562.352,441.306,561.162,437.142z
				 M576.718,445.785c1.381-1.841,2.386-3.63,3.091-5.35c2.707-1.036,4.644-2.473,5.525-3.208
				C584.124,441.352,580.854,444.602,576.718,445.785z"/>
			<g>
				<text transform="matrix(1 0 0 1 560.3706 464.1232)" style="fill:#A33636; font-family:'Poppins-Medium'; font-size:5.0796px;">PASSPORT</text>
			</g>
			<path style="opacity:0.3;fill:#FFFFFF;" d="M592.65,448.713h-0.382c-1.062,0-1.923-0.861-1.923-1.923v-32.414
				c0-1.062,0.861-1.923,1.923-1.923h0.382c1.062,0,1.923,0.861,1.923,1.923v32.414C594.573,447.852,593.712,448.713,592.65,448.713
				z"/>
			<path style="opacity:0.3;fill:#FFFFFF;" d="M592.65,459.681h-0.382c-1.062,0-1.923-0.861-1.923-1.923v-2.765
				c0-1.062,0.861-1.923,1.923-1.923h0.382c1.062,0,1.923,0.861,1.923,1.923v2.765C594.573,458.82,593.712,459.681,592.65,459.681z"
				/>
		</g>
		<g>
			<path style="fill:#D35D57;" d="M171.566,259.116c-9.764,0-19.527,10.82-19.527,25.035c0,14.215,10.872,27.36,19.527,34.62
				c8.655-7.26,19.527-20.405,19.527-34.62C191.093,269.936,181.329,259.116,171.566,259.116z M171.566,288.944
				c-5.883,0-10.653-4.77-10.653-10.653c0-5.883,4.77-10.653,10.653-10.653s10.653,4.77,10.653,10.653
				C182.219,284.174,177.449,288.944,171.566,288.944z"/>
			<path style="opacity:0.3;fill:#FFFFFF;" d="M164.242,300.422c-4.945-5.804-7.257-13.829-6.086-21.374
				c0.158-1.02-0.26-2.057-1.336-2.353c-0.907-0.249-2.194,0.309-2.353,1.336c-1.397,9.007,1.151,18.151,7.07,25.097
				C163.136,305.004,165.831,302.287,164.242,300.422z"/>
			<path style="opacity:0.3;fill:#FFFFFF;" d="M166.393,303.853c-2.462,0-2.466,3.826,0,3.826
				C168.855,307.679,168.859,303.853,166.393,303.853z"/>
		</g>
		<g>
			<polygon style="fill:#CDD7FF;" points="176.787,442.314 131.88,453.235 131.88,347.411 176.787,336.489 			"/>
			<polygon style="fill:#CDD7FF;" points="266.601,442.314 221.694,453.235 221.694,347.411 266.601,336.489 			"/>
			<polygon style="fill:#A9B3FF;" points="176.787,442.314 221.694,453.235 221.694,347.411 176.787,336.489 			"/>
			<polygon style="fill:#A9B3FF;" points="176.787,437.946 136.124,447.836 136.124,350.746 176.787,340.857 221.694,351.779 
				262.356,341.889 262.356,438.978 221.694,448.868 			"/>
			<polygon style="fill:#7B85E8;" points="176.787,437.946 176.787,437.946 221.694,448.868 221.694,351.779 176.787,340.857 
				176.787,340.857 			"/>
			<path style="fill:#7B85E8;" d="M164.24,371.368c-2.1,1.771-5.542,1.453-7.339,3.53c-1.73,2-1.052,5.206-2.439,7.457
				c-2.422,3.93-9.432,2.766-11.626,6.828c-1.132,2.096-0.413,4.668,0.328,6.932c1.014,3.098,2.027,6.196,3.041,9.294
				c0.519,1.586,1.056,3.206,2.08,4.523c1.024,1.317,2.649,2.293,4.305,2.086c2.687-0.336,4.046-3.313,5.097-5.808
				c1.051-2.496,3.02-5.329,5.693-4.895c3.865,0.628,4.811,7.505,8.704,7.082c3.325-0.361,3.713-5.732,6.861-6.862
				c2.568-0.922,5.016,1.515,6.665,3.688c2.374,3.127,4.748,6.255,7.121,9.382c1.584,2.087,3.238,4.235,5.537,5.491
				c2.299,1.257,5.439,1.374,7.331-0.439c2.471,4.504,4.99,9.073,8.607,12.72c3.618,3.648,8.545,6.317,13.676,6.066
				c5.687-0.278,10.559-3.965,15.027-7.494c4.592-3.626,9.532-7.839,10.308-13.638c0.654-4.892-1.862-9.579-2.981-14.386
				c-1.17-5.025-0.785-10.401,1.09-15.208c1.064-2.729,2.619-5.387,2.648-8.315c0.029-2.929-2.357-6.16-5.234-5.615
				c-2.189,0.415-3.48,2.737-3.917,4.921c-0.437,2.184-0.344,4.499-1.208,6.552c-0.863,2.053-3.223,3.771-5.262,2.874
				c0.002-2.85-2.065-5.576-4.809-6.344c-2.744-0.768-5.926,0.489-7.404,2.925c-1.374,2.264-1.444,5.406-3.58,6.971
				c-1.644,1.205-4.011,0.962-5.782-0.048c-1.771-1.01-3.081-2.648-4.345-4.247c-2.803-3.545-5.606-7.089-8.409-10.634
				c-4.452-5.63-9.799-11.607-17.692-9.611c-2.848,0.72-5.027,1.156-7.673-0.376c-2.666-1.544-5.516-4.842-8.921-3.363
				C166.5,364.816,166.757,369.246,164.24,371.368z"/>
			<path style="fill:#6265CE;" d="M221.694,392.153c-1.543,0.625-3.434,0.33-4.914-0.514c-1.771-1.01-3.08-2.648-4.345-4.247
				c-2.803-3.545-5.606-7.089-8.409-10.634c-4.452-5.63-9.799-11.607-17.692-9.611c-2.849,0.72-5.027,1.156-7.673-0.376
				c-0.613-0.355-1.237-0.804-1.874-1.265v37.834c0.583-0.803,1.256-1.481,2.158-1.805c2.568-0.922,5.016,1.515,6.665,3.688
				c2.374,3.127,4.748,6.255,7.122,9.382c1.584,2.087,3.238,4.235,5.537,5.491c2.299,1.257,5.439,1.374,7.331-0.439
				c2.471,4.504,4.99,9.073,8.607,12.72c2.12,2.137,4.691,3.933,7.487,5.008V392.153z"/>
			<path style="fill:#7B85E8;" d="M235.986,359.918c2.77-0.675,5.596,0.641,8.144,1.921c0.73,0.367,1.554,0.864,1.636,1.677
				c0.074,0.738-0.533,1.382-1.197,1.713c-0.664,0.331-1.415,0.461-2.07,0.81c-1.744,0.928-2.356,3.091-2.7,5.036
				c-0.344,1.945-0.694,4.096-2.219,5.35c-2.042,1.679-5.363,0.776-6.992-1.305c-2.284-2.918-1.152-5.818,0.258-8.698
				C232.168,363.724,232.472,360.774,235.986,359.918z"/>
			<path style="fill:#7B85E8;" d="M150.081,359.077c-0.477,0.818-0.797,1.725-1.329,2.508c-1.137,1.67-3.14,2.63-4.154,4.377
				c-0.839,1.446-0.85,3.336-0.028,4.791c0.822,1.455,2.446,2.422,4.117,2.451c2.382,0.041,4.407-1.63,6.192-3.208
				c1.185-1.047,2.37-2.094,3.555-3.142c1.141-1.009,2.316-2.063,2.93-3.456c1.446-3.283-0.754-6.327-3.775-7.569
				C154.714,354.648,151.582,356.5,150.081,359.077z"/>
			<path style="fill:#7B85E8;" d="M158.724,421.875c1.733-0.88,2.702-3.054,4.6-3.47c1.321-0.29,2.723,0.443,3.501,1.55
				c0.779,1.106,1.018,2.513,0.986,3.865c-0.137,5.844-5.276,10.858-10.985,11.431c-5.776,0.58-10.999-3.848-7.547-9.619
				C151.669,421.639,155.327,423.599,158.724,421.875z"/>
			<path style="opacity:0.3;fill:#FFFFFF;" d="M258.53,413.421h-0.731c-1.205,0-2.181-0.976-2.181-2.181v-52.484
				c0-1.205,0.976-2.181,2.181-2.181h0.731c1.204,0,2.181,0.976,2.181,2.181v52.484C260.711,412.445,259.734,413.421,258.53,413.421
				z"/>
			<path style="opacity:0.3;fill:#FFFFFF;" d="M258.53,429.873h-0.731c-1.205,0-2.181-0.977-2.181-2.181v-6.011
				c0-1.204,0.976-2.181,2.181-2.181h0.731c1.204,0,2.181,0.977,2.181,2.181v6.011C260.711,428.896,259.734,429.873,258.53,429.873z
				"/>
		</g>
		<g>
			
				<ellipse transform="matrix(0.5184 -0.8551 0.8551 0.5184 -10.4472 615.4823)" style="fill:#F78721;" cx="541.241" cy="317.017" rx="29.037" ry="73.356"/>
			<path style="fill:#FFB552;" d="M563.379,273.251c-15.938-7.765-35.408-3.832-47.088,9.506c-2.581,2.948-4.619,6.121-6.165,9.423
				c-1.011,2.16-0.548,4.717,1.19,6.351c7.947,7.47,16.883,15.724,27.644,22.248c10.76,6.524,22.21,10.63,32.509,14.222
				c2.235,0.78,4.713,0.036,6.153-1.843c0.865-1.129,1.677-2.316,2.432-3.56C592.066,309.783,584.705,283.642,563.379,273.251z"/>
			<path style="fill:#93D8C3;" d="M513.571,286.267c-1.334,1.91-2.495,3.883-3.445,5.913c-1.011,2.16-0.548,4.717,1.19,6.35
				c7.947,7.47,16.883,15.724,27.643,22.248c10.76,6.524,22.21,10.63,32.509,14.222c2.235,0.78,4.713,0.036,6.153-1.843
				c0.865-1.129,1.677-2.315,2.432-3.56c0.597-0.984,1.132-1.987,1.633-3c-7.795-2.025-22.125-6.587-37.719-15.717
				C529.67,302.51,519.393,292.651,513.571,286.267z"/>
			<path style="opacity:0.3;fill:#FFFFFF;" d="M551.739,274.048c-10.742-2.494-19.065,2.176-26.544,9.546
				c-2.955,2.912,1.469,7.602,4.426,4.687c5.77-5.686,11.896-9.996,20.361-8.031C554.004,281.185,555.795,274.99,551.739,274.048z"
				/>
			<path style="opacity:0.3;fill:#FFFFFF;" d="M529.16,329.956c-14.893-9.684-27.418-22.291-36.953-37.285
				c-2.219-3.488-7.895-0.431-5.667,3.073c10.158,15.975,23.404,29.402,39.278,39.724
				C529.298,337.73,532.636,332.216,529.16,329.956z"/>
		</g>
		<g>
			<g>
				
					<line style="fill:none;stroke:#FFB552;stroke-linecap:round;stroke-linejoin:round;stroke-miterlimit:10;" x1="416.711" y1="204.943" x2="416.711" y2="242.839"/>
				
					<line style="fill:none;stroke:#FFB552;stroke-linecap:round;stroke-linejoin:round;stroke-miterlimit:10;" x1="404.712" y1="203.656" x2="409.61" y2="242.349"/>
				
					<line style="fill:none;stroke:#FFB552;stroke-linecap:round;stroke-linejoin:round;stroke-miterlimit:10;" x1="393.232" y1="200.243" x2="401.576" y2="241.859"/>
				
					<line style="fill:none;stroke:#FFB552;stroke-linecap:round;stroke-linejoin:round;stroke-miterlimit:10;" x1="428.71" y1="203.656" x2="423.812" y2="242.349"/>
				
					<line style="fill:none;stroke:#FFB552;stroke-linecap:round;stroke-linejoin:round;stroke-miterlimit:10;" x1="440.189" y1="200.243" x2="431.845" y2="241.859"/>
			</g>
			<g>
				<path style="fill:#D35D57;" d="M455.022,173.735c0,21.159-17.153,51.098-38.311,51.098c-21.159,0-38.311-29.94-38.311-51.098
					s17.152-38.311,38.311-38.311C437.869,135.423,455.022,152.576,455.022,173.735z"/>
				<path style="fill:#FFFFFF;" d="M397.784,216.642c-3.737-11.875-7.262-34.772-6.184-47.094
					c1.212-13.856,9.926-30.916,9.974-31.012c0,0-0.001,0.001-0.001,0.001c-0.673,0.29-1.334,0.601-1.985,0.928
					c-0.041,0.021-0.082,0.042-0.123,0.063c-0.641,0.325-1.273,0.666-1.894,1.025h0c-5.195,5.427-13.655,16.451-14.135,31.079
					c-0.341,10.395,3.078,25.826,6.651,36.242C392.393,211.149,394.977,214.125,397.784,216.642z"/>
				<path style="fill:#FFFFFF;" d="M443.334,207.874c3.573-10.416,6.992-25.847,6.651-36.242
					c-0.479-14.628-8.939-25.652-14.135-31.079c0,0-0.001,0-0.001-0.001c-0.62-0.358-1.252-0.699-1.892-1.024
					c-0.041-0.021-0.082-0.042-0.123-0.063c-0.651-0.327-1.311-0.638-1.983-0.928c-0.001,0-0.002-0.001-0.003-0.001
					c0.049,0.096,8.762,17.156,9.974,31.012c1.078,12.323-2.447,35.219-6.184,47.094
					C438.444,214.125,441.028,211.149,443.334,207.874z"/>
				<path style="fill:#FFFFFF;" d="M424.6,223.44c3.488-9.384,7.475-35,7.235-49.705c-0.281-17.186-5.528-30.547-9.207-37.855
					c0,0,0,0-0.001,0c-0.163-0.025-0.327-0.043-0.49-0.066c-0.412-0.058-0.825-0.112-1.241-0.158
					c-0.217-0.024-0.436-0.043-0.654-0.063c-0.393-0.036-0.787-0.066-1.183-0.09c-0.193-0.012-0.386-0.025-0.579-0.034
					c-0.587-0.027-1.176-0.045-1.769-0.045c0,0,0,0,0,0c-0.593,0-1.182,0.018-1.769,0.045c-0.194,0.009-0.387,0.022-0.58,0.034
					c-0.396,0.024-0.79,0.054-1.183,0.09c-0.218,0.02-0.437,0.04-0.654,0.063c-0.415,0.045-0.828,0.099-1.239,0.158
					c-0.164,0.023-0.329,0.042-0.492,0.067h0c-3.679,7.308-8.926,20.669-9.207,37.855c-0.24,14.705,3.747,40.321,7.235,49.705
					c2.547,0.898,5.184,1.393,7.889,1.393C419.416,224.833,422.054,224.338,424.6,223.44z"/>
				<path style="fill:#D35D57;" d="M419.004,135.499c-0.175-0.011-0.349-0.023-0.524-0.031c-0.587-0.027-1.176-0.045-1.769-0.045
					c0,0,0,0,0,0c-0.593,0-1.182,0.018-1.769,0.045c-0.005,0-0.01,0.001-0.015,0.001c-2.355,18.151-5.625,54.35-0.376,89.253
					c0.715,0.069,1.435,0.111,2.161,0.111c0.664,0,1.323-0.031,1.978-0.09c1.578-11.061,3.524-28.88,3.524-49.471
					C422.213,159.006,420.514,144.863,419.004,135.499z"/>
			</g>
			<g>
				<path style="fill:#F78721;" d="M398.77,243.033h35.882c1.336,0,2.331,1.233,2.049,2.539l-5.023,23.265
					c-0.208,0.965-1.062,1.654-2.049,1.654h-24.771c-0.953,0-1.787-0.643-2.028-1.565l-6.088-23.265
					C396.394,244.331,397.396,243.033,398.77,243.033z"/>
				<path style="fill:#FFB552;" d="M433.978,248.839h-34.535c-2.399,0-4.344-1.945-4.344-4.344v-0.862
					c0-2.399,1.945-4.344,4.344-4.344h34.535c2.399,0,4.344,1.945,4.344,4.344v0.862
					C438.322,246.894,436.377,248.839,433.978,248.839z"/>
			</g>
			<path style="opacity:0.3;fill:#FFFFFF;" d="M398.426,152.731c-7.364,12-6.159,26.663-2.445,39.655
				c0.838,2.931,5.418,1.685,4.575-1.262c-3.37-11.786-4.736-25.077,1.966-35.999C404.124,152.516,400.022,150.13,398.426,152.731z"
				/>
			<path style="opacity:0.3;fill:#FFFFFF;" d="M417.618,241.178c-5.568,0.207-11.14,0.281-16.712,0.221
				c-1.833-0.02-1.834,2.827,0,2.847c5.572,0.059,11.144-0.014,16.712-0.221C419.444,243.957,419.453,241.11,417.618,241.178z"/>
			<path style="opacity:0.3;fill:#FFFFFF;" d="M406.011,259.004c-0.71-2.402-1.241-4.853-1.589-7.334
				c-0.104-0.74-1.085-1.21-1.751-0.994c-0.811,0.263-1.106,0.958-0.994,1.751c0.349,2.481,0.88,4.931,1.59,7.334
				c0.211,0.713,1.01,1.234,1.751,0.994C405.74,260.521,406.237,259.769,406.011,259.004z"/>
			<path style="opacity:0.3;fill:#FFFFFF;" d="M407.399,264.259c-0.042-0.309-0.084-0.617-0.126-0.926
				c-0.044-0.185-0.129-0.347-0.255-0.484c-0.1-0.155-0.233-0.277-0.399-0.367c-0.163-0.104-0.34-0.16-0.529-0.169
				c-0.189-0.042-0.378-0.034-0.568,0.025c-0.113,0.048-0.227,0.096-0.34,0.143c-0.214,0.127-0.384,0.297-0.511,0.511
				c-0.048,0.113-0.096,0.227-0.143,0.34c-0.068,0.252-0.068,0.505,0,0.757c0.042,0.309,0.084,0.617,0.126,0.926
				c0.044,0.185,0.129,0.347,0.255,0.484c0.1,0.155,0.234,0.277,0.399,0.366c0.163,0.104,0.34,0.16,0.529,0.169
				c0.189,0.042,0.378,0.034,0.568-0.025c0.113-0.048,0.227-0.095,0.34-0.143c0.214-0.126,0.384-0.297,0.511-0.511
				c0.048-0.113,0.096-0.227,0.143-0.34C407.467,264.763,407.467,264.511,407.399,264.259z"/>
		</g>
	</g>
	<g>
		<g>
			
				<line style="fill:none;stroke:#CDD7FF;stroke-width:3;stroke-linecap:round;stroke-linejoin:round;stroke-miterlimit:10;" x1="645.22" y1="388.485" x2="697.578" y2="388.485"/>
			
				<line style="fill:none;stroke:#CDD7FF;stroke-width:3;stroke-linecap:round;stroke-linejoin:round;stroke-miterlimit:10;" x1="660.113" y1="400.747" x2="686.292" y2="400.747"/>
		</g>
		<g>
			
				<line style="fill:none;stroke:#CDD7FF;stroke-width:3;stroke-linecap:round;stroke-linejoin:round;stroke-miterlimit:10;" x1="288.903" y1="466.595" x2="341.26" y2="466.595"/>
			
				<line style="fill:none;stroke:#CDD7FF;stroke-width:3;stroke-linecap:round;stroke-linejoin:round;stroke-miterlimit:10;" x1="252.586" y1="466.595" x2="271.951" y2="466.595"/>
		</g>
		<g>
			
				<line style="fill:none;stroke:#CDD7FF;stroke-width:3;stroke-linecap:round;stroke-linejoin:round;stroke-miterlimit:10;" x1="524.729" y1="250.624" x2="544.094" y2="250.624"/>
			
				<line style="fill:none;stroke:#CDD7FF;stroke-width:3;stroke-linecap:round;stroke-linejoin:round;stroke-miterlimit:10;" x1="474.825" y1="250.624" x2="511.753" y2="250.624"/>
		</g>
		<g>
			
				<line style="fill:none;stroke:#CDD7FF;stroke-width:3;stroke-linecap:round;stroke-linejoin:round;stroke-miterlimit:10;" x1="59.591" y1="404.012" x2="111.949" y2="404.012"/>
			
				<line style="fill:none;stroke:#CDD7FF;stroke-width:3;stroke-linecap:round;stroke-linejoin:round;stroke-miterlimit:10;" x1="56.123" y1="389.079" x2="75.488" y2="389.079"/>
		</g>
	</g>
</g>
<g id="TEXTS">
	<g>
		<g>
			
				<text transform="matrix(1 0 0 1 312.5776 67.2247)" style="fill:#252A5E; font-family:'Poppins-Medium'; font-size:23.0245px; letter-spacing:6;">TIME TO</text>
		</g>
		<g>
			<text transform="matrix(1 0 0 1 280.8394 109.1759)" style="fill:#252A5E; font-family:'Bevan-Regular'; font-size:38.4483px;">TRAVEL</text>
		</g>
	</g>
</g>
</svg>
