<?xml version="1.0" encoding="utf-8"?>
<!-- Generator: Adobe Illustrator 27.5.0, SVG Export Plug-In . SVG Version: 6.00 Build 0)  -->
<svg version="1.1" xmlns="http://www.w3.org/2000/svg" xmlns:xlink="http://www.w3.org/1999/xlink" x="0px" y="0px"
	 viewBox="0 0 500 500" style="enable-background:new 0 0 500 500;" xml:space="preserve">
<g id="BACKGROUND">
</g>
<g id="OBJECTS">
	<g>
		<path style="fill:#F4804D;" d="M239.447,169.253c2.218-2.282,4.471-4.612,5.889-7.461c3.06-6.149-1.061-16.534-9.06-16.243
			c-4.559,0.166-8.057,3.872-10.064,6.931c-0.788,1.201-0.856,2.225-0.24,3.617c1.587,3.582,4.1,7.184,7.793,9.543
			c5.756,3.677,4.626,1.719,5.756,3.677"/>
		<g>
			<path style="fill:#242424;" d="M232.223,185.801c1.313-1.971,2.339-4.107,3.226-6.288c0.901-2.176,1.648-4.413,2.253-6.687
				c0.584-2.278,1.142-4.564,1.524-6.886c0.417-2.33,0.855-4.688,1.485-6.982c1.249-4.602,3.007-9.015,4.193-13.558
				c1.225-4.54,1.592-9.273,1.404-14.007c0.272,2.352,0.415,4.729,0.32,7.11c-0.123,2.378-0.458,4.749-0.976,7.078
				c-0.5,2.335-1.243,4.601-1.955,6.856c-0.721,2.255-1.423,4.505-2.021,6.78c-0.653,2.264-1.109,4.56-1.556,6.883
				c-0.431,2.341-0.974,4.666-1.683,6.94C237.02,177.569,235.145,182.047,232.223,185.801z"/>
		</g>
		<path style="fill:#F4804D;" d="M246.325,135.769c0,0,3.813-4.663,6.083-8.62c2.27-3.957,0.636-10.324-0.581-12.216
			c-1.217-1.892-3.519-2.588-4.222-2.849c-0.703-0.261-3.158,0.747-3.158,0.747s-0.807,0.02-2.141,0.164
			c-1.334,0.145-6.138,6.326-4.901,9.025c1.237,2.7,1.382,4.033,2.024,7.472C240.071,132.931,246.092,134.242,246.325,135.769z"/>
		<g>
			<path style="fill:#242424;" d="M242.563,154.597c1.246-3.228,2.676-6.379,4.196-9.488c1.515-3.112,3.182-6.154,5.063-9.084
				c0.958-1.453,1.957-2.89,3.185-4.184c1.24-1.262,2.488-2.4,3.725-3.612c1.236-1.198,2.441-2.427,3.59-3.705
				c1.17-1.261,2.263-2.59,3.224-4.029c-1.585,3.096-3.926,5.729-6.263,8.271c-1.149,1.285-2.45,2.482-3.587,3.724
				c-1.131,1.23-2.111,2.644-3.036,4.08c-1.872,2.868-3.551,5.877-5.221,8.891c-0.832,1.509-1.648,3.029-2.446,4.558
				L242.563,154.597z"/>
		</g>
		<path style="fill:#F4804D;" d="M262.632,124.637c0,0-0.952-2.585-1.416-5.626c-0.464-3.041,2.758-7.422,6.695-6.437
			c3.937,0.985,3.657,0.881,5.674,2.745c2.016,1.865,2.682,7.426-3.925,8.478C263.053,124.848,262.632,124.637,262.632,124.637z"/>
		<g>
			<path style="fill:#242424;" d="M234.091,185.087c1.067-1.698,2.231-3.332,3.483-4.897c1.244-1.573,2.575-3.079,4.026-4.49
				c0.738-0.694,1.494-1.375,2.378-1.95c0.885-0.548,1.727-1.009,2.592-1.518c1.699-1.024,3.424-2.008,4.943-3.315
				c-1.246,1.587-2.88,2.832-4.522,3.973c-0.807,0.583-1.707,1.101-2.489,1.65c-0.776,0.535-1.508,1.198-2.21,1.883
				c-1.424,1.358-2.772,2.818-4.126,4.274L234.091,185.087z"/>
		</g>
		<path style="fill:#F4804D;" d="M249.328,170.864c0,0-0.196-1.58-0.057-3.353c0.139-1.773,6.284-5.29,8.371-4.218
			c2.086,1.072,1.943,0.977,2.832,2.292c0.89,1.315-3.223,6.008-7.08,5.731C249.537,171.038,249.328,170.864,249.328,170.864z"/>
		<g>
			<path style="fill:#242424;" d="M228.803,186.708c0.341-2.039,0.359-4.108,0.254-6.158c-0.09-2.052-0.338-4.094-0.675-6.118
				c-0.702-4.044-1.717-8.033-3.07-11.913c-1.281-3.923-2.628-7.851-3.607-11.885c-0.483-2.017-0.925-4.053-1.138-6.13
				c-0.101-1.037-0.121-2.09-0.015-3.131c0.104-1.038,0.435-2.083,1.087-2.894c-1.12,1.796-0.883,3.978-0.586,5.964
				c0.306,2.024,0.827,4.018,1.395,5.994c1.124,3.96,2.453,7.858,3.81,11.763c1.288,3.948,2.333,7.992,2.881,12.118
				C229.634,178.431,229.833,182.676,228.803,186.708z"/>
		</g>
		<path style="fill:#F4804D;" d="M221.36,150.081c0,0,5.191-6.452,7.4-10.52c2.21-4.068,2.885-8.705,1.343-12.072
			c-1.542-3.366-8.493-9.091-10.677-8.856c-5.283,0.569-9.611,5.779-12.165,10.013c-1.002,1.661-1.16,3.033-0.554,4.841
			c1.56,4.656,4.19,9.267,8.28,12.13C221.36,150.081,220.203,147.556,221.36,150.081"/>
		<g>
			<path style="fill:#242424;" d="M209.206,231.152c1.956-2.396,4.057-4.668,6.222-6.878c2.162-2.215,4.438-4.321,6.866-6.272
				c1.226-0.96,2.482-1.894,3.896-2.643c1.414-0.717,2.792-1.324,4.187-1.995c1.389-0.66,2.761-1.354,4.1-2.105
				c1.353-0.728,2.659-1.539,3.889-2.476c-2.208,2.191-4.939,3.769-7.637,5.266c-1.336,0.767-2.782,1.415-4.092,2.145
				c-1.302,0.719-2.533,1.639-3.723,2.592c-2.399,1.896-4.677,3.967-6.954,6.039c-1.137,1.039-2.263,2.091-3.377,3.156
				L209.206,231.152z"/>
		</g>
		<path style="fill:#F4804D;" d="M231.597,212.685c0,0,0.701-3.635,2.214-7.814c1.513-4.179,7.772-9.628,11.254-7.718
			c3.481,1.91,3.256,1.728,4.144,4.546c0.889,2.817,1.432,14.358-6.187,14.809C235.403,216.958,231.597,212.685,231.597,212.685z"/>
		<g>
			<path style="fill:#242424;" d="M205.056,245.044c0.238-4.751,1.742-9.366,3.626-13.722c0.949-2.185,2.054-4.3,3.257-6.355
				c1.178-2.051,2.332-4.088,3.316-6.229c1.032-2.113,1.97-4.276,2.896-6.454c0.934-2.173,1.851-4.375,2.996-6.47
				c1.128-2.102,2.423-4.117,3.882-5.998c1.483-1.866,3.143-3.573,4.885-5.176c-3.233,3.463-6.046,7.287-8.082,11.525
				c-2.068,4.215-3.619,8.706-5.677,13.006c-1.021,2.15-2.229,4.221-3.435,6.258c-1.227,2.008-2.297,4.104-3.342,6.21
				c-1.027,2.117-1.922,4.299-2.66,6.535C205.966,240.406,205.348,242.693,205.056,245.044z"/>
		</g>
		<path style="fill:#F4804D;" d="M224.213,198.652c0,0,0.199-7.617,1.292-13.282c1.093-5.665,7.918-10.416,10.646-11.223
			c2.729-0.808,5.508,0.427,6.397,0.758c0.889,0.33,2.408,3.323,2.408,3.323s0.757,0.686,1.915,1.926
			c1.158,1.24,2.083,5.833-1.332,7.398c-3.415,1.565-4.655,2.723-8.11,5.487C233.975,195.803,225.697,197.382,224.213,198.652z"/>
		<g>
			<path style="fill:#242424;" d="M217.599,214.658l1.149-5.053c0.394-1.68,0.768-3.363,1.123-5.049
				c0.703-3.372,1.396-6.748,1.851-10.143c0.237-1.692,0.418-3.403,0.365-5.073c-0.05-1.683-0.253-3.439-0.285-5.163
				c-0.111-3.451-0.164-6.974,0.657-10.354c-0.212,1.717-0.252,3.438-0.189,5.156c0.036,1.718,0.147,3.436,0.3,5.15
				c0.145,1.725,0.348,3.403,0.463,5.168c0.085,1.782-0.096,3.522-0.32,5.248c-0.488,3.447-1.212,6.84-2.097,10.186
				C219.737,208.08,218.764,211.4,217.599,214.658z"/>
		</g>
		<path style="fill:#F4804D;" d="M222.048,179.245c0,0,3.159-1.753,6.224-4.376c3.065-2.624,3.617-9.734-1.137-12.128
			c-4.754-2.394-4.387-2.257-7.987-2.132c-3.6,0.126-15.859,3.304-10.198,10.006C214.612,177.318,222.048,179.245,222.048,179.245z"
			/>
	</g>
	<g>
		<g>
			<g>
				<polygon style="opacity:0.29;fill:#2E3192;" points="333.581,324.225 107.854,310.371 36.194,363.449 275.47,379.132 				"/>
				<polygon style="fill:#DB8F14;" points="279.326,374.806 100.447,363.556 156.308,310.786 337.319,319.181 337.131,322.158 				
					"/>
				<path style="fill:#FDB800;" d="M279.326,374.806l-178.879-11.25l0.44-38.037l180.824,11.372l-2.029,13.193
					C278.423,358.269,278.303,366.589,279.326,374.806L279.326,374.806z"/>
				<path style="fill:#DB8F14;" d="M272.49,374.346l-14.598-0.918l2.226-37.925l14.756,0.928l-0.932,13.262
					C273.365,357.921,272.876,366.217,272.49,374.346L272.49,374.346z"/>
				<path style="fill:#DB8F14;" d="M250.821,372.918L236.224,372l2.226-37.925l14.756,0.928l-0.932,13.261
					C251.696,356.492,251.207,364.789,250.821,372.918L250.821,372.918z"/>
				<polygon style="fill:#FDD821;" points="339.821,281.985 172.546,272.441 100.887,325.519 281.71,336.892 				"/>
				<path style="fill:#DEDEDE;" d="M336.069,298.442l-14.367,11.684l14.626-14.488c0.532-3.463,1.556-8.007,2.651-10.615
					l-57.507,55.666l-1.87,29.742l55.972-51.95C335.573,318.481,335.044,308.393,336.069,298.442z"/>
				<polygon style="fill:#FDB800;" points="339.821,281.985 339.535,286.522 281.472,340.689 281.71,336.892 				"/>
				<polygon style="fill:#FDB800;" points="337.131,322.158 337.319,319.181 279.601,370.431 279.326,374.806 				"/>
				<path style="fill:#BDBDBD;" d="M281.472,340.689l-1.87,29.742C279.601,370.431,283.628,357.188,281.472,340.689z"/>
				<polygon style="fill:#FFFFFF;" points="336.328,295.638 336.069,298.442 304.599,324.16 				"/>
			</g>
			<ellipse style="fill:#DB8F14;" cx="128.815" cy="346.853" rx="17.145" ry="10.16"/>
			<path style="opacity:0.07;fill:#2E3192;" d="M103.024,323.848l180.096,11.146l6.187-5.839
				C226.717,331.309,133.54,320.67,111,317.948L103.024,323.848z"/>
		</g>
		<polygon style="fill:#D45C35;" points="307.49,279.727 316.808,303.781 340.385,281.81 		"/>
		<polygon style="fill:#962F26;" points="340.385,281.81 340.385,285.833 316.808,307.858 316.808,303.781 		"/>
	</g>
	<polygon style="opacity:0.25;fill:#2E3192;" points="100.447,363.556 234.404,371.981 250.311,335.106 248.796,334.822 
		100.887,325.519 	"/>
	<g>
		<g>
			<polygon style="fill:#C98585;" points="234.713,349.393 55.833,338.144 111.694,285.373 292.705,293.768 292.518,296.745 			"/>
			<path style="fill:#E3A1A1;" d="M234.713,349.393l-178.879-11.25l0.44-38.037l180.824,11.372l-2.029,13.192
				C233.81,332.856,233.69,341.176,234.713,349.393L234.713,349.393z"/>
			<polygon style="fill:#EDCACA;" points="295.207,256.573 127.933,247.029 56.273,300.107 237.097,311.479 			"/>
			<path style="fill:#DEDEDE;" d="M291.456,273.029l-14.367,11.685l14.626-14.489c0.532-3.463,1.556-8.007,2.651-10.615
				l-57.507,55.666l-1.87,29.742l55.972-51.95C290.96,293.069,290.431,282.98,291.456,273.029z"/>
			<polygon style="fill:#E3A1A1;" points="295.207,256.573 294.922,261.109 236.858,315.276 237.097,311.479 			"/>
			<polygon style="fill:#E3A1A1;" points="292.518,296.745 292.705,293.768 234.988,345.019 234.713,349.393 			"/>
			<path style="fill:#BDBDBD;" d="M236.858,315.276l-1.87,29.742C234.988,345.019,239.014,331.775,236.858,315.276z"/>
			<g>
				<polygon style="fill:#E3A1A1;" points="263.267,265.244 132.112,257.844 93.096,288.129 227.549,296.199 				"/>
				<polygon style="opacity:0.15;fill:#2E3192;" points="133.592,260.92 260.068,268.012 263.267,265.244 132.112,257.844 
					93.096,288.129 98.078,288.486 				"/>
			</g>
			<polygon style="fill:#FFFFFF;" points="291.715,270.225 291.456,273.029 259.985,298.747 			"/>
		</g>
		<ellipse style="fill:#C98585;" cx="84.202" cy="321.44" rx="17.145" ry="10.16"/>
		<path style="opacity:0.07;fill:#2E3192;" d="M58.411,298.435l180.096,11.146l6.187-5.839
			c-62.591,2.154-155.767-8.485-178.307-11.208L58.411,298.435z"/>
	</g>
	<g>
		<polygon style="fill:#D45C35;" points="108.171,289.566 261.465,316.188 354.813,259.707 290.765,253.567 248.722,278.19 
			145.692,264.923 210.751,237.317 191.111,233.328 103.173,268.193 		"/>
		<polygon style="fill:#D45C35;" points="248.722,278.19 216.006,273.977 109.26,287.288 263.003,314.647 354.813,259.707 
			300.241,255.492 279.831,259.971 		"/>
		<polygon style="fill:#962F26;" points="261.465,316.188 261.465,317.599 108.463,290.985 108.177,289.566 		"/>
		<polygon style="fill:#962F26;" points="261.465,317.599 354.781,261.472 354.781,259.707 261.465,316.188 		"/>
		<polygon style="fill:#DEDEDE;" points="111.797,287.569 260.807,312.316 347.399,260.745 214.804,223.271 		"/>
		<path style="fill:#FFFFFF;" d="M111.797,287.569l146.89,21.481l86.385-50.774l0,0c-0.906-1.74-1.658-3.556-2.247-5.427
			l-0.135-0.428L111.797,287.569z"/>
		<polygon style="fill:#962F26;" points="115.105,285.62 109.94,266.853 104.96,269.283 109.393,288.872 111.797,287.569 		"/>
		<polygon style="fill:#DEDEDE;" points="257.626,306.482 111.797,287.569 107.515,267.696 261.112,287.858 		"/>
		<path style="fill:#BDBDBD;" d="M107.515,267.696c0,0,10.572,8.717,4.282,19.873L107.515,267.696z"/>
		<path style="fill:#BDBDBD;" d="M258.687,309.049c0,0,0.707,2.489,2.121,3.267l86.591-51.572l-2.327-2.47L258.687,309.049z"/>
		<path style="fill:#BDBDBD;" d="M344.344,256.796c0,0-0.601-1.428-0.596-1.361l-40.882,22.111l40.072-24.35
			c-2.368-6.311,0.499-9.966,0.499-9.966l-84.016,46.15c0,0-7.096,9.091-1.795,17.103h0"/>
		<path style="fill:#F4804D;" d="M261.465,290.985l84.224-49.385l-131.324-18.311l-111.192,44.904L261.465,290.985z"/>
		<polygon style="fill:#D45C35;" points="103.173,268.193 103.645,270.024 261.465,292.76 261.465,290.985 		"/>
		<polygon style="fill:#962F26;" points="261.465,292.76 261.465,290.985 345.689,241.601 345.689,243.314 		"/>
	</g>
	<g>
		<g>
			<g>
				<polygon style="fill:#2E3192;" points="151.77,303.141 330.232,286.541 272.817,235.467 92.138,249.276 92.414,252.246 				"/>
				<path style="fill:#3878A6;" d="M151.77,303.141l178.462-16.599l-1.579-38.007l-180.402,16.78l2.423,13.126
					C152.178,286.584,152.546,294.896,151.77,303.141L151.77,303.141z"/>
				<polygon style="fill:#479ED1;" points="88.524,212.172 255.438,197.625 328.654,248.535 148.252,265.314 				"/>
				<path style="fill:#DEDEDE;" d="M92.766,228.509l14.71,11.249l-15.053-14.044c-0.636-3.445-1.795-7.957-2.967-10.531
					l59.148,53.92l2.76,29.673l-57.502-50.251C93.862,248.525,94.089,238.425,92.766,228.509z"/>
				<polygon style="fill:#3878A6;" points="88.524,212.172 88.945,216.698 148.604,269.103 148.252,265.314 				"/>
				<polygon style="fill:#3878A6;" points="92.414,252.246 92.138,249.276 151.364,298.776 151.77,303.141 				"/>
				<path style="fill:#BDBDBD;" d="M148.604,269.103l2.76,29.673C151.364,298.776,146.943,285.659,148.604,269.103z"/>
				<polygon style="fill:#FFFFFF;" points="92.424,225.714 92.766,228.509 124.993,253.273 				"/>
			</g>
			<path style="opacity:0.07;fill:#2E3192;" d="M326.467,246.928L146.785,263.46l-6.359-5.651
				c62.627,0.279,155.443-13.144,177.892-16.54L326.467,246.928z"/>
		</g>
		<polygon style="fill:#3878A6;" points="118.503,220.182 149.599,216.8 185.503,242.105 150.279,246.27 		"/>
		<polygon style="opacity:0.15;fill:#2E3192;" points="148.411,219.593 121.368,222.534 118.503,220.182 149.599,216.8 
			185.503,242.105 181.092,242.627 		"/>
	</g>
	<g>
		<polygon style="opacity:0.29;fill:#2E3192;" points="257.133,373.491 279.934,366.531 299.608,328.954 323.864,377.742 		"/>
		<polygon style="fill:#D45C35;" points="299.608,328.954 366.605,302.664 390.861,351.451 323.864,377.742 		"/>
		<polygon style="fill:#011739;" points="299.608,328.954 366.605,302.664 348.409,345.384 		"/>
		<polygon style="fill:#011739;" points="299.608,328.954 366.605,302.664 317.576,284.964 		"/>
		<polygon style="fill:#DEDEDE;" points="358.129,322.563 322.34,336.608 348.409,345.384 		"/>
	</g>
	<g>
		<g>
			<path style="opacity:0.43;fill:#2E3192;" d="M185.094,229.419c11.047,0,20.65-0.836,25.551-2.066
				c-1.934-1.879-12.636-3.317-25.551-3.317c-12.915,0-23.617,1.438-25.551,3.317C164.443,228.583,174.047,229.419,185.094,229.419z
				"/>
			<path style="fill:#011739;" d="M207.494,178.372c0,2.589-10.029,4.688-22.4,4.688c-12.371,0-22.4-2.099-22.4-4.688
				c0-2.589,10.029-4.688,22.4-4.688C197.465,173.684,207.494,175.783,207.494,178.372z"/>
			<ellipse style="fill:#011739;" cx="184.92" cy="201.12" rx="29.173" ry="25.352"/>
			<path style="fill:#011739;" d="M207.494,178.372c0,2.589-10.029,4.688-22.4,4.688c-12.371,0-22.4-2.099-22.4-4.688
				c0-2.589,10.029-4.688,22.4-4.688C197.465,173.684,207.494,175.783,207.494,178.372z"/>
			<path style="fill:#E3A1A1;" d="M185.094,180.977c7.146,0,13.358-0.836,16.528-2.066c-1.251-1.879-8.174-3.317-16.528-3.317
				c-8.354,0-15.277,1.438-16.528,3.317C171.735,180.141,177.948,180.977,185.094,180.977z"/>
			<path style="fill:#0C397D;" d="M205.699,190.879c1.397,1.933,1.549,4.208,0.34,5.082c-1.209,0.874-3.322,0.016-4.719-1.917
				c-1.397-1.933-1.549-4.208-0.34-5.082C202.189,188.088,204.302,188.946,205.699,190.879z"/>
		</g>
		<path style="fill:#EDCACA;" d="M110.4,93.044c0,0-3.79,10.763-10.619,15.83C108.084,109.083,114.832,105.233,110.4,93.044z"/>
		<path style="fill:#C98585;" d="M85.2,108.884c5.767,3.932,10.67,2.892,14.581-0.009c-6.864-0.173-14.79-3.118-18.345-6.424
			C81.695,105.054,82.865,107.291,85.2,108.884z"/>
		<path style="fill:#EDCACA;" d="M183.48,109.604l1.215-9.859C172.52,74.372,134.608,53.455,117.6,54.164
			c-17.28,0.72-42.48,38.88-37.44,46.8c0.317,0.498,0.749,0.996,1.276,1.487c-1.497-15.054,27.7-42.458,41.204-29.567
			c3.546,3.385,8.574,8.866,14.246,15.476l10.498,3.795l-6.015,1.501c19.102,22.879,42.674,54.875,43.191,64.189
			c0,0,10.859-27.486,2.477-52.344L183.48,109.604z"/>
		<g>
			<path style="fill:#242424;" d="M185.094,180.977c-0.001-5.358-0.151-10.713-0.443-16.059c-0.278-5.346-0.676-10.685-1.27-16.001
				c-0.598-5.315-1.306-10.618-2.318-15.864c-0.998-5.246-2.252-10.449-3.995-15.481c-0.841-2.526-1.833-4.999-2.99-7.386
				c-1.123-2.414-2.529-4.652-4.11-6.788c-3.143-4.318-6.648-8.36-10.256-12.299c-3.631-3.92-7.477-7.644-11.502-11.167
				c-4.01-3.54-8.194-6.893-12.61-9.928c9.031,5.784,17.223,12.838,24.671,20.568c3.716,3.876,7.223,7.964,10.426,12.283
				c1.617,2.155,3.087,4.469,4.238,6.911c1.191,2.426,2.215,4.93,3.076,7.483c1.736,5.106,2.969,10.355,3.943,15.637
				c0.973,5.284,1.707,10.609,2.187,15.954C185.136,159.525,185.479,170.266,185.094,180.977z"/>
		</g>
		<path style="opacity:0.07;fill:#2E3192;" d="M117.6,54.164c-5.052,0.21-10.779,3.633-16.231,8.552
			c1.629,3.436,0.683,7.725-1.009,11.605c7.816-5.054,16.369-6.909,22.137-1.565c-2.702-7.866,0.761-14.385,3.191-17.69
			C122.681,54.391,119.938,54.066,117.6,54.164z"/>
		<path style="fill:#FFFFFF;" d="M170.375,84.369c3.876,3.876,6.277,7.759,5.364,8.673c-0.914,0.914-4.797-1.488-8.673-5.364
			c-3.876-3.876-6.277-7.759-5.364-8.673C162.615,78.092,166.498,80.493,170.375,84.369z"/>
		<path style="fill:#EDCACA;" d="M165.78,150.524c4.02,0.96,16.26,1.32,18.06,3.36c0,0-6.48-16.74-16.56-15.12
			c0,0,0.18,9,12.06,12.24c0,0-23.626-6.621-16.968,2.45C162.59,151.591,163.699,150.027,165.78,150.524z"/>
		<path style="fill:#C98585;" d="M162.42,153.524c-0.018-0.025-0.03-0.046-0.048-0.07c-0.203,1.736,0.365,3.731,1.668,4.57
			c0.961,0.619,1.415,0.059,1.608-0.908C165.025,156.727,164.013,155.662,162.42,153.524z"/>
		<path style="fill:#EDCACA;" d="M165.12,158.144c3.06-2.1,0.36-5.88,0.36-5.88S165.469,156.394,165.12,158.144z"/>
		<path style="fill:#C98585;" d="M203.605,146.276c0.005-0.03,0.006-0.054,0.011-0.084c0.963,1.458,1.354,3.496,0.569,4.831
			c-0.579,0.986-1.237,0.69-1.845-0.086C202.721,150.309,203.145,148.903,203.605,146.276z"/>
		<path style="fill:#EDCACA;" d="M203.275,151.617c-3.678-0.497-2.969-5.088-2.969-5.088S202.175,150.212,203.275,151.617z"/>
		<path style="fill:#EDCACA;" d="M199.254,145.111c-3.157,2.668-13.923,8.501-14.612,11.133c0,0,4.589-32.747,14.318-35.84
			c0,0-2.449,22.999-11.597,31.242c0,0,15.737-16.842,16.937-4.092C203.266,145.988,200.888,143.73,199.254,145.111z"/>
		<path style="fill:#C98585;" d="M191.649,129.361c-0.886,2-1.686,4.187-2.4,6.43c-0.259,0.963-0.557,1.962-0.894,2.98
			c-0.984,3.475-1.771,6.922-2.36,9.825C188.543,145.316,188.88,143.084,191.649,129.361z"/>
		<g>
			<path style="fill:#EDCACA;" d="M187.363,151.646c1.44-3.693,3.217-7.241,5.21-10.674c2.011-3.424,4.223-6.754,7.05-9.705
				c0.712-0.731,1.495-1.416,2.355-2.039c0.866-0.606,1.82-1.204,3.043-1.414c2.415-0.293,4.665,0.83,5.997,2.59
				c1.334,1.731,1.943,3.955,1.537,6.077c-0.228,1.042-0.768,2.081-1.663,2.689c-0.872,0.643-1.96,0.765-2.931,0.675
				c0.976-0.118,1.94-0.444,2.578-1.103c0.658-0.633,0.98-1.519,1.045-2.409c0.135-1.796-0.602-3.631-1.764-4.928
				c-0.594-0.643-1.308-1.144-2.08-1.455c-0.393-0.138-0.792-0.263-1.209-0.295c-0.419-0.062-0.844-0.032-1.171,0.022
				c-0.729,0.148-1.516,0.594-2.236,1.134c-0.725,0.544-1.422,1.171-2.076,1.859c-1.346,1.335-2.555,2.855-3.734,4.393
				c-1.194,1.532-2.303,3.139-3.427,4.742C191.672,145.035,189.536,148.337,187.363,151.646z"/>
		</g>
		<g>
			<path style="fill:#EDCACA;" d="M180.96,149.204c-2.284-3.332-4.554-6.641-6.926-9.854c-1.204-1.593-2.394-3.189-3.678-4.697
				c-1.268-1.517-2.582-2.993-4.022-4.287c-1.402-1.314-2.986-2.484-4.629-2.951c-0.815-0.215-1.599-0.172-2.297,0.181l-0.268,0.123
				l-0.242,0.19c-0.163,0.14-0.324,0.223-0.496,0.405c-0.351,0.329-0.684,0.669-0.993,1.022c-0.614,0.695-1.122,1.501-1.196,2.211
				c-0.104,0.68,0.497,1.303,1.345,1.705c1.709,0.792,3.768,1.028,5.762,1.192c-1.001,0.146-2.017,0.214-3.041,0.188
				c-1.024-0.024-2.056-0.141-3.094-0.471c-0.513-0.183-1.034-0.434-1.49-0.863c-0.46-0.416-0.79-1.099-0.793-1.76
				c0.012-1.328,0.673-2.31,1.285-3.172c0.322-0.431,0.662-0.838,1.017-1.226c0.159-0.198,0.426-0.392,0.639-0.585l0.343-0.285
				l0.402-0.223c1.067-0.62,2.417-0.735,3.554-0.474c2.271,0.59,3.991,1.938,5.539,3.317c3.044,2.855,5.46,6.16,7.635,9.582
				C177.48,141.901,179.4,145.471,180.96,149.204z"/>
		</g>
	</g>
	<g>
		<g>
			<polygon style="fill:#D45C35;" points="396.859,385.052 455.106,409.802 416.609,448.357 358.362,423.608 			"/>
			<g>
				<g>
					<path style="fill:#E3A1A1;" d="M427.239,404.279c-0.363,0.293-1.001,0.326-1.425,0.075l-1.036,0.834
						c0.423,0.251,0.472,0.692,0.109,0.984c-0.363,0.293-1.001,0.326-1.425,0.075l-1.036,0.834c0.423,0.251,0.472,0.692,0.109,0.984
						c-0.363,0.293-1.001,0.326-1.424,0.075l-1.036,0.834c0.423,0.251,0.472,0.692,0.109,0.984
						c-0.363,0.293-1.001,0.326-1.425,0.075l-1.036,0.834c0.423,0.251,0.472,0.692,0.109,0.984
						c-0.363,0.292-1.001,0.326-1.425,0.075l-1.036,0.834c0.423,0.251,0.472,0.692,0.109,0.984
						c-0.363,0.292-1.001,0.326-1.425,0.075l-1.036,0.834c0.423,0.251,0.472,0.692,0.109,0.984
						c-0.363,0.293-1.001,0.326-1.425,0.075l-1.036,0.834c0.423,0.251,0.472,0.692,0.109,0.984
						c-0.363,0.293-1.001,0.326-1.425,0.075l-1.401,1.128l1.822,1.08c0.363-0.293,1.001-0.326,1.425-0.075
						c0.423,0.251,0.472,0.692,0.109,0.984l1.207,0.716c0.363-0.293,1.001-0.326,1.425-0.075c0.423,0.251,0.472,0.692,0.109,0.984
						l1.207,0.716c0.363-0.292,1.001-0.326,1.424-0.075c0.423,0.251,0.472,0.692,0.109,0.984l1.207,0.716
						c0.363-0.292,1.001-0.326,1.425-0.075c0.423,0.251,0.472,0.692,0.109,0.984l1.207,0.716c0.363-0.293,1.001-0.326,1.424-0.075
						c0.423,0.251,0.472,0.692,0.109,0.984l1.207,0.716c0.363-0.293,1.001-0.326,1.425-0.075c0.423,0.251,0.472,0.692,0.109,0.984
						l1.314,0.779l1.401-1.128c-0.423-0.251-0.472-0.692-0.109-0.984c0.363-0.293,1.001-0.326,1.424-0.075l1.036-0.834
						c-0.423-0.251-0.472-0.692-0.109-0.984c0.363-0.293,1.001-0.326,1.425-0.075l1.036-0.834c-0.423-0.251-0.472-0.692-0.109-0.984
						c0.363-0.292,1.001-0.326,1.425-0.075l1.036-0.834c-0.423-0.251-0.472-0.692-0.109-0.984c0.363-0.292,1.001-0.326,1.425-0.075
						l1.036-0.834c-0.423-0.251-0.472-0.692-0.109-0.984c0.363-0.293,1.001-0.326,1.425-0.075l1.036-0.834
						c-0.423-0.251-0.472-0.692-0.109-0.984s1.001-0.326,1.424-0.075l1.036-0.834c-0.423-0.251-0.472-0.692-0.109-0.984
						c0.363-0.293,1.001-0.326,1.425-0.075l1.036-0.834c-0.423-0.251-0.472-0.692-0.109-0.984c0.363-0.293,1.001-0.326,1.424-0.075
						l1.545-1.244l-1.315-0.779c-0.363,0.293-1.001,0.326-1.424,0.075c-0.423-0.251-0.472-0.692-0.109-0.984l-1.207-0.716
						c-0.363,0.292-1.001,0.326-1.425,0.075c-0.423-0.251-0.472-0.692-0.109-0.984l-1.207-0.716
						c-0.363,0.292-1.001,0.326-1.425,0.075c-0.423-0.251-0.472-0.692-0.109-0.984l-1.207-0.716
						c-0.363,0.293-1.001,0.326-1.425,0.075s-0.472-0.692-0.109-0.984l-1.207-0.716c-0.363,0.293-1.001,0.326-1.424,0.075
						c-0.423-0.251-0.472-0.692-0.109-0.984l-1.207-0.716c-0.363,0.292-1.001,0.326-1.425,0.075
						c-0.423-0.251-0.472-0.692-0.109-0.984l-1.822-1.08l-1.545,1.244C427.554,403.545,427.603,403.986,427.239,404.279z"/>
				</g>
				<polygon style="fill:#FFFFFF;" points="425.967,426.93 411.862,418.567 429.031,404.747 443.136,413.109 				"/>
			</g>
		</g>
		<polygon style="opacity:0.25;fill:#2E3192;" points="358.362,423.608 392.044,437.919 418.173,425.091 388.032,393.892 		"/>
		<g>
			<polygon style="fill:#E3A1A1;" points="371.704,379.315 416.831,423.686 366.884,445.454 321.757,401.083 			"/>
			<polygon style="fill:#EDCACA;" points="371.704,379.315 416.831,423.686 359.113,410.741 			"/>
		</g>
	</g>
	<ellipse style="opacity:0.29;fill:#2E3192;" cx="287.07" cy="422.25" rx="14.58" ry="2.79"/>
	<g>
		<path style="fill:#F4804D;" d="M305.06,413.752c-2.529,1.149-3.361,2.921-5.82,4.44c-4.247,2.625-7.148,5.2-11.809,6.746
			c-1.811,0.601-3.181,0.439-4.84-0.569c-4.225-2.567-9.427-8.711-9.427-8.711c-0.229-2.185,5.518-9.118,8.889-10.65
			c3.371-1.532,8.007-0.842,12.068,1.38C298.182,408.611,305.06,413.752,305.06,413.752"/>
		<path style="fill:#D45C35;" d="M273.164,415.658c0,0,8.493,5.551,12.304,5.633c3.811,0.082,9.571-5.271,13.003-5.67
			c3.432-0.399,6.588-1.87,6.588-1.87S282.796,439.662,273.164,415.658z"/>
	</g>
	<g>
		<ellipse style="opacity:0.29;fill:#2E3192;" cx="330.878" cy="442.99" rx="11.062" ry="2.79"/>
		<path style="fill:#F4804D;" d="M320.535,440.206c2.651,1.321,5.356,2.665,8.359,3.669c6.484,2.167,15.336,1.386,13.254-2.47
			c-1.186-2.198-5.469-4.294-8.804-5.604c-1.309-0.514-2.29-0.664-3.462-0.529c-3.016,0.348-5.841,1.137-7.228,2.632
			c-2.163,2.33-0.573,2.014-2.163,2.33"/>
	</g>
	<g>
		<path style="opacity:0.29;fill:#2E3192;" d="M361.624,399.793c0.394,1.49-2.364,3.511-6.161,4.515
			c-3.796,1.004-7.193,0.61-7.587-0.88c-0.394-1.49,2.364-3.511,6.161-4.514C357.833,397.909,361.23,398.303,361.624,399.793z"/>
		<path style="fill:#F4804D;" d="M349.62,403.944c0,0-0.952-2.585-1.416-5.626c-0.464-3.041,2.758-7.422,6.695-6.437
			c3.937,0.985,3.657,0.881,5.673,2.746c2.016,1.865,2.682,7.426-3.925,8.478C350.042,404.155,349.62,403.944,349.62,403.944z"/>
	</g>
	<g>
		<path style="opacity:0.29;fill:#2E3192;" d="M161.261,420.36c-14.069,0-27.198,0.285-38.33,0.776
			c-3.224-0.5-6.717-0.776-10.371-0.776c-8.386,0-15.941,1.444-21.27,3.754c-1.78,0.445-2.757,0.914-2.777,1.4
			c-3.259,1.924-5.174,4.257-5.174,6.773c0,6.587,13.082,11.927,29.22,11.927c16.138,0,29.22-5.34,29.22-11.927
			c0-0.607-0.113-1.203-0.327-1.786c6.3,0.126,12.938,0.195,19.807,0.195c40.18,0,72.753-2.314,72.753-5.168
			C234.013,422.674,201.441,420.36,161.261,420.36z"/>
		<g>
			<g>
				<g>
					<path style="fill:#011739;" d="M123.302,415.615c2.291-0.613,4.604-1.121,6.929-1.57c2.323-0.463,4.655-0.878,6.992-1.281
						c4.686-0.703,9.395-1.262,14.118-1.718c9.45-0.9,18.974-1.044,28.48-0.582c4.749,0.306,9.497,0.705,14.217,1.374
						c4.709,0.731,9.417,1.524,14.029,2.76c4.609,1.23,9.173,2.631,13.605,4.383c4.38,1.881,8.685,3.935,12.674,6.499l-0.096,0.176
						c-4.163-2.213-8.497-4.087-12.931-5.682c-4.447-1.566-9.001-2.807-13.593-3.862c-9.208-2.038-18.6-3.158-28.013-3.652
						c-9.415-0.511-18.861-0.432-28.275,0.141c-9.411,0.589-18.811,1.576-28.099,3.21L123.302,415.615z"/>
				</g>
				<g>
					<g>
						<path style="fill:#011739;" d="M121.991,410.41l19.883,2.755c0,0-12.196,2.867-18.857,5.941"/>
						<path style="fill:#F4804D;" d="M123.017,419.105c-1.121,1.007-2.835,4.119-3.582,4.745
							c-4.386,3.673-13.306,28.427-21.133,24.82c-7.032-3.241-15.376-12.991-17.653-16.274c-2.277-3.283-5.297-10.104-2.605-14.402
							c2.692-4.298,6.096-12.828,6.096-12.828l37.851,5.244C121.991,410.41,127.139,415.404,123.017,419.105z"/>
						<path style="fill:#D45C35;" d="M109.567,408.689l-25.427-3.523c0,0-1.897,4.753-3.979,8.951
							c-0.326,0.657,2.625,5.585,2.625,5.585l31.423,2.069C113.273,415.971,111.634,411.738,109.567,408.689z"/>
						<path style="fill:#F4804D;" d="M84.131,415.798c0,0-2.799-0.4-3.597-3.628c-0.798-3.229-2.863-9.451,4.295-11.984
							c7.158-2.533,26.79-9.407,31.1,17.321L84.131,415.798z"/>
						<path style="fill:#D45C35;" d="M113.212,426.696c0,0-1.33,10.288-9.208,12.691c-7.879,2.403-21.573-8.901-23.151-15.461
							c-1.578-6.56,2.457-15.932,11.955-18.468c9.498-2.535,18.058,3.054,20.272,9.623
							C115.295,421.649,113.212,426.696,113.212,426.696z"/>
						<path style="fill:#F4804D;" d="M90.474,412.479l2.766,5.286c0,0-1.694,0.544-5.366,7.324c-2.387,4.407,0.044,5.215,2.039,5.24
							c0.958,0.012,1.896-0.214,2.804-0.519c4.132-1.391,16.528-2.322,21.039-2.591c0.084-0.429,1.539-5.57-0.675-12.139
							c-0.875-2.596-2.744-5.036-5.266-6.885C101.822,411.485,90.474,412.479,90.474,412.479z"/>
						<path style="fill:#962F26;" d="M86.796,421.927c-0.162,0.377-0.304,0.762-0.422,1.159c-0.523,1.765-0.856,4.268,0.12,5.925
							c0.866,1.472,2.704,1.348,4.067,0.812c1.126-0.443,2.241-0.963,3.166-1.744c3-2.532,1.756-6.481,0.231-9.471
							c-0.577-1.131-1.232-2.248-1.995-3.266c-0.078-0.105-0.608,0.249-0.657,0.282c-0.867,0.588-1.535,1.511-2.132,2.352
							C88.285,419.228,87.403,420.515,86.796,421.927z"/>
						<path style="fill:#D45C35;" d="M105.79,438.327c0,0,0.016,14.733,6.694,12.047c5.703-2.294,12.673-9.411,5.211-28.574
							c-1.481-3.803,5.906-13.398,1.097-24.171c-2.267-5.079-9.314-3.933-15.596-6.24c-6.282-2.306-6.061,6.024-6.061,6.024
							s10.712-0.136,16.052,11.199C118.058,418.953,114.288,435.702,105.79,438.327z"/>
						<g>
							<path style="fill:#D45C35;" d="M90.237,425.061c0.546-0.806,1.058-1.619,1.929-2.246c0.118-0.073,0.255-0.137,0.43-0.162
								c0.171-0.026,0.408,0.019,0.56,0.182c0.269,0.31,0.273,0.603,0.304,0.875c0.022,0.545-0.084,1.06-0.252,1.554
								c-0.322,0.979-1.035,1.907-1.975,2.426c-0.463,0.266-0.966,0.459-1.523,0.541c-0.524,0.075-1.258,0.069-1.788-0.526
								c-0.461-0.619-0.399-1.243-0.351-1.751c0.055-0.536,0.191-1.035,0.363-1.513c0.36-0.948,0.824-1.831,1.377-2.65
								c1.098-1.618,2.45-3.154,4.202-4.036c-0.766,0.596-1.41,1.301-1.978,2.068c-0.58,0.754-1.095,1.554-1.559,2.376
								c-0.45,0.828-0.871,1.673-1.146,2.548c-0.135,0.435-0.254,0.874-0.286,1.3c-0.057,0.429-0.004,0.864,0.149,1.023
								c0.117,0.165,0.483,0.257,0.887,0.194c0.4-0.047,0.815-0.204,1.197-0.4c0.784-0.382,1.337-1.065,1.707-1.88
								c0.182-0.404,0.292-0.846,0.325-1.266c0.016-0.199-0.02-0.43-0.07-0.492c-0.002-0.042-0.148-0.073-0.347,0.023
								C91.599,423.624,90.933,424.409,90.237,425.061z"/>
						</g>
					</g>
					<path style="fill:#011739;" d="M126.281,417.284c0,0-4.169,10.031,2.313,16.649c6.482,6.618,11.663,5.223,11.663,5.223
						s5.463-11.855-2.216-15.546C130.361,419.921,126.281,417.284,126.281,417.284z"/>
					<path style="fill:#011739;" d="M125.319,414.118c0,0-4.9-9.066-2.505-16.889c2.395-7.823,14.727-6.679,14.727-6.679
						s-4.846,0.339-4.121,9.599S125.319,414.118,125.319,414.118z"/>
				</g>
			</g>
			<polygon style="fill:#011739;" points="146.684,412.806 150.262,419.432 151.719,412.276 			"/>
			<polygon style="fill:#011739;" points="164.163,410.686 161.02,406.842 159.131,410.362 			"/>
			<polygon style="fill:#011739;" points="207.099,414.861 206.383,410.222 202.067,414.536 			"/>
			<polygon style="fill:#011739;" points="166.561,412.011 168.615,416.186 171.597,411.481 			"/>
			<polygon style="fill:#011739;" points="192.986,412.276 189.843,408.432 187.953,411.952 			"/>
		</g>
	</g>
	<g>
		<path style="fill:#EDCACA;" d="M304.62,204.361c0,0,10.351-3.45,13.111-11.731l9.661,8.971
			C327.392,201.601,317.731,212.642,304.62,204.361z"/>
		<path style="fill:#EDCACA;" d="M311.378,193.41c-8.622-15.103-4.281-35.161,5.374-47.467
			c20.575-26.227,72.017-25.838,85.978-1.791c10.07,17.345,0.256,46.339-19.703,60.005
			C360.222,219.771,323.991,215.502,311.378,193.41z"/>
		<g>
			<path style="fill:#FFFFFF;" d="M351.976,168.071c0.001-0.002,4.856-14.205,12.19-10.735c7.335,3.47,3.325,11.654-12.105,27.484
				c-4.07-2.796-8.17-5.582-11.888-8.843c-2.847-2.496-8.46-7.075-8.322-11.248c0.107-3.237,4.208-7.069,7.341-7.466
				c2.04-0.258,3.931,0.759,5.497,1.964c1.313,1.01,2.45,2.252,3.503,3.523C348.795,163.477,352.253,167.258,351.976,168.071z"/>
			<path style="fill:#FFFFFF;" d="M375.304,179.577c0-0.001-1.192-7.533,2.926-7.717c4.118-0.183,4.261,4.444,1.091,15.219
				c-2.492-0.289-4.995-0.567-7.44-1.148c-1.871-0.445-5.48-1.169-6.409-3.076c-0.721-1.479,0.211-4.175,1.524-5.097
				c0.855-0.601,1.946-0.593,2.935-0.424c0.83,0.142,1.635,0.43,2.41,0.75C372.784,178.27,375.235,179.147,375.304,179.577z"/>
		</g>
	</g>
</g>
</svg>
