<?xml version="1.0" encoding="utf-8"?>
<!-- Generator: Adobe Illustrator 27.5.0, SVG Export Plug-In . SVG Version: 6.00 Build 0)  -->
<svg version="1.1" id="Layer_1" xmlns="http://www.w3.org/2000/svg" xmlns:xlink="http://www.w3.org/1999/xlink" x="0px" y="0px"
	 viewBox="0 0 2407.333 2000" style="enable-background:new 0 0 2407.333 2000;" xml:space="preserve">
<rect style="fill:#FFFFFF;" width="2407.333" height="2000"/>
<g>
	<g style="opacity:0.5;">
		<g>
			<g>
				<g>
					<path style="fill:#C5F1FF;" d="M1888.799,1584.679c455.669,0,503.954-1035.08,139.933-1262.842
						c-235.822-147.549-400.831-74.489-685.124-85.236C1050.656,225.527,1067.77,68.967,697.805,70.831
						C346.41,72.602,145.026,473.988,122.808,681.339c-35.041,327.017-5.622,903.34,285.848,903.34H1888.799z"/>
				</g>
			</g>
		</g>
	</g>
	<g>
		<g>
			<g>
				<g>
					<g>
						<path style="fill:#184655;" d="M1723.748,1148.493c0,0-20.325-35.103,4.657-53.562c0,0-13.657-6.524-18.905-5.889
							c-5.248,0.635-33.347,24.809-34.528,50.886C1673.792,1166.005,1723.748,1148.493,1723.748,1148.493z"/>
					</g>
				</g>
			</g>
			<g>
				<g>
					<g>
						<path style="fill:#EA684E;" d="M1665.045,1139.577c0,0-4.48-14.098-26.88-10.894c-22.4,3.204-80.225,16.846-89.046,73.485
							c-8.821,56.639,18.319,104.679,45.802,97.595C1622.403,1292.679,1665.045,1139.577,1665.045,1139.577z"/>
					</g>
				</g>
			</g>
			<g>
				<g>
					<g>
						<path style="fill:#EA684E;" d="M1716.86,1138.514c0,0,58.706-31.01,109.492,23.075
							c50.785,54.086,12.991,120.365-14.272,120.924C1784.816,1283.074,1716.86,1138.514,1716.86,1138.514z"/>
					</g>
				</g>
			</g>
			<g>
				<g>
					<g>
						<path style="fill:#E24C24;" d="M1717.024,1142.844c0,0,34.629-27.752,85.803,16.413
							c51.174,44.165,26.877,105.64,14.501,118.427c-12.375,12.786-57.26,43.144-76.802,37.068
							C1720.983,1308.677,1717.024,1142.844,1717.024,1142.844z"/>
					</g>
				</g>
			</g>
			<g>
				<g>
					<g>
						<path style="fill:#E24C24;" d="M1689.975,1139.387c0,0-12.474-9.15-32.352-7.937c-10.903,0.666-24.035,4.45-38.557,14.573
							c-40.997,28.578-76.17,105.269-24.145,153.74c52.024,48.472,106.315-8.404,106.315-8.404L1689.975,1139.387z"/>
					</g>
				</g>
			</g>
			<g>
				<g>
					<g>
						<path style="fill:#EA684E;" d="M1695.508,1136.73c0,0,30.182-11.507,50.901,13.83
							c20.719,25.337,78.372,159.703-34.251,170.788c0,0-52.957,10.388-65.258-18.318
							C1634.598,1274.324,1651.27,1153.028,1695.508,1136.73z"/>
					</g>
				</g>
			</g>
		</g>
		<g>
			<g>
				<g>
					<path d="M1684.563,1324.346c-8.555-0.537-17.704-2.255-25.261-6.35c-23.626,6.648-45.408,1.006-64.766-16.767
						c-8.218,1.856-16.572-0.815-24.21-7.742c-15.525-14.074-29.195-48.719-22.53-91.525c8.871-56.961,66.02-71.148,90.179-74.603
						c8.115-1.163,14.887-0.243,20.145,2.728c5.678-0.293,11.308,0.218,16.74,1.519c5.746-23.602,29.183-43.251,34.48-43.893
						l0.32,2.654c-3.841,0.466-27.576,20.072-32.493,43.151l-0.291,1.374l-1.359-0.36c-5.696-1.512-11.632-2.104-17.641-1.754
						l-0.407,0.024l-0.351-0.208c-4.773-2.815-11.088-3.685-18.764-2.589c-23.57,3.371-79.318,17.173-87.913,72.368
						c-6.515,41.826,6.673,75.525,21.682,89.132c7.165,6.5,14.938,8.904,22.461,6.96l0.71-0.183l0.537,0.5
						c18.9,17.61,40.188,23.15,63.262,16.492l0.539-0.155l0.488,0.274c19.315,10.83,51.458,4.706,51.779,4.643
						c10.6-1.049,20.017-3.238,28.116-6.526l0.443-0.182l0.464,0.147c16.858,5.22,54.108-18.242,70.292-31.983l0.362-0.307
						l0.474-0.01c11.426-0.236,24.564-12.662,31.952-30.224c4.677-11.115,17.152-50.344-18.628-88.448l1.953-1.83
						c24.888,26.507,32.044,60.644,19.142,91.315c-7.683,18.266-21.551,31.267-33.881,31.844
						c-15.026,12.643-53.052,37.633-72.005,32.331c-8.237,3.286-17.754,5.477-28.296,6.514
						C1711.525,1322.832,1698.873,1325.245,1684.563,1324.346z"/>
				</g>
			</g>
		</g>
		<g>
			<g>
				<g>
					<path d="M1740.882,1316.041l-0.712-2.579c0.4-0.111,40.04-11.827,37.889-70.427l2.671-0.099
						C1782.965,1303.735,1741.303,1315.927,1740.882,1316.041z"/>
				</g>
			</g>
		</g>
		<g>
			<g>
				<g>
					<path d="M1641.645,1271.931c-0.167-84.041,37.264-125.112,37.643-125.517l1.956,1.824
						c-0.373,0.398-37.088,40.784-36.923,123.688L1641.645,1271.931z"/>
				</g>
			</g>
		</g>
		<g>
			<g>
				<g>
					<path d="M1576.868,1204.706l-2.5-0.958c26.539-69.234,82.778-73.604,83.344-73.639l0.173,2.67
						C1657.335,1132.816,1602.768,1137.139,1576.868,1204.706z"/>
				</g>
			</g>
		</g>
		<g>
			<g>
				<g>
					
						<rect x="1690.645" y="1271.311" transform="matrix(0.7479 -0.6638 0.6638 0.7479 -425.6997 1446.9048)" width="2.675" height="25.14"/>
				</g>
			</g>
		</g>
		<g>
			<g>
				<g>
					
						<rect x="1684.552" y="1281.826" transform="matrix(0.7478 -0.6639 0.6639 0.7478 -434.2048 1445.6743)" width="2.675" height="25.141"/>
				</g>
			</g>
		</g>
	</g>
	<g>
		<g>
			<path style="fill:#7FC6A6;" d="M826.298,1283.105h140.054c20.395,0,36.929-16.534,36.929-36.929v-120.12H789.37v120.12
				C789.37,1266.571,805.903,1283.105,826.298,1283.105z"/>
		</g>
		<g>
			<path style="fill:#7FC6A6;" d="M771.102,1141.557l32.09,20.976c0.735,0.481,1.721,0.274,2.202-0.461l2.704-4.137
				c0.481-0.735,0.274-1.721-0.461-2.202l-32.09-20.976c-0.735-0.481-1.721-0.274-2.202,0.461l-2.704,4.137
				C770.16,1140.09,770.367,1141.076,771.102,1141.557z"/>
		</g>
		<g>
			<path style="fill:#7FC6A6;" d="M1021.549,1141.557l-32.091,20.976c-0.735,0.481-1.721,0.274-2.202-0.461l-2.704-4.137
				c-0.481-0.735-0.274-1.721,0.461-2.202l32.091-20.976c0.735-0.481,1.721-0.274,2.202,0.461l2.704,4.137
				C1022.49,1140.09,1022.284,1141.076,1021.549,1141.557z"/>
		</g>
	</g>
	<g>
		<rect x="406.945" y="1336.467" style="fill:#FEBAC7;" width="1603.284" height="618.935"/>
	</g>
	<g>
		<g style="opacity:0.8;">
			<g>
				<g>
					<rect x="1372.248" y="652.495" style="fill:#210B06;" width="6.326" height="16.415"/>
				</g>
			</g>
		</g>
		<g style="opacity:0.8;">
			<g>
				<g>
					<rect x="1525.924" y="652.495" style="fill:#210B06;" width="6.326" height="16.415"/>
				</g>
			</g>
		</g>
		<g style="opacity:0.8;">
			<g>
				<g>
					<rect x="1679.6" y="652.495" style="fill:#210B06;" width="6.326" height="16.415"/>
				</g>
			</g>
		</g>
		<g style="opacity:0.8;">
			<g>
				<g>
					<rect x="1833.276" y="652.495" style="fill:#210B06;" width="6.326" height="16.415"/>
				</g>
			</g>
		</g>
		<g>
			<g>
				<g>
					<path style="fill:#FFFFFF;" d="M1451.473,512.431c-5.467-1.334-9.815,0.838-13.118,4.002
						c-0.047-3.565-0.888-12.969-0.888-12.969l-90.713,7.024c0,0,1.843,56.438,43.8,54.169l0.004,0.046l12.313-0.953l-0.005-0.058
						c8.005-0.859,14.234-3.357,19.064-6.848c0.188,0.023,0.368,0.079,0.563,0.064c0.068-0.005,0.138-0.013,0.206-0.025
						c24.863-3.69,36.573-18.068,37.15-30.681C1460.166,519.261,1456.801,513.726,1451.473,512.431z M1454.004,525.935
						c-0.31,6.787-6.058,18.508-24.689,23.59c5.083-6.884,7.394-15.13,8.376-22.266c2.21-4.308,6.511-10.569,12.398-9.145
						C1452.617,518.728,1454.191,521.872,1454.004,525.935z"/>
				</g>
			</g>
		</g>
		<g>
			<g>
				<g>
					<path style="fill:#FFFFFF;" d="M1382.489,666.47c-12.155-3.417-29.485,3.182-40.801,25.626
						c-0.032,0.061-0.062,0.124-0.088,0.188c-0.076,0.18-0.079,0.369-0.116,0.555c-4.832,3.488-9.161,8.617-12.492,15.946
						l-0.054-0.023l-4.775,11.39l0.042,0.018c-15.339,39.119,37.661,58.604,37.661,58.604l35.175-83.91
						c0,0-8.662-3.754-12.032-4.919c4.042-2.142,7.47-5.587,7.922-11.196C1393.375,673.283,1389.178,668.349,1382.489,666.47z
						 M1387.101,678.276c-0.499,6.036-7.794,8.153-12.578,8.896c-7.084-1.31-15.638-1.707-23.77,0.955
						c10.679-16.091,23.613-17.864,30.153-16.026C1384.821,673.2,1387.312,675.683,1387.101,678.276z"/>
				</g>
			</g>
		</g>
		<g>
			<g>
				<g>
					<path style="fill:#FEC786;" d="M1535.77,666.47c-12.155-3.417-29.485,3.182-40.801,25.626
						c-0.032,0.061-0.061,0.124-0.088,0.188c-0.076,0.18-0.079,0.369-0.116,0.555c-4.832,3.488-9.161,8.617-12.492,15.946
						l-0.054-0.023l-4.774,11.39l0.042,0.018c-15.339,39.119,37.661,58.604,37.661,58.604l35.175-83.91
						c0,0-8.662-3.754-12.032-4.919c4.042-2.142,7.47-5.587,7.922-11.196C1546.656,673.283,1542.459,668.349,1535.77,666.47z
						 M1540.382,678.276c-0.499,6.036-7.794,8.153-12.578,8.896c-7.084-1.31-15.638-1.707-23.77,0.955
						c10.679-16.091,23.613-17.864,30.153-16.026C1538.103,673.2,1540.593,675.683,1540.382,678.276z"/>
				</g>
			</g>
		</g>
		<g>
			<g>
				<g>
					<path style="fill:#FFFFFF;" d="M1689.051,666.47c-12.155-3.417-29.485,3.182-40.801,25.626
						c-0.032,0.061-0.061,0.124-0.088,0.188c-0.076,0.18-0.079,0.369-0.116,0.555c-4.832,3.488-9.161,8.617-12.492,15.946
						l-0.054-0.023l-4.775,11.39l0.042,0.018c-15.339,39.119,37.661,58.604,37.661,58.604l35.175-83.91
						c0,0-8.662-3.754-12.032-4.919c4.042-2.142,7.47-5.587,7.922-11.196C1699.938,673.283,1695.74,668.349,1689.051,666.47z
						 M1693.664,678.276c-0.499,6.036-7.794,8.153-12.578,8.896c-7.084-1.31-15.638-1.707-23.771,0.955
						c10.679-16.091,23.613-17.864,30.153-16.026C1691.384,673.2,1693.874,675.683,1693.664,678.276z"/>
				</g>
			</g>
		</g>
		<g>
			<g>
				<g>
					<path style="fill:#FEC786;" d="M1842.332,666.47c-12.155-3.417-29.485,3.182-40.801,25.626
						c-0.032,0.061-0.061,0.124-0.088,0.188c-0.076,0.18-0.079,0.369-0.116,0.555c-4.832,3.488-9.161,8.617-12.492,15.946
						l-0.054-0.023l-4.775,11.39l0.042,0.018c-15.339,39.119,37.661,58.604,37.661,58.604l35.175-83.91
						c0,0-8.662-3.754-12.032-4.919c4.042-2.142,7.47-5.587,7.922-11.196C1853.219,673.283,1849.021,668.349,1842.332,666.47z
						 M1846.945,678.276c-0.499,6.036-7.794,8.153-12.578,8.896c-7.084-1.31-15.638-1.707-23.77,0.955
						c10.679-16.091,23.613-17.864,30.153-16.026C1844.665,673.2,1847.155,675.683,1846.945,678.276z"/>
				</g>
			</g>
		</g>
		<g>
			<g>
				<g>
					<path style="fill:#FEBAC7;" d="M1316.246,540.716c-3.154,12.226,3.818,29.409,26.501,40.239
						c0.062,0.031,0.125,0.059,0.189,0.084c0.182,0.072,0.371,0.071,0.557,0.104c3.592,4.756,8.813,8.973,16.212,12.145
						l-0.021,0.055l11.49,4.528l0.017-0.042c39.441,14.491,57.777-38.917,57.777-38.917l-84.65-33.356c0,0-3.566,8.741-4.658,12.136
						c-2.228-3.995-5.747-7.348-11.364-7.679C1322.823,529.686,1317.98,533.989,1316.246,540.716z M1327.949,535.851
						c6.046,0.368,8.319,7.616,9.166,12.383c-1.157,7.11-1.369,15.671,1.468,23.744c-16.318-10.33-18.37-23.222-16.672-29.8
						C1322.925,538.239,1325.353,535.696,1327.949,535.851z"/>
				</g>
			</g>
		</g>
		<g>
			<g>
				<g>
					<path style="fill:#FFFFFF;" d="M1440.653,593.45c-5.347-1.752-9.851,0.078-13.388,2.978c0.228-3.558,0.115-12.999,0.115-12.999
						h-90.984c0,0-2.52,56.412,39.487,57.389v0.046h12.35v-0.059c8.047-0.239,14.451-2.248,19.536-5.356
						c0.186,0.037,0.361,0.107,0.557,0.107c0.069,0,0.138-0.003,0.207-0.009c25.074-1.759,37.859-15.19,39.407-27.722
						C1448.792,600.93,1445.865,595.152,1440.653,593.45z M1442.134,607.109c-0.833,6.743-7.468,17.985-26.437,21.613
						c5.599-6.471,8.54-14.513,10.07-21.553c2.536-4.125,7.308-10.035,13.068-8.161
						C1441.307,599.817,1442.634,603.073,1442.134,607.109z"/>
				</g>
			</g>
		</g>
		<g>
			<g>
				<g>
					<g>
						<g>
							<g>
								<g>
									<g>
										<path style="fill:#258D8C;" d="M1780.956,435.055c0,0,4.039-56.313,25.899-45.383
											c21.86,10.93,39.681,82.688,42.057,84.827c2.376,2.139,1.663,67.719,1.663,67.719l-25.424-12.828
											C1825.151,529.389,1818.387,372.638,1780.956,435.055z"/>
									</g>
								</g>
							</g>
						</g>
					</g>
				</g>
				<g>
					<g>
						<g>
							<g>
								<g>
									<g>
										<path style="fill:#7FC6A6;" d="M1805.454,318.461c0,0,48.982,43.826,62.348,118.97c13.365,75.144-28.87,97.26-28.87,97.26
											S1832.922,376.689,1805.454,318.461z"/>
									</g>
								</g>
							</g>
						</g>
					</g>
				</g>
				<g>
					<g>
						<g>
							<g>
								<g>
									<g>
										<path style="fill:#258D8C;" d="M1896.315,544.831c0,0,8.198-159.966,49.542-229.32c0,0-72.584,43.304-96.651,156.964
											c-1.355,6.399-2.159,13.512-3.185,20.361c-1.067,7.127-1.704,13.437-1.541,19.736c0.288,11.13,1.832,20.694,2.285,27.722
											C1850.686,601.027,1896.315,544.831,1896.315,544.831z"/>
									</g>
								</g>
							</g>
						</g>
					</g>
				</g>
				<g>
					<g>
						<g>
							<g>
								<g>
									<g>
										<path style="fill:#7FC6A6;" d="M1894.914,476.904c2.813-22.806,11.472-44.546,25.389-62.832
											c10.053-13.209,21.692-23.248,30.781-16.084c20.197,15.92,24.236,114.765,24.236,114.765s-22.811-68.431-32.79-63.917
											c-9.979,4.514-19.246,97.42-19.246,97.42l-37.305,3.089L1894.914,476.904z"/>
									</g>
								</g>
							</g>
						</g>
					</g>
				</g>
				<g>
					<g>
						<g>
							<g>
								<g>
									<g>
										<path style="fill:#21111D;" d="M1844.032,539.246c-1.532-34.924,2.849-68.444,13.018-99.627
											c8.137-24.95,19.977-48.468,35.191-69.9c25.909-36.499,53.013-54.535,53.284-54.713l0.663,1.009
											c-0.269,0.177-27.215,18.115-52.994,54.446c-23.783,33.519-51.409,90.001-47.956,168.732L1844.032,539.246z"/>
									</g>
								</g>
							</g>
						</g>
					</g>
				</g>
				<g>
					<g>
						<g>
							<g>
								<g>
									<g>
										<path style="fill:#21111D;" d="M1838.329,534.714c-0.015-0.395-1.558-40.022-6.436-86.246
											c-4.499-42.632-12.832-99.748-26.985-129.749l1.092-0.515c14.225,30.155,22.586,87.417,27.094,130.144
											c4.882,46.264,6.426,85.925,6.441,86.32L1838.329,534.714z"/>
									</g>
								</g>
							</g>
						</g>
					</g>
				</g>
				<g>
					<g>
						<g>
							<g>
								<g>
									<g>
										<path style="fill:#21111D;" d="M1824.548,529.415c-0.011-0.257-1.159-26.021-4.945-52.127
											c-4.978-34.326-12.172-53.639-20.805-55.853c-5.098-1.306-10.926,3.381-17.326,13.933l-1.032-0.626
											c6.709-11.059,12.986-15.93,18.659-14.475c9.274,2.377,16.576,21.507,21.701,56.857
											c3.794,26.165,4.944,51.982,4.955,52.239L1824.548,529.415z"/>
									</g>
								</g>
							</g>
						</g>
					</g>
				</g>
				<g>
					<g>
						<g>
							<g>
								<g>
									<g>
										<path style="fill:#21111D;" d="M1886.578,549.419l-1.198-0.148l8.935-72.442c2.851-23.116,11.672-44.943,25.508-63.123
											c8.761-11.511,16.542-17.772,23.128-18.608c3.11-0.396,5.971,0.418,8.506,2.416c8.504,6.703,15.205,28.15,19.917,63.747
											c3.498,26.423,4.539,51.22,4.549,51.467l-1.206,0.049c-0.04-0.986-4.258-98.748-24.007-114.316
											c-2.271-1.79-4.831-2.518-7.607-2.166c-6.253,0.794-13.762,6.898-22.32,18.142c-13.707,18.01-22.446,39.636-25.271,62.54
											L1886.578,549.419z"/>
									</g>
								</g>
							</g>
						</g>
					</g>
				</g>
				<g>
					<g>
						<g>
							<g>
								<g>
									<g>
										
											<rect x="1913.429" y="467.353" transform="matrix(0.4584 -0.8888 0.8888 0.4584 625.0869 1961.6281)" style="fill:#21111D;" width="17.096" height="1.207"/>
									</g>
								</g>
							</g>
						</g>
					</g>
				</g>
				<g>
					<g>
						<g>
							<g>
								<g>
									<g>
										
											<rect x="1913.854" y="477.13" transform="matrix(0.4825 -0.8759 0.8759 0.4825 576.1614 1930.6636)" style="fill:#21111D;" width="16.245" height="1.207"/>
									</g>
								</g>
							</g>
						</g>
					</g>
				</g>
				<g>
					<g>
						<g>
							<g>
								<g>
									<g>
										
											<rect x="1840.681" y="369.007" transform="matrix(0.9101 -0.4145 0.4145 0.9101 9.319 797.1221)" style="fill:#21111D;" width="1.207" height="16.164"/>
									</g>
								</g>
							</g>
						</g>
					</g>
				</g>
				<g>
					<g>
						<g>
							<g>
								<g>
									<g>
										
											<rect x="1841.18" y="380.544" transform="matrix(0.8747 -0.4847 0.4847 0.8747 43.5071 941.1295)" style="fill:#21111D;" width="1.207" height="11.766"/>
									</g>
								</g>
							</g>
						</g>
					</g>
				</g>
				<g>
					<g>
						<g>
							<g>
								<g>
									<g>
										
											<rect x="1805.895" y="392.11" transform="matrix(0.4541 -0.891 0.891 0.4541 631.1346 1827.0656)" style="fill:#21111D;" width="1.208" height="12.801"/>
									</g>
								</g>
							</g>
						</g>
					</g>
				</g>
				<g>
					<g>
						<g>
							<g>
								<g>
									<g>
										
											<rect x="1808.224" y="400.369" transform="matrix(0.5197 -0.8543 0.8543 0.5197 523.2999 1739.5137)" style="fill:#21111D;" width="1.207" height="7.898"/>
									</g>
								</g>
							</g>
						</g>
					</g>
				</g>
			</g>
			<g>
				<g>
					<g>
						<g>
							<g>
								<g>
									<path style="fill:#EF3A4C;" d="M1812.202,525.322c0,0,2.129,116.946,33.452,114.203h24.631h3.955h24.632
										c31.323,2.743,33.452-114.203,33.452-114.203C1902.682,520.842,1841.843,520.842,1812.202,525.322z"/>
								</g>
							</g>
						</g>
					</g>
				</g>
			</g>
			<g>
				<g>
					<g>
						<g>
							<g>
								<g>
									
										<rect x="1878.205" y="558.176" transform="matrix(0.6875 -0.7261 0.7261 0.6875 188.8783 1556.5107)" style="fill:#21111D;" width="49.778" height="1.207"/>
								</g>
							</g>
						</g>
					</g>
				</g>
			</g>
			<g>
				<g>
					<g>
						<g>
							<g>
								<g>
									
										<rect x="1886.381" y="574.205" transform="matrix(0.6562 -0.7545 0.7545 0.6562 219.6689 1631.7937)" style="fill:#21111D;" width="28.716" height="1.208"/>
								</g>
							</g>
						</g>
					</g>
				</g>
			</g>
		</g>
		<g>
			<g>
				<g>
					<rect x="1306.379" y="640.863" style="fill:#F99247;" width="644.664" height="11.631"/>
				</g>
			</g>
		</g>
		<g>
			<g>
				<g>
					<rect x="1306.38" y="639.816" width="644.663" height="2.095"/>
				</g>
			</g>
		</g>
		<g>
			<g>
				<g>
					<path style="fill:#B9DAF4;" d="M1777.229,639.573h-56.05c-0.722,0-1.307-0.585-1.307-1.307V528.745
						c0-0.722,0.585-1.307,1.307-1.307h56.05c0.722,0,1.307,0.585,1.307,1.307v109.521
						C1778.536,638.987,1777.95,639.573,1777.229,639.573z"/>
				</g>
			</g>
		</g>
		<g style="opacity:0.8;">
			<g>
				<g>
					<rect x="1723.411" y="549.41" style="fill:#210B06;" width="51.584" height="81.323"/>
				</g>
			</g>
		</g>
		<g>
			<g>
				<g>
					<path style="fill:#4B4B4C;" d="M1778.463,527.438h-58.519c-0.04,0-0.072-0.032-0.072-0.072v-4.065
						c0-0.04,0.032-0.072,0.072-0.072h58.519c0.04,0,0.072,0.032,0.072,0.072v4.065
						C1778.536,527.405,1778.503,527.438,1778.463,527.438z"/>
				</g>
			</g>
		</g>
		<g>
			<g>
				<g>
					<rect x="1737.657" y="575.928" style="fill:#7FC6A6;" width="40.878" height="15.153"/>
				</g>
			</g>
		</g>
		<g>
			<g>
				<g>
					<path style="fill:#B9DAF4;" d="M1558.692,639.747h-65.536c-0.722,0-1.307-0.585-1.307-1.307V476.227
						c0-0.722,0.585-1.307,1.307-1.307h65.536c0.722,0,1.307,0.585,1.307,1.307V638.44
						C1559.999,639.162,1559.414,639.747,1558.692,639.747z"/>
				</g>
			</g>
		</g>
		<g style="opacity:0.8;">
			<g>
				<g>
					<rect x="1495.961" y="507.217" style="fill:#210B06;" width="59.926" height="119.537"/>
				</g>
			</g>
		</g>
		<g>
			<g>
				<g>
					<path style="fill:#FAC78D;" d="M1559.256,475.541h-66.664c-0.41,0-0.743-0.333-0.743-0.743v-4.701
						c0-0.41,0.333-0.743,0.743-0.743h66.664c0.41,0,0.743,0.333,0.743,0.743v4.701
						C1559.999,475.208,1559.667,475.541,1559.256,475.541z"/>
				</g>
			</g>
		</g>
		<g>
			<g>
				<g>
					<rect x="1512.511" y="546.197" style="fill:#FEC786;" width="47.488" height="22.274"/>
				</g>
			</g>
		</g>
		<g>
			<g>
				<g>
					<path style="fill:#B9DAF4;" d="M1682.739,639.747h-65.536c-0.722,0-1.307-0.585-1.307-1.307V450.163
						c0-0.722,0.585-1.307,1.307-1.307h65.536c0.722,0,1.307,0.585,1.307,1.307V638.44
						C1684.047,639.162,1683.461,639.747,1682.739,639.747z"/>
				</g>
			</g>
		</g>
		<g style="opacity:0.8;">
			<g>
				<g>
					<rect x="1620.009" y="486.26" style="fill:#210B06;" width="59.926" height="138.439"/>
				</g>
			</g>
		</g>
		<g>
			<g>
				<g>
					<path style="fill:#FAC78D;" d="M1683.186,448.855h-66.429c-0.475,0-0.86-0.385-0.86-0.861v-5.445c0-0.475,0.385-0.86,0.86-0.86
						h66.429c0.475,0,0.861,0.385,0.861,0.86v5.445C1684.047,448.47,1683.661,448.855,1683.186,448.855z"/>
				</g>
			</g>
		</g>
		<g>
			<g>
				<g>
					<rect x="1636.558" y="531.403" style="fill:#FEBAC7;" width="47.488" height="25.796"/>
				</g>
			</g>
		</g>
		<g>
			<g>
				<g>
					<polygon points="1492.897,640.864 1490.802,640.864 1490.802,475.18 1560,475.18 1560,477.274 1492.897,477.274 					"/>
				</g>
			</g>
		</g>
		<g>
			<g>
				<g>
					<polygon points="1617.804,639.747 1615.709,639.747 1615.709,447.809 1683.186,447.809 1683.186,449.903 1617.804,449.903 
											"/>
				</g>
			</g>
		</g>
		<g>
			<g>
				<g>
					<path style="fill:#210B06;" d="M1378.585,671.588c-0.09-1.681-1.47-3.021-3.174-3.021c-1.704,0-3.083,1.339-3.173,3.021h-0.017
						v3.243h0.012c0.067,1.704,1.459,3.067,3.178,3.067c1.72,0,3.112-1.364,3.178-3.067h0.012v-3.243H1378.585z"/>
				</g>
			</g>
		</g>
		<g>
			<g>
				<g>
					<path style="fill:#210B06;" d="M1532.261,671.588c-0.09-1.681-1.47-3.021-3.174-3.021c-1.704,0-3.083,1.339-3.174,3.021h-0.017
						v3.243h0.012c0.067,1.704,1.459,3.067,3.178,3.067c1.72,0,3.112-1.364,3.178-3.067h0.013v-3.243H1532.261z"/>
				</g>
			</g>
		</g>
		<g>
			<g>
				<g>
					<path style="fill:#210B06;" d="M1685.937,671.588c-0.09-1.681-1.47-3.021-3.174-3.021c-1.704,0-3.083,1.339-3.174,3.021h-0.017
						v3.243h0.012c0.067,1.704,1.459,3.067,3.178,3.067c1.72,0,3.112-1.364,3.178-3.067h0.013v-3.243H1685.937z"/>
				</g>
			</g>
		</g>
		<g>
			<g>
				<g>
					<path style="fill:#210B06;" d="M1839.613,671.588c-0.09-1.681-1.47-3.021-3.174-3.021c-1.704,0-3.083,1.339-3.173,3.021h-0.017
						v3.243h0.012c0.066,1.704,1.459,3.067,3.178,3.067c1.72,0,3.112-1.364,3.178-3.067h0.013v-3.243H1839.613z"/>
				</g>
			</g>
		</g>
	</g>
	<g>
		<rect x="382.493" y="1301.986" style="fill:#FEC786;" width="1652.188" height="34.481"/>
	</g>
	<g>
		<rect x="576.093" y="1290.453" style="fill:#617FC3;" width="401.693" height="11.534"/>
	</g>
	<g>
		<rect x="576.093" y="1290.453" style="fill:#F15F46;" width="401.693" height="11.534"/>
	</g>
	<g>
		<rect x="834.806" y="1283.105" style="fill:#49263E;" width="110.221" height="7.348"/>
	</g>
	<g>
		<rect x="628.448" y="1283.105" style="fill:#49263E;" width="110.221" height="7.348"/>
	</g>
	<g>
		<path style="fill:#FEBAC7;" d="M955.748,1476.604H477.965v-104.71h477.782V1476.604z M488.987,1465.582h455.738v-82.666H488.987
			V1465.582z"/>
	</g>
	<g>
		<path style="fill:#FEBAC7;" d="M955.748,1611.229H477.965v-104.71h477.782V1611.229z M488.987,1600.207h455.738v-82.665H488.987
			V1600.207z"/>
	</g>
	<g>
		<path style="fill:#FEBAC7;" d="M955.748,1745.854H477.965v-104.71h477.782V1745.854z M488.987,1734.831h455.738v-82.666H488.987
			V1734.831z"/>
	</g>
	<g>
		<path style="fill:#FEBAC7;" d="M955.748,1880.478H477.965v-104.71h477.782V1880.478z M488.987,1869.456h455.738v-82.666H488.987
			V1869.456z"/>
	</g>
	<g>
		<path style="fill:#FEBAC7;" d="M1483.476,1880.478H1040.25v-508.584h443.226V1880.478z M1051.272,1869.456h421.182v-486.54
			h-421.182V1869.456z"/>
	</g>
	<g>
		<path style="fill:#FEBAC7;" d="M1926.078,1880.478h-405.734v-508.584h405.734V1880.478z M1531.367,1869.456h383.69v-486.54
			h-383.69V1869.456z"/>
	</g>
	<g>
		<rect x="629.307" y="1413.839" style="fill:#FEBAC7;" width="158.167" height="12.247"/>
	</g>
	<g>
		<rect x="629.307" y="1552.75" style="fill:#FEBAC7;" width="158.167" height="12.247"/>
	</g>
	<g>
		<rect x="629.307" y="1691.661" style="fill:#FEBAC7;" width="158.167" height="12.247"/>
	</g>
	<g>
		<rect x="629.307" y="1830.573" style="fill:#FEBAC7;" width="158.167" height="12.247"/>
	</g>
	<g>
		
			<rect x="1346.434" y="1579.462" transform="matrix(-1.836970e-16 1 -1 -1.836970e-16 2999.0352 174.6129)" style="fill:#FEBAC7;" width="131.554" height="14.724"/>
	</g>
	<g>
		
			<rect x="1524.598" y="1579.462" transform="matrix(-1.836970e-16 1 -1 -1.836970e-16 3177.199 -3.551)" style="fill:#FEBAC7;" width="131.554" height="14.724"/>
	</g>
	<g>
		<rect x="382.492" y="1299.92" style="fill:#1D1D1B;" width="1652.188" height="4.133"/>
	</g>
	<g>
		<rect x="382.492" y="1334.4" style="fill:#1D1D1B;" width="1652.188" height="4.133"/>
	</g>
	<g>
		<rect x="2008.161" y="1336.467" style="fill:#1D1D1B;" width="4.133" height="618.935"/>
	</g>
	<g>
		<rect x="404.878" y="1336.467" style="fill:#1D1D1B;" width="4.133" height="618.935"/>
	</g>
	<g>
		<g>
			<g>
				
					<ellipse transform="matrix(0.866 -0.5 0.5 0.866 -376.7462 560.9958)" style="fill:#258D8C;" cx="858.457" cy="983.514" rx="89.113" ry="121.028"/>
			</g>
		</g>
		<g>
			<g>
				
					<ellipse transform="matrix(0.866 -0.5 0.5 0.866 -374.6695 563.0699)" style="fill:#7FC6A6;" cx="863.369" cy="980.678" rx="89.113" ry="121.028"/>
			</g>
		</g>
		<g>
			<g>
				<path d="M889.014,1095.358c-37.147,0-78.361-26.169-103.508-69.725c-16.248-28.143-23.453-59.271-20.288-87.651
					c3.176-28.469,16.401-50.774,37.239-62.805c42.935-24.791,105.188,2.375,138.776,60.547
					c16.248,28.143,23.453,59.271,20.288,87.651c-3.175,28.469-16.401,50.774-37.239,62.805
					C913.492,1092.41,901.481,1095.358,889.014,1095.358z M837.759,867.577c-12.207,0-23.953,2.883-34.507,8.976
					c-20.389,11.772-33.335,33.651-36.453,61.606c-3.128,28.044,4.005,58.827,20.085,86.678
					c33.148,57.413,94.428,84.317,136.601,59.966c20.389-11.772,33.335-33.651,36.453-61.606
					c3.128-28.044-4.005-58.827-20.084-86.678C915.001,893.473,874.331,867.577,837.759,867.577z"/>
			</g>
		</g>
		<g>
			<g>
				<g>
					<g>
						<path style="fill:#F59F73;" d="M1128.224,1042.427l-43.172-55.41l-81.617,88.111c0,0-42.561-55.272-69.432-84.164
							l-55.043,17.126c4.855,6.463,29.342,39.819,35.169,50.629c0,0,65.946,104.628,93.542,104.807
							C1052.581,1163.816,1128.224,1042.427,1128.224,1042.427z"/>
					</g>
				</g>
			</g>
		</g>
		<g>
			<g>
				<path style="fill:#258D8C;" d="M897.505,964.753c-0.801,3.921-4.628,6.451-8.549,5.65c-3.921-0.801-6.451-4.628-5.65-8.549
					c0.801-3.921,4.628-6.451,8.549-5.65C895.776,957.004,898.306,960.832,897.505,964.753z"/>
			</g>
		</g>
		<g>
			<g>
				<path style="fill:#258D8C;" d="M865.556,998.276c-0.801,3.921-4.628,6.451-8.549,5.65c-3.921-0.801-6.451-4.628-5.65-8.549
					c0.801-3.921,4.628-6.451,8.549-5.65C863.827,990.527,866.357,994.355,865.556,998.276z"/>
			</g>
		</g>
		<g>
			<g>
				<path style="fill:#49263E;" d="M1617.648,727.375c-5.199-26.999-20.481-46.754-34.133-44.125
					c-13.652,2.629-20.504,26.647-15.304,53.646c4.586,23.812,17.014,41.98,29.25,44.135l44.254,229.801
					c0.501,2.601,3.016,4.304,5.617,3.803c2.601-0.501,4.304-3.016,3.803-5.617l-44.254-229.801
					C1617.441,772.671,1622.234,751.187,1617.648,727.375z"/>
			</g>
		</g>
		<g>
			<g>
				<g>
					<g>
						<g>
							<g>
								<g>
									<g>
										<g>
											<g>
												<polygon style="fill:#FE9F73;" points="1323.633,1934.824 1384.826,1935.124 1376.636,1852.492 1311.274,1842.745 
																									"/>
											</g>
										</g>
									</g>
								</g>
							</g>
						</g>
					</g>
				</g>
			</g>
			<g>
				<g>
					<g>
						<g>
							<g>
								<g>
									<path style="fill:#F99247;" d="M1385.457,1942.331h-56.358l-22.85-25.532l-41.793,25.532h-9.001
										c-3.102,0-5.945,2.152-6.53,5.277c-0.786,4.205,2.334,7.882,6.292,7.882h131.042c0.963,0,1.744-0.801,1.744-1.788v-8.757
										C1388.004,1943.501,1386.864,1942.331,1385.457,1942.331z"/>
								</g>
							</g>
						</g>
					</g>
				</g>
				<g>
					<g>
						<g>
							<g>
								<g>
									<path style="fill:#7FC6A6;" d="M1384.958,1942.405v-23.732c0,0-9.491-13.106-23.943-6.416c0,0-21.858,15.907-41.126-3.343
										l-47.849,21.773c0,0-13.12,4.498-16.672,11.717H1384.958z"/>
								</g>
							</g>
						</g>
					</g>
				</g>
				<g>
					<g>
						<g>
							<g>
								<g>
									<g>
										<g>
											<rect x="1384.479" y="1918.673" width="0.959" height="23.614"/>
										</g>
									</g>
								</g>
							</g>
						</g>
					</g>
				</g>
				<g>
					<g>
						<g>
							<g>
								<g>
									<g>
										<g>
											<path d="M1341.426,1918.932c-1.831,0-2.935-0.16-2.971-0.166l0.142-0.973c0.111,0.015,11.407,1.64,22.147-5.941
												l0.543,0.811C1353.592,1918.095,1345.611,1918.932,1341.426,1918.932z"/>
										</g>
									</g>
								</g>
							</g>
						</g>
					</g>
				</g>
				<g>
					<g>
						<g>
							<g>
								<g>
									<g>
										<g>
											<polygon points="1373.313,1937.973 1372.777,1937.156 1378.889,1932.928 1379.425,1933.745 											"/>
										</g>
									</g>
								</g>
							</g>
						</g>
					</g>
				</g>
				<g>
					<g>
						<g>
							<g>
								<g>
									<g>
										<g>
											<polygon points="1368.93,1936.776 1368.394,1935.961 1374.505,1931.733 1375.041,1932.548 											"/>
										</g>
									</g>
								</g>
							</g>
						</g>
					</g>
				</g>
				<g>
					<g>
						<g>
							<g>
								<g>
									<g>
										<g>
											<g>
												<g>
													<g>
														<g>
															<g>
																<g>
																	<path d="M1250.759,1954.347c-1.548-1.346-2.435-3.312-2.435-5.393c0-3.899,3.093-7.071,6.893-7.071h129.571
																		c2.038,0,3.695,1.701,3.695,3.791v6.56h-0.96v-6.56c0-1.548-1.227-2.807-2.736-2.807h-129.571
																		c-3.272,0-5.934,2.73-5.934,6.087c0,1.791,0.764,3.483,2.096,4.643L1250.759,1954.347z"/>
																</g>
															</g>
														</g>
													</g>
												</g>
											</g>
										</g>
									</g>
								</g>
							</g>
						</g>
					</g>
				</g>
				<g>
					<g>
						<g>
							<g>
								<g>
									<g>
										<g>
											<path d="M1255.652,1942.586l-0.868-0.42c0.107-0.233,2.732-5.751,12.526-10.035c9.625-4.211,51.958-23.471,52.384-23.666
												l0.39,0.9c-0.427,0.194-42.767,19.458-52.397,23.671C1258.263,1937.159,1255.676,1942.532,1255.652,1942.586z"/>
										</g>
									</g>
								</g>
							</g>
						</g>
					</g>
				</g>
			</g>
		</g>
		<g>
			<g>
				<g>
					<g>
						<g>
							<g>
								<g>
									<g>
										<g>
											<g>
												<polygon style="fill:#FE9F73;" points="1533.892,1934.824 1595.085,1935.124 1571.547,1821.794 1509.639,1800.577 
																									"/>
											</g>
										</g>
									</g>
								</g>
							</g>
						</g>
					</g>
				</g>
			</g>
			<g>
				<g>
					<g>
						<g>
							<g>
								<g>
									<path style="fill:#F99247;" d="M1595.716,1942.331h-56.358l-22.85-25.532l-41.793,25.532h-9.001
										c-3.102,0-5.945,2.152-6.53,5.277c-0.786,4.205,2.334,7.882,6.292,7.882h131.042c0.963,0,1.744-0.801,1.744-1.788v-8.757
										C1598.263,1943.501,1597.122,1942.331,1595.716,1942.331z"/>
								</g>
							</g>
						</g>
					</g>
				</g>
				<g>
					<g>
						<g>
							<g>
								<g>
									<path style="fill:#7FC6A6;" d="M1595.217,1942.405v-23.732c0,0-9.491-13.106-23.943-6.416c0,0-21.858,15.907-41.127-3.343
										l-47.849,21.773c0,0-13.12,4.498-16.672,11.717H1595.217z"/>
								</g>
							</g>
						</g>
					</g>
				</g>
				<g>
					<g>
						<g>
							<g>
								<g>
									<g>
										<g>
											<rect x="1594.738" y="1918.673" width="0.959" height="23.614"/>
										</g>
									</g>
								</g>
							</g>
						</g>
					</g>
				</g>
				<g>
					<g>
						<g>
							<g>
								<g>
									<g>
										<g>
											<path d="M1551.685,1918.932c-1.831,0-2.935-0.16-2.971-0.166l0.142-0.973c0.111,0.015,11.407,1.64,22.147-5.941
												l0.543,0.811C1563.851,1918.095,1555.87,1918.932,1551.685,1918.932z"/>
										</g>
									</g>
								</g>
							</g>
						</g>
					</g>
				</g>
				<g>
					<g>
						<g>
							<g>
								<g>
									<g>
										<g>
											<polygon points="1583.571,1937.973 1583.036,1937.156 1589.148,1932.928 1589.684,1933.745 											"/>
										</g>
									</g>
								</g>
							</g>
						</g>
					</g>
				</g>
				<g>
					<g>
						<g>
							<g>
								<g>
									<g>
										<g>
											<polygon points="1579.189,1936.776 1578.653,1935.961 1584.764,1931.733 1585.3,1932.548 											"/>
										</g>
									</g>
								</g>
							</g>
						</g>
					</g>
				</g>
				<g>
					<g>
						<g>
							<g>
								<g>
									<g>
										<g>
											<g>
												<g>
													<g>
														<g>
															<g>
																<g>
																	<path d="M1461.018,1954.347c-1.548-1.346-2.435-3.312-2.435-5.393c0-3.899,3.093-7.071,6.893-7.071h129.571
																		c2.038,0,3.695,1.701,3.695,3.791v6.56h-0.959v-6.56c0-1.548-1.227-2.807-2.736-2.807h-129.571
																		c-3.272,0-5.934,2.73-5.934,6.087c0,1.791,0.764,3.483,2.096,4.643L1461.018,1954.347z"/>
																</g>
															</g>
														</g>
													</g>
												</g>
											</g>
										</g>
									</g>
								</g>
							</g>
						</g>
					</g>
				</g>
				<g>
					<g>
						<g>
							<g>
								<g>
									<g>
										<g>
											<path d="M1465.911,1942.586l-0.868-0.42c0.107-0.233,2.732-5.751,12.526-10.035c9.625-4.211,51.958-23.471,52.384-23.666
												l0.39,0.9c-0.427,0.194-42.767,19.458-52.397,23.671C1468.522,1937.159,1465.935,1942.532,1465.911,1942.586z"/>
										</g>
									</g>
								</g>
							</g>
						</g>
					</g>
				</g>
			</g>
		</g>
		<g>
			<g>
				<path style="fill:#FFFFFF;" d="M1440.329,1377.408c0,0-120.98-237.635-124.614-237.635c-2.412,0-36.385,25.695-58.97,42.981
					l4.414-13.749l-94.3-156.537l-36.776,21.842c0,0,3.772,55.484,30.176,80.945c16.657,16.062,47.13,49.812,67.362,72.544
					c-13.847,43.68-22.328,57.156,0.652,385.751c0,0,33.827,18.86,91.822,7.544c57.996-11.316,91.944-23.575,124.948-13.202
					C1478.049,1578.266,1440.329,1377.408,1440.329,1377.408z"/>
			</g>
		</g>
		<g>
			<g>
				<g>
					<g>
						<path style="fill:#FE9F73;" d="M1342.05,1004.085c0,0,63.299,47.513,83.061,52.891
							c19.761,5.378,183.736-70.439,183.736-70.439l-27.356-45.97l-138.014,38.146l-65.068-43.551L1342.05,1004.085z"/>
					</g>
				</g>
			</g>
		</g>
		<g>
			<g>
				<path style="fill:#EF3A4C;" d="M1183.599,890.247c0,0-6.856-3.247-33.197,13.712c-23.668,15.238-95.521,84.703-95.521,84.703
					s5.658,52.473,67.486,73.094l22.709-24.298c0,0,3.868,44.557,24.378,69.31c20.51,24.754,79.919,85.473,79.919,85.473
					s88.406,4.243,139.328-45.264l-38.899-189.099c0,0-66.481-70.252-68.603-67.881
					C1279.077,892.368,1183.599,890.247,1183.599,890.247z"/>
			</g>
		</g>
		<g>
			<g>
				<path style="fill:#EF3A4C;" d="M1209.767,893.783c2.122,0,94.064-23.339,118.817-10.609s93.08,64.034,93.08,64.034
					s-8.047,70.128-56.14,87.102l-53.56-57.073L1209.767,893.783z"/>
			</g>
		</g>
		<g>
			<g>
				<path style="fill:#49263E;" d="M1249.373,1192.241c0,0-19.803,206.516,0,333.82c19.803,127.304,56.58,362.874,56.58,362.874
					s48.342,26.457,93.357,0c0,0-41.02-468.96-32.533-534.027l21.925-2.829c0,0,71.432,413.843,120.939,542.562
					c0,0,66.453,18.741,86.058-17.825c0,0-111.519-586.974-128.493-635.067c-16.974-48.093-78.504-94.771-78.504-94.771
					S1283.32,1155.464,1249.373,1192.241z"/>
			</g>
		</g>
		<g>
			<g>
				<g>
					<g>
						<path style="fill:#FE9F73;" d="M1627.973,976.133c-2.76,1.565-5.622,3.123-8.549,4.645c-0.077,0.041-14.403,7.844-14.48,7.885
							l-43.676-6.723l9.901-37.313c17.328-16.063,28.799-26.798,35.944-30.399c2.294-1.156,4.796-2.39,7.379-3.626
							c3.175-1.515,6.473-3.035,9.653-4.416c2.992-1.296,5.883-2.47,8.471-3.406c2.201-0.793,4.185-1.413,5.83-1.79
							c0.008-0.003,0.017-0.003,0.025-0.005c1.347-0.304,2.465-0.443,3.291-0.379c0.028,0.003,0.058,0.004,0.085,0.008
							c4.622,0.378,8.51,1.831,9.989,4.464c0.005,0.008,0.01,0.017,0.015,0.025c1.048,1.899,0.85,4.41-1.225,7.57
							c0,0,0.057,0.027,0.161,0.078c1.396,0.699,11.259,6.15,4.127,17.406c0,0,8.341,4.402,1.72,13.562
							c-0.055,0.075-0.111,0.151-0.166,0.226c0,0,4.495,2.676,1.268,9.252C1655.023,958.733,1643.008,967.595,1627.973,976.133z"/>
					</g>
				</g>
			</g>
			<g>
				<g>
					<g>
						<g>
							<path style="fill:#F07162;" d="M1599.582,920.45c0.375,0.099,0.792,0.005,1.09-0.284c0.078-0.074,5.358-4.97,27.341-14.612
								c11.291-4.952,17.095-4.175,19.976-2.651c2.883,1.525,3.379,4.022,3.383,4.047c0.116,0.622,0.714,1.031,1.334,0.915
								c0.621-0.116,1.031-0.713,0.915-1.334c-0.027-0.147-0.714-3.614-4.563-5.65c-4.839-2.561-12.229-1.693-21.965,2.578
								c-22.605,9.915-27.808,14.863-28.018,15.068c-0.452,0.442-0.46,1.166-0.018,1.618
								C1599.208,920.297,1599.39,920.399,1599.582,920.45z"/>
						</g>
					</g>
				</g>
			</g>
			<g>
				<g>
					<g>
						<g>
							<path style="fill:#F07162;" d="M1631.146,921.94c0.235,0.062,0.491,0.05,0.733-0.051l19.427-8.114
								c0.583-0.243,0.858-0.914,0.615-1.497c-0.244-0.583-0.913-0.859-1.497-0.615l-19.427,8.114
								c-0.583,0.244-0.858,0.914-0.615,1.497C1630.525,921.616,1630.814,921.852,1631.146,921.94z"/>
						</g>
					</g>
				</g>
			</g>
			<g>
				<g>
					<g>
						<g>
							<path style="fill:#F07162;" d="M1635.408,938.927c0.235,0.062,0.491,0.05,0.733-0.051l19.427-8.114
								c0.583-0.244,0.858-0.914,0.615-1.497c-0.244-0.583-0.913-0.859-1.497-0.615l-19.427,8.114
								c-0.583,0.243-0.858,0.913-0.615,1.497C1634.787,938.604,1635.076,938.839,1635.408,938.927z"/>
						</g>
					</g>
				</g>
			</g>
			<g>
				<g>
					<g>
						<g>
							<path style="fill:#F07162;" d="M1637.438,952.721c0.235,0.062,0.491,0.05,0.733-0.051l19.427-8.114
								c0.583-0.243,0.858-0.914,0.615-1.497c-0.243-0.583-0.913-0.859-1.497-0.615l-19.427,8.114
								c-0.583,0.244-0.858,0.914-0.615,1.497C1636.817,952.397,1637.106,952.633,1637.438,952.721z"/>
						</g>
					</g>
				</g>
			</g>
		</g>
		<g style="opacity:0.5;">
			<g>
				<path style="fill:#4CB7D8;" d="M1271.297,1297.724c2.829,2.829,32.533,49.299,95.478,57.183l21.925-2.829
					c0,0,41.293,203.336,46.149,225.125c0,0-27.053-207.34-7.25-235.63c0,0,21.217-42.435,28.997-82.748
					c0,0-24.367,60.759-79.919,70.017C1334.242,1335.916,1271.297,1297.724,1271.297,1297.724z"/>
			</g>
		</g>
		<g>
			<g>
				<path style="fill:#FFFFFF;" d="M1249.373,1192.241c0,0,57.994,15.663,86.284,5.762c28.29-9.901,53.043-51.026,53.043-51.026
					l10.92,8.933c0,0-35.618,49.675-57.57,54.724s-94.255,0-94.255,0l-7.224-18.303L1249.373,1192.241z"/>
			</g>
		</g>
		<g>
			<g>
				<path style="fill:#FFFFFF;" d="M1332.12,1205.092c0,0-4.951,89.113,0,106.087c0,0,6.365-3.536,16.974-5.658
					c0,0-16.345-89.113-9.587-103.965C1346.265,1186.703,1332.12,1205.092,1332.12,1205.092z"/>
			</g>
		</g>
		<g>
			<g>
				<path style="fill:#FFFFFF;" d="M1355.41,1200.245c0,0,44.102,77.593,47.224,94.996c0,0-7.274-0.333-17.718,2.489
					c0,0-25.032-87.073-37.695-97.364S1355.41,1200.245,1355.41,1200.245z"/>
			</g>
		</g>
		<g>
			<g>
				<g>
					<g>
						<g>
							<path style="fill:#EF7162;" d="M1008.003,1097.278c0.18,0.141,0.419,0.204,0.66,0.151c0.428-0.094,0.698-0.517,0.604-0.944
								l-5.058-22.983c-0.094-0.427-0.516-0.698-0.944-0.603c-0.427,0.094-0.698,0.517-0.604,0.944l5.058,22.983
								C1007.76,1097.012,1007.864,1097.168,1008.003,1097.278z"/>
						</g>
					</g>
				</g>
			</g>
		</g>
		<g>
			<g>
				<g>
					<g>
						<g>
							<path style="fill:#F59F73;" d="M873.853,1004.261L873.853,1004.261c3.402,1.332,19.144,16.983,24.589,23.146
								c0.042-0.009,0.068-0.014,0.068-0.014l26.821,31.744l33.271-40.822c0,0-32.103-36.789-37.23-41.723
								c-5.126-4.935-27.843-15.776-37.369-16.322c-17.285-0.99-11.813,5.164-11.813,5.164c-18.051,0.654-7.966,9.553-7.966,9.553
								c-16.224-0.832-8.349,9.384-8.349,9.384c-8.754,0.448-9.862,3.563-9.265,6.081c0.437,1.843,1.797,3.327,3.539,4.07
								C854.215,996.254,864.423,1000.569,873.853,1004.261L873.853,1004.261z"/>
						</g>
					</g>
				</g>
			</g>
			<g>
				<g>
					<g>
						<g>
							<g>
								<g>
									<g>
										<g>
											<path style="fill:#EF7162;" d="M873.132,988.066c0.277,0.231,0.388,0.622,0.246,0.976
												c-0.176,0.438-0.674,0.651-1.112,0.474c-6.146-2.47-16.434-4.286-16.537-4.303c-0.465-0.082-0.776-0.525-0.696-0.99
												c0.082-0.466,0.525-0.777,0.99-0.696c0.429,0.076,10.567,1.865,16.88,4.403
												C872.989,987.964,873.066,988.01,873.132,988.066z"/>
										</g>
									</g>
								</g>
							</g>
						</g>
					</g>
				</g>
			</g>
			<g>
				<g>
					<g>
						<g>
							<g>
								<g>
									<g>
										<g>
											<path style="fill:#EF7162;" d="M880.072,979.745c0.31,0.259,0.402,0.71,0.198,1.075
												c-0.231,0.412-0.752,0.558-1.165,0.327c-7.029-3.942-14.943-5.304-15.022-5.318c-0.468-0.079-0.78-0.521-0.703-0.985
												c0.079-0.466,0.519-0.781,0.985-0.702c0.335,0.056,8.278,1.42,15.577,5.513
												C879.989,979.682,880.032,979.712,880.072,979.745z"/>
										</g>
									</g>
								</g>
							</g>
						</g>
					</g>
				</g>
			</g>
			<g>
				<g>
					<g>
						<g>
							<g>
								<g>
									<g>
										<g>
											<path style="fill:#EF7162;" d="M886.526,969.039c0.303,0.253,0.399,0.69,0.209,1.053
												c-0.219,0.418-0.736,0.58-1.155,0.361c-6.166-3.228-13.423-4.162-13.496-4.17c-0.469-0.057-0.801-0.486-0.742-0.955
												c0.058-0.468,0.486-0.801,0.955-0.742c0.308,0.039,7.638,0.982,14.077,4.353C886.43,968.966,886.479,969,886.526,969.039
												z"/>
										</g>
									</g>
								</g>
							</g>
						</g>
					</g>
				</g>
			</g>
		</g>
		<g>
			<g>
				<path d="M1122.615,1062.652l-0.464-0.131c-0.577-0.163-57.828-16.949-68.053-73.719l-0.077-0.427l55.047-51.351l1.085,1.162
					l-54.412,50.759c9.766,52.785,60.98,70.21,66.384,71.906l37.201-39.498l1.159,1.091L1122.615,1062.652z"/>
			</g>
		</g>
		<g>
			<g>
				<path d="M1220.04,1460.405c-0.052-0.99-5.165-99.761-6.849-169.733c-1.577-65.483,11.605-98.37,13.492-102.718
					c-4.894-5.329-58.576-63.759-72.479-78.24c-14.669-15.279-22.356-56.62-22.677-58.373l1.566-0.286
					c0.077,0.424,7.922,42.623,22.258,57.556c14.51,15.114,72.275,78.017,72.856,78.651l0.363,0.395l-0.232,0.486
					c-0.153,0.318-15.236,32.776-13.558,102.491c1.684,69.949,6.796,168.698,6.847,169.687L1220.04,1460.405z"/>
			</g>
		</g>
		<g>
			<g>
				<path d="M1231.58,1175.036c-45.059-43.595-69.021-76.794-69.257-77.125l1.293-0.926c0.236,0.329,24.124,33.422,69.071,76.908
					L1231.58,1175.036z"/>
			</g>
		</g>
		<g>
			<g>
				<path d="M1502.483,1404.302c-0.125-0.604-12.616-61.027-24.172-114.658c-11.371-52.772-16.863-59.623-17.092-59.888l-0.111-0.16
					c-22.492-42.853-72.392-81.603-72.894-81.988l-0.232-0.179l-0.061-0.287c-0.202-0.953-20.257-95.561-23.182-112.698
					c-6.399-37.489-28.913-69.085-29.139-69.4l1.291-0.929c0.229,0.317,22.955,32.215,29.417,70.062
					c2.84,16.639,21.887,106.578,23.11,112.352c3.751,2.94,51.183,40.633,73.062,82.258c0.775,0.991,6.41,9.58,17.386,60.522
					c11.557,53.638,24.05,114.067,24.175,114.67L1502.483,1404.302z"/>
			</g>
		</g>
		<g>
			<g>
				<path d="M1305.69,1163.395l-0.557-1.492c27.04-10.098,82.928-15.663,83.49-15.719l0.155,1.585
					C1388.219,1147.824,1332.535,1153.369,1305.69,1163.395z"/>
			</g>
		</g>
		<g>
			<g>
				<path d="M1397.413,1011.283l-1.28-0.945c19.374-26.275,24.133-58.547,24.683-62.759l-73.247-52.574l0.928-1.293l74.009,53.121
					l-0.051,0.462C1422.416,947.648,1418.338,982.905,1397.413,1011.283z"/>
			</g>
		</g>
		<g>
			<g>
				<g>
					<g>
						<path style="fill:#49263E;" d="M1117.891,779.489c0.597,18.664,1.068,37.251,0.982,55.796c0,9.27-0.223,18.523-0.572,27.745
							l-0.315,6.91l-0.45,6.89l-0.226,3.442l-0.315,3.427l-0.634,6.926c-0.935,9.602-0.662,19.475,1.398,29.094
							c2.026,9.61,5.864,18.91,11.34,27.041c5.445,8.158,12.407,15.134,20.162,20.73c7.737,5.636,16.21,10.024,25.044,13.19
							c-7.714-5.345-15.097-10.933-21.652-17.245c-6.527-6.326-12.228-13.319-16.609-20.991c-4.383-7.667-7.46-15.968-9.151-24.602
							c-1.702-8.634-2.096-17.559-1.525-26.498l0.422-6.998l0.214-3.535l0.122-3.531c0.076-2.354,0.152-4.709,0.182-7.06l0.016-7.05
							c-0.096-9.393-0.429-18.765-1.132-28.101C1123.767,816.402,1121.548,797.819,1117.891,779.489z"/>
					</g>
				</g>
			</g>
			<g>
				<g>
					<g>
						<g>
							<g>
								<path style="fill:#49263E;" d="M1107.354,773.131c0,0-23.031-20.84,1.424-49.668c15.666-18.468,30.974-6.599,43.087-8.929
									c12.114-2.33,39.329-15.137,56.531,0.816c17.202,15.954,21.994,28.522,38.369,43.356
									c15.979,14.476,105.389,78.561,111.81,143.369c0.066,0.665,0.125,1.335,0.177,2.01
									c4.453,57.545-47.076,85.642-102.872,100.408c-32.563,8.617-73.372-5.544-86.591-20.332
									c-28.367-31.735-42.82-79.504-45.37-131.365C1123.179,837.791,1125.832,791.99,1107.354,773.131z"/>
							</g>
						</g>
					</g>
				</g>
			</g>
		</g>
		<g>
			<g>
				<path d="M1398.516,1888.999l-19.327-240.95c-11.417-106.115-14.333-261.233-14.362-262.789l1.591-0.028
					c0.028,1.554,2.943,156.602,14.354,262.668l19.329,240.972L1398.516,1888.999z"/>
			</g>
		</g>
		<g>
			<g>
				<path d="M845.157,1089.33c-68.201-33.501-81.724-103.447-81.853-104.15l1.565-0.286c0.128,0.695,13.527,69.87,80.989,103.006
					L845.157,1089.33z"/>
			</g>
		</g>
	</g>
	<g>
		<g>
			<g>
				<rect x="215.27" y="820.793" style="fill:#49263E;" width="500.521" height="21.475"/>
			</g>
			<g>
				<path style="fill:#FFFFFF;" d="M377.319,932.964L377.319,932.964c-5.936-5.935-13.763-9.604-22.122-10.369l-50.677-4.634
					v189.179h54.553c15.886,0,28.764-12.878,28.764-28.764V958.356C387.837,948.832,384.054,939.698,377.319,932.964z
					 M363.04,1091.766c-6.299,0-11.406-5.107-11.406-11.406c0-6.3,5.107-11.406,11.406-11.406c6.3,0,11.406,5.107,11.406,11.406
					C374.447,1086.659,369.34,1091.766,363.04,1091.766z"/>
			</g>
			<g>
				<rect x="304.52" y="807.1" style="fill:#FEC786;" width="24.797" height="113.278"/>
			</g>
			<g>
				<path style="fill:#FFFFFF;" d="M416.173,1029.937V894.064l19.837,0.255v95.219
					C436.011,989.539,432.539,1029.937,416.173,1029.937z"/>
			</g>
			<g>
				<rect x="416.173" y="806.284" style="fill:#FEC786;" width="10.662" height="87.78"/>
			</g>
			<g>
				<path style="fill:#FFFFFF;" d="M234.662,892.206v199.098c0,0,32.732-67.127,31.74-199.098H234.662z"/>
			</g>
			<g>
				<rect x="234.662" y="804.426" style="fill:#FEC786;" width="15.126" height="87.78"/>
			</g>
			<g>
				<path style="fill:#FFFFFF;" d="M479.653,892.206v199.098c0,0,32.732-67.127,31.74-199.098H479.653z"/>
			</g>
			<g>
				<rect x="479.653" y="804.426" style="fill:#FEC786;" width="15.126" height="87.78"/>
			</g>
			<g>
				<rect x="556.639" y="811.387" style="fill:#FFFFFF;" width="6.943" height="185.231"/>
			</g>
			<g>
				<rect x="553.547" y="798.378" style="fill:#FEC786;" width="13.127" height="87.78"/>
			</g>
			<g>
				<path style="fill:#FFFFFF;" d="M578.154,992.512h-36.088c-4.341,0-7.861,3.519-7.861,7.861v50.075
					c0,4.341,3.519,7.861,7.861,7.861h36.088c4.341,0,7.86-3.519,7.86-7.861v-50.075
					C586.015,996.031,582.496,992.512,578.154,992.512z M546.912,1046.08c0,1.394-1.13,2.523-2.523,2.523s-2.523-1.13-2.523-2.523
					v-41.923c0-1.393,1.13-2.523,2.523-2.523s2.523,1.13,2.523,2.523V1046.08z M557.393,1046.08c0,1.394-1.13,2.523-2.523,2.523
					c-1.393,0-2.523-1.13-2.523-2.523v-41.923c0-1.393,1.13-2.523,2.523-2.523c1.394,0,2.523,1.13,2.523,2.523V1046.08z
					 M567.874,1046.08c0,1.394-1.13,2.523-2.523,2.523c-1.393,0-2.523-1.13-2.523-2.523v-41.923c0-1.393,1.13-2.523,2.523-2.523
					c1.393,0,2.523,1.13,2.523,2.523V1046.08z M578.354,1046.08c0,1.394-1.13,2.523-2.523,2.523c-1.394,0-2.523-1.13-2.523-2.523
					v-41.923c0-1.393,1.13-2.523,2.523-2.523c1.393,0,2.523,1.13,2.523,2.523V1046.08z"/>
			</g>
			<g>
				<rect x="674.439" y="811.387" style="fill:#FFFFFF;" width="6.943" height="185.231"/>
			</g>
			<g>
				<rect x="671.347" y="798.378" style="fill:#FEC786;" width="13.127" height="87.78"/>
			</g>
			<g>
				<rect x="617.027" y="811.387" style="fill:#FFFFFF;" width="3.967" height="185.231"/>
			</g>
			<g>
				<rect x="614.051" y="798.378" style="fill:#FEC786;" width="9.919" height="87.78"/>
			</g>
			<g>
				<path style="fill:#FFFFFF;" d="M619.01,991.259c-22.667,3.251-9.134,57.439-9.134,57.439
					c-0.806-46.535,9.134-46.535,9.134-46.535s9.94,0,9.134,46.535C628.144,1048.698,641.677,994.51,619.01,991.259z"/>
			</g>
			<g>
				<path style="fill:#FFFFFF;" d="M677.91,1021.912c16.237,0,29.4-13.163,29.4-29.4h-58.8
					C648.51,1008.749,661.673,1021.912,677.91,1021.912z"/>
			</g>
		</g>
		<g>
			<rect x="233.284" y="804.426" style="fill:#1D1D1B;" width="2.756" height="286.878"/>
		</g>
		<g>
			<rect x="303.142" y="807.1" style="fill:#1D1D1B;" width="2.756" height="300.04"/>
		</g>
		<g>
			<rect x="414.796" y="806.283" style="fill:#1D1D1B;" width="2.755" height="223.654"/>
		</g>
		<g>
			<rect x="478.275" y="804.426" style="fill:#1D1D1B;" width="2.755" height="283.425"/>
		</g>
		<g>
			<rect x="552.169" y="798.378" style="fill:#1D1D1B;" width="2.755" height="87.78"/>
		</g>
		<g>
			<rect x="612.673" y="798.378" style="fill:#1D1D1B;" width="2.755" height="87.78"/>
		</g>
		<g>
			<rect x="669.97" y="798.378" style="fill:#1D1D1B;" width="2.755" height="87.78"/>
		</g>
	</g>
	<g>
		<g>
			<g>
				<g>
					<g>
						<g>
							<g>
								<g>
									<path style="fill:#2D968C;" d="M1817.106,1250.585c1.243,0.79,2.645,1.546,4.107,1.367
										c1.317-0.161,2.409-1.047,3.479-1.831c7.508-5.5,17.612-7.279,26.547-4.673c9.09,2.652,18.55,9.514,27.025,5.291
										c7.639-3.806,9.152-14.502,16.03-19.555c4.166-3.061,9.782-3.637,13.882-6.784c3.388-2.6,5.32-6.621,7.131-10.489
										c3.539-7.559,7.079-15.117,10.618-22.676c3.79-8.093,7.566-17.724,3.28-25.566c-2.159-3.951-6.018-6.634-9.769-9.123
										c-6.437-4.272-14.919-8.462-21.404-4.263c-6.453,4.178-6.608,14.246-12.798,18.805c-3.306,2.435-7.647,2.773-11.726,3.231
										c-7.225,0.811-15.198,2.806-19.037,8.98c-2.187,3.516-2.722,7.991-5.459,11.098c-6.621,7.513-21.577,2.673-26.973,11.109
										c-1.145,1.79-1.623,3.931-2.673,5.778c-2.486,4.372-7.628,6.349-12.356,8.063c-6.969,2.527-18.544,9.822-10.305,18.2
										c2.171,2.208,5.685,2.016,8.288,3.445C1809.492,1243.463,1812.731,1247.805,1817.106,1250.585z"/>
								</g>
							</g>
						</g>
					</g>
				</g>
			</g>
		</g>
		<g>
			<g>
				<g>
					<g>
						<g>
							<g>
								<g>
									<path style="fill:#7FC6A6;" d="M1897.995,1202.272c-2.281,0.275-4.566,0.45-6.853,0.546
										c-1.292,0.046-2.6,0.069-3.894,0.052l3.742-2.595l7.152-5.318l3.56-2.658l3.47-2.796l6.925-5.583l-7.244,5.15l-3.618,2.575
										l-3.716,2.438l-7.426,4.86l-3.7,2.243c0.362-0.784,0.74-1.554,1.126-2.323c1.026-2.047,2.14-4.05,3.333-6.009
										c1.185-1.967,2.498-3.852,3.882-5.693c1.392-1.834,2.929-3.556,4.57-5.188c-1.811,1.436-3.549,2.993-5.164,4.679
										c-1.6,1.693-3.142,3.462-4.565,5.312c-1.431,1.851-2.797,3.761-4.075,5.731c-1.286,1.97-2.494,3.953-3.634,6.09
										c-0.022,0.047-0.051,0.103-0.072,0.158c-0.007,0.016-0.015,0.032-0.014,0.047c-1.014,0.62-2.036,1.249-3.059,1.846
										l-3.858,2.178c-2.575,1.447-5.125,2.94-7.725,4.333l-7.25,3.837c0.356-1.208,0.729-2.414,1.125-3.603
										c0.994-2.966,2.13-5.889,3.403-8.756c1.272-2.87,2.749-5.644,4.367-8.346c1.643-2.688,3.528-5.224,5.615-7.619
										c-2.316,2.164-4.48,4.523-6.417,7.068c-1.913,2.558-3.704,5.225-5.298,8.009c-1.594,2.783-3.06,5.645-4.388,8.576
										c-1.029,2.289-1.981,4.576-2.845,6.959l-0.002,0.001l-0.077,0.042l-3.967,1.972c-5.529,2.736-11.108,5.38-16.73,7.917
										c-0.001,0-0.001,0.001-0.002,0.001c0.033-0.183,0.065-0.368,0.099-0.549c0.256-1.353,0.566-2.7,0.921-4.036
										c0.714-2.671,1.628-5.295,2.786-7.814c1.161-2.516,2.585-4.919,4.339-7.089c0.889-1.072,1.859-2.082,2.911-3.013
										c1.067-0.912,2.222-1.727,3.449-2.441c-1.299,0.569-2.556,1.254-3.746,2.056c-1.175,0.821-2.288,1.74-3.331,2.74
										c-2.062,2.024-3.831,4.35-5.339,6.829c-1.506,2.482-2.774,5.109-3.841,7.815c-0.532,1.354-1.019,2.727-1.452,4.122
										c-0.328,1.066-0.63,2.105-0.897,3.208l0,0c-3.767,1.668-7.567,3.283-11.377,4.844l-8.198,3.29
										c-2.753,1.048-5.497,2.111-8.25,3.129c-2.762,1.009-5.516,2.026-8.295,2.974c-2.756,0.962-5.575,1.896-8.28,2.74
										l-0.085,0.026c-0.077,0.018-0.154,0.052-0.231,0.078c-2.214,0.842-3.327,3.313-2.485,5.527
										c0.834,2.214,3.313,3.327,5.527,2.485c2.891-1.092,5.634-2.194,8.406-3.352c2.773-1.142,5.512-2.338,8.252-3.526
										c2.739-1.203,5.446-2.453,8.168-3.679l8.086-3.824c3.908-1.876,7.782-3.813,11.631-5.796
										c0.003-0.001,0.006-0.003,0.009-0.005c3.179,0.62,6.324,1.101,9.509,1.504c3.906,0.484,7.828,0.811,11.751,0.986
										c3.923,0.183,7.856,0.122,11.766-0.091c3.912-0.24,7.798-0.776,11.618-1.546c-3.876,0.45-7.759,0.658-11.639,0.572
										c-3.878-0.112-7.744-0.374-11.583-0.876c-3.839-0.493-7.654-1.135-11.433-1.926c-1.708-0.361-3.421-0.754-5.121-1.173
										c5.083-2.695,10.116-5.474,15.108-8.329l1.627-0.938l0.008-0.005c0.178,0.066,0.365,0.116,0.565,0.127
										c4.021,0.228,7.922,0.226,11.87,0.107c3.934-0.128,7.859-0.414,11.762-0.85c3.905-0.428,7.779-1.099,11.609-1.916
										c3.828-0.844,7.583-1.977,11.237-3.33c-3.759,1.046-7.563,1.854-11.409,2.372c-3.849,0.492-7.708,0.832-11.579,0.933
										c-3.868,0.109-7.737,0.067-11.594-0.128c-2.314-0.121-4.643-0.297-6.948-0.526l0.562-0.341l7.62-4.641
										c2.532-1.562,5.005-3.224,7.505-4.824l3.74-2.423c0.849-0.569,1.691-1.158,2.532-1.742c0.682-0.08,1.706-0.215,1.785-0.218
										c2.418-0.156,4.722-0.432,7.048-0.779c2.325-0.355,4.624-0.803,6.903-1.335c2.28-0.525,4.524-1.197,6.726-1.952
										c2.209-0.772,4.342-1.704,6.401-2.759c-2.169,0.817-4.373,1.503-6.615,2.011
										C1902.53,1201.605,1900.269,1202.013,1897.995,1202.272z"/>
								</g>
							</g>
						</g>
					</g>
				</g>
			</g>
		</g>
		<g>
			<g>
				<g>
					<g>
						<g>
							<g>
								<g>
									<path style="fill:#258D8C;" d="M1834.511,1272.019c12.955,0.859,22.361,5.538,30.211,9.938
										c10.529,5.903,23.351,6.073,33.943,0.283c30.327-16.579,75.934-50.038,49.822-71.447
										c-7.964-6.529-19.337-6.515-27.721-0.534c-17.096,12.196-26.663-1.187-41.009,8.868
										c-8.678,6.082-18.503,10.339-28.978,11.939c-23.294,3.558-49.615,8.559-38.602,27.443
										C1816.822,1266.476,1825.308,1271.409,1834.511,1272.019z"/>
								</g>
							</g>
						</g>
					</g>
				</g>
			</g>
		</g>
		<g>
			<g>
				<g>
					<g>
						<g>
							<g>
								<g>
									<path style="fill:#7FC6A6;" d="M1914.178,1244.299c-2.273-0.341-4.521-0.779-6.752-1.294
										c-1.258-0.299-2.525-0.625-3.768-0.984l4.297-1.508l8.308-3.227l4.139-1.617l4.088-1.773l8.159-3.543l-8.352,3.041
										l-4.172,1.521l-4.23,1.363l-8.45,2.713l-4.163,1.179c0.557-0.66,1.126-1.301,1.703-1.941
										c1.533-1.7,3.139-3.336,4.809-4.908c1.665-1.581,3.431-3.05,5.255-4.458c1.829-1.398,3.768-2.65,5.784-3.787
										c-2.128,0.903-4.216,1.943-6.222,3.139c-1.992,1.207-3.949,2.503-5.812,3.909c-1.871,1.404-3.695,2.883-5.451,4.443
										c-1.763,1.558-3.455,3.149-5.121,4.906c-0.033,0.04-0.076,0.086-0.112,0.134c-0.011,0.013-0.022,0.027-0.026,0.042
										c-1.143,0.329-2.295,0.663-3.44,0.967l-4.298,1.075c-2.867,0.711-5.721,1.473-8.598,2.126l-8.008,1.773
										c0.664-1.07,1.345-2.134,2.042-3.175c1.746-2.596,3.618-5.111,5.607-7.538c1.989-2.429,4.15-4.711,6.428-6.886
										c2.298-2.155,4.789-4.099,7.437-5.853c-2.808,1.471-5.52,3.171-8.065,5.109c-2.523,1.958-4.959,4.053-7.235,6.314
										c-2.277,2.259-4.45,4.63-6.509,7.102c-1.6,1.933-3.125,3.885-4.591,5.953l-0.003,0l-0.085,0.02l-4.348,0.847
										c-6.057,1.169-12.139,2.236-18.232,3.188c-0.001,0-0.002,0-0.002,0c0.08-0.168,0.16-0.337,0.241-0.503
										c0.607-1.237,1.263-2.453,1.96-3.647c1.398-2.385,2.976-4.672,4.761-6.793c1.788-2.118,3.799-4.056,6.067-5.681
										c1.142-0.798,2.345-1.514,3.607-2.132c1.271-0.596,2.601-1.075,3.974-1.437c-1.404,0.203-2.797,0.53-4.158,0.987
										c-1.351,0.479-2.668,1.07-3.939,1.757c-2.526,1.403-4.849,3.176-6.962,5.165c-2.111,1.993-4.031,4.188-5.779,6.514
										c-0.873,1.164-1.707,2.359-2.495,3.588c-0.599,0.941-1.166,1.862-1.717,2.855h0c-4.075,0.608-8.167,1.155-12.255,1.648
										l-8.777,0.994c-2.932,0.279-5.86,0.576-8.785,0.824c-2.931,0.24-5.855,0.488-8.787,0.664
										c-2.912,0.196-5.878,0.347-8.71,0.442l-0.089,0.003c-0.079-0.003-0.162,0.01-0.244,0.014
										c-2.358,0.224-4.087,2.31-3.864,4.668c0.216,2.357,2.31,4.087,4.668,3.864c3.077-0.284,6.014-0.619,8.994-0.998
										c2.976-0.365,5.935-0.79,8.892-1.207c2.96-0.433,5.901-0.918,8.852-1.377l8.811-1.539c4.266-0.77,8.515-1.609,12.753-2.498
										c0.003-0.001,0.006-0.001,0.01-0.002c2.9,1.442,5.805,2.742,8.768,3.976c3.638,1.504,7.331,2.862,11.067,4.072
										c3.734,1.219,7.541,2.205,11.367,3.038c3.836,0.808,7.724,1.324,11.611,1.596c-3.856-0.596-7.655-1.427-11.373-2.54
										c-3.709-1.138-7.366-2.418-10.935-3.921c-3.57-1.495-7.077-3.127-10.51-4.894c-1.551-0.802-3.098-1.635-4.626-2.491
										c5.616-1.248,11.207-2.59,16.777-4.017l1.818-0.472l0.009-0.002c0.154,0.111,0.321,0.209,0.511,0.273
										c3.816,1.288,7.578,2.322,11.415,3.256c3.827,0.922,7.687,1.689,11.565,2.305c3.878,0.624,7.792,1.008,11.701,1.236
										c3.915,0.203,7.836,0.109,11.718-0.225c-3.902,0.01-7.783-0.222-11.629-0.744c-3.841-0.548-7.652-1.245-11.411-2.177
										c-3.758-0.923-7.477-1.99-11.143-3.203c-2.199-0.732-4.397-1.519-6.558-2.352l0.633-0.18l8.579-2.45
										c2.856-0.833,5.682-1.778,8.517-2.657l4.25-1.343c0.97-0.323,1.938-0.667,2.905-1.007c0.679,0.104,1.701,0.245,1.779,0.264
										c2.372,0.492,4.668,0.838,7.002,1.121c2.336,0.276,4.671,0.454,7.01,0.547c2.338,0.1,4.679,0.048,7.003-0.096
										c2.335-0.157,4.639-0.49,6.904-0.959c-2.308,0.211-4.615,0.287-6.911,0.181
										C1918.727,1244.86,1916.439,1244.652,1914.178,1244.299z"/>
								</g>
							</g>
						</g>
					</g>
				</g>
			</g>
		</g>
		<g>
			<g>
				<g>
					<g>
						<g>
							<g>
								<g>
									<path d="M1809.472,1252.889c-0.649-3.099-0.114-5.915,1.59-8.371c5.57-8.03,22.645-11.239,39.658-13.837
										c10.073-1.539,19.767-5.533,28.813-11.873c6.947-4.869,12.719-4.341,18.829-3.782c6.558,0.6,13.339,1.221,22.177-5.085
										l0.453,0.635c-9.073,6.473-16.001,5.839-22.701,5.226c-5.964-0.546-11.597-1.062-18.311,3.644
										c-9.145,6.409-18.95,10.449-29.143,12.005c-16.845,2.572-33.741,5.735-39.136,13.51c-1.599,2.306-2.079,4.846-1.468,7.768
										L1809.472,1252.889z"/>
								</g>
							</g>
						</g>
					</g>
				</g>
			</g>
		</g>
		<g>
			<g>
				<g>
					<g>
						<g>
							<g>
								<g>
									<path d="M1873.847,1285.944c-3.204-0.762-6.338-1.978-9.315-3.647c-7.729-4.333-17.061-9.03-30.046-9.889l0.052-0.777
										c13.148,0.874,22.573,5.612,30.375,9.987c10.537,5.905,23.083,6.012,33.566,0.281l0.374,0.683
										C1891.095,1286.822,1882.234,1287.938,1873.847,1285.944z"/>
								</g>
							</g>
						</g>
					</g>
				</g>
			</g>
		</g>
		<g>
			<g>
				<g>
					<g>
						<g>
							<g>
								<g>
									<path d="M1796.427,1237.82c-2.444-2.485-3.381-5.075-2.785-7.7c1.156-5.098,7.852-9.187,13.236-11.139
										c4.301-1.56,9.654-3.501,12.15-7.889c0.471-0.827,0.834-1.742,1.186-2.628c0.423-1.067,0.861-2.171,1.499-3.167
										c2.899-4.531,8.498-5.363,13.912-6.167c4.92-0.731,10.009-1.487,13.096-4.989c1.526-1.733,2.338-3.878,3.197-6.15
										c0.627-1.656,1.274-3.369,2.224-4.897c4.19-6.737,13.036-8.455,19.325-9.161l0.775-0.085
										c3.811-0.419,7.752-0.852,10.764-3.072c2.936-2.162,4.522-5.7,6.055-9.122c1.652-3.684,3.359-7.493,6.762-9.697
										c5.247-3.397,12.387-2.001,21.831,4.266c4.151,2.755,7.76,5.354,9.895,9.261c4.197,7.679,0.909,16.995-3.27,25.918
										l-0.705-0.33c4.092-8.737,7.322-17.839,3.291-25.214c-2.05-3.751-5.58-6.289-9.643-8.986
										c-9.158-6.078-16.018-7.471-20.978-4.261c-3.21,2.078-4.795,5.616-6.474,9.362c-1.575,3.514-3.204,7.146-6.304,9.43
										c-3.181,2.344-7.227,2.788-11.14,3.219l-0.774,0.085c-6.128,0.688-14.739,2.349-18.75,8.798
										c-0.91,1.464-1.544,3.14-2.157,4.761c-0.846,2.238-1.721,4.551-3.341,6.389c-3.275,3.717-8.507,4.494-13.566,5.245
										c-5.484,0.814-10.663,1.583-13.372,5.817c-0.597,0.934-1.002,1.954-1.431,3.034c-0.361,0.91-0.734,1.852-1.232,2.726
										c-2.638,4.638-8.14,6.633-12.562,8.237c-4.186,1.518-11.58,5.454-12.742,10.579c-0.533,2.35,0.336,4.699,2.581,6.982
										L1796.427,1237.82z"/>
								</g>
							</g>
						</g>
					</g>
				</g>
			</g>
		</g>
		<g>
			<g>
				<g>
					<g>
						<g>
							<g>
								<g>
									<path d="M1799.306,1258.093l-0.054-0.777c0.273-0.019,27.38-1.908,42.432-4.358l0.125,0.769
										C1826.722,1256.182,1799.578,1258.074,1799.306,1258.093z"/>
								</g>
							</g>
						</g>
					</g>
				</g>
			</g>
		</g>
		<g>
			<g>
				<g>
					<g>
						<g>
							<g>
								<g>
									<path d="M1857.146,1256.1l-0.189-0.755l10.26-2.567l0.116,0.046c0.212,0.083,21.32,8.22,46.748,6.818l0.043,0.778
										c-24.615,1.358-45.213-6.168-46.957-6.826L1857.146,1256.1z"/>
								</g>
							</g>
						</g>
					</g>
				</g>
			</g>
		</g>
		<g>
			<g>
				<g>
					<g>
						<g>
							<g>
								<g>
									<path d="M1792.243,1245.641l-0.263-0.733c0.259-0.093,25.915-9.337,38.252-14.949c0.56-2.375,5.819-23.196,18.838-26.87
										l0.211,0.749c-13.073,3.69-18.281,26.254-18.333,26.481l-0.043,0.188l-0.175,0.08
										C1818.432,1236.205,1792.504,1245.546,1792.243,1245.641z"/>
								</g>
							</g>
						</g>
					</g>
				</g>
			</g>
		</g>
		<g>
			<g>
				<g>
					<g>
						<g>
							<g>
								<g>
									<path d="M1848.067,1222.557l-0.345-0.698l7.407-3.662c0.643-1.859,7.064-19.786,19.007-30.624l0.523,0.576
										c-12.389,11.245-18.78,30.258-18.843,30.448l-0.051,0.154L1848.067,1222.557z"/>
								</g>
							</g>
						</g>
					</g>
				</g>
			</g>
		</g>
		<g>
			<g>
				<g>
					<g>
						<g>
							<g>
								<path d="M1948.967,1234.584l-0.635-0.451c2.913-4.097,2.85-8.514,2.849-8.558l0.778-0.018
									C1951.964,1225.747,1952.035,1230.268,1948.967,1234.584z"/>
							</g>
						</g>
					</g>
				</g>
			</g>
		</g>
		<g>
			<g>
				<g>
					<g>
						<g>
							<g>
								<path d="M1945.03,1235.726l-0.635-0.451c2.914-4.097,2.85-8.513,2.85-8.557l0.778-0.018
									C1948.027,1226.889,1948.098,1231.41,1945.03,1235.726z"/>
							</g>
						</g>
					</g>
				</g>
			</g>
		</g>
		<g>
			<g>
				<g>
					<g>
						<g>
							<g>
								<g>
									<path d="M1901.809,1154.471l-0.002-0.779c0.285,0,7.027-0.006,9.355,1.527l-0.428,0.65
										C1908.601,1154.465,1901.877,1154.469,1901.809,1154.471z"/>
								</g>
							</g>
						</g>
					</g>
				</g>
			</g>
		</g>
		<g>
			<g>
				<g>
					<g>
						<g>
							<g>
								<g>
									<path d="M1903.515,1157.753l-0.002-0.779c0.285,0,7.029-0.006,9.354,1.527l-0.428,0.65
										C1910.306,1157.748,1903.583,1157.752,1903.515,1157.753z"/>
								</g>
							</g>
						</g>
					</g>
				</g>
			</g>
		</g>
	</g>
	<g>
		<g>
			<g>
				<g>
					<g>
						<g>
							<g>
								<g>
									<path style="fill:#116D6A;" d="M1865.055,1236.11c-1.119,0.711-2.381,1.392-3.697,1.231
										c-1.185-0.145-2.169-0.943-3.132-1.648c-6.759-4.952-15.855-6.553-23.898-4.206c-8.183,2.387-16.7,8.565-24.329,4.763
										c-6.877-3.427-8.24-13.055-14.431-17.604c-3.75-2.755-8.806-3.274-12.497-6.107c-3.05-2.341-4.789-5.961-6.42-9.443
										c-3.186-6.805-6.373-13.609-9.559-20.414c-3.412-7.286-6.812-15.956-2.953-23.016c1.944-3.557,5.418-5.972,8.795-8.213
										c5.795-3.846,13.431-7.618,19.269-3.838c5.809,3.761,5.949,12.825,11.521,16.929c2.976,2.192,6.884,2.496,10.557,2.909
										c6.505,0.73,13.682,2.526,17.138,8.084c1.969,3.166,2.45,7.194,4.915,9.991c5.961,6.764,19.424,2.406,24.283,10.001
										c1.031,1.611,1.461,3.539,2.406,5.202c2.238,3.935,6.867,5.715,11.124,7.259c6.274,2.275,16.694,8.843,9.277,16.385
										c-1.954,1.987-5.118,1.814-7.461,3.101C1871.909,1229.698,1868.993,1233.607,1865.055,1236.11z"/>
								</g>
							</g>
						</g>
					</g>
				</g>
			</g>
		</g>
		<g>
			<g>
				<g>
					<g>
						<g>
							<g>
								<g>
									<path style="fill:#7FC6A6;" d="M1792.234,1192.617c2.054,0.248,4.111,0.405,6.17,0.492
										c1.163,0.041,2.341,0.062,3.506,0.047l-3.369-2.336l-6.439-4.788l-3.205-2.393l-3.124-2.517l-6.234-5.026l6.521,4.636
										l3.257,2.318l3.346,2.195l6.685,4.375l3.331,2.019c-0.326-0.706-0.666-1.398-1.014-2.091c-0.924-1.843-1.926-3.646-3-5.41
										c-1.067-1.771-2.248-3.468-3.495-5.125c-1.253-1.651-2.637-3.201-4.114-4.67c1.631,1.292,3.195,2.695,4.649,4.212
										c1.44,1.524,2.829,3.116,4.11,4.782c1.288,1.666,2.518,3.386,3.668,5.16c1.158,1.774,2.245,3.559,3.272,5.482
										c0.019,0.043,0.046,0.093,0.065,0.142c0.007,0.014,0.013,0.029,0.013,0.043c0.913,0.558,1.833,1.124,2.754,1.662
										l3.473,1.961c2.318,1.303,4.613,2.647,6.954,3.901l6.527,3.454c-0.32-1.088-0.657-2.174-1.013-3.244
										c-0.895-2.67-1.918-5.301-3.064-7.883c-1.145-2.584-2.475-5.081-3.932-7.514c-1.479-2.42-3.176-4.703-5.055-6.859
										c2.086,1.948,4.033,4.072,5.777,6.363c1.722,2.303,3.335,4.704,4.769,7.211c1.435,2.505,2.755,5.082,3.951,7.72
										c0.926,2.061,1.783,4.12,2.561,6.265l0.002,0.001l0.069,0.037l3.571,1.775c4.978,2.463,10,4.843,15.062,7.127
										c0.001,0,0.001,0,0.002,0.001c-0.03-0.165-0.058-0.331-0.089-0.495c-0.231-1.218-0.509-2.431-0.829-3.634
										c-0.643-2.404-1.466-4.767-2.508-7.034c-1.045-2.266-2.327-4.429-3.907-6.382c-0.801-0.965-1.673-1.874-2.62-2.713
										c-0.961-0.821-2-1.555-3.105-2.198c1.169,0.512,2.301,1.129,3.373,1.851c1.058,0.739,2.059,1.567,2.998,2.467
										c1.856,1.822,3.449,3.916,4.807,6.148c1.356,2.235,2.497,4.599,3.458,7.035c0.479,1.219,0.917,2.455,1.307,3.711
										c0.295,0.959,0.567,1.895,0.807,2.889c0,0,0,0,0,0c3.391,1.502,6.812,2.956,10.242,4.361l7.38,2.962
										c2.478,0.944,4.949,1.901,7.427,2.816c2.486,0.909,4.965,1.824,7.467,2.677c2.481,0.867,5.019,1.707,7.454,2.467
										l0.076,0.024c0.07,0.017,0.139,0.047,0.208,0.071c1.993,0.758,2.995,2.982,2.237,4.976
										c-0.751,1.994-2.982,2.995-4.976,2.237c-2.603-0.983-5.072-1.975-7.568-3.018c-2.496-1.028-4.962-2.105-7.429-3.174
										c-2.466-1.083-4.902-2.208-7.354-3.312l-7.279-3.443c-3.518-1.689-7.006-3.433-10.471-5.218
										c-0.003-0.002-0.005-0.003-0.008-0.004c-2.862,0.558-5.693,0.992-8.56,1.354c-3.517,0.436-7.047,0.73-10.579,0.887
										c-3.532,0.165-7.072,0.11-10.592-0.082c-3.522-0.216-7.02-0.698-10.459-1.391c3.489,0.405,6.985,0.592,10.478,0.515
										c3.491-0.101,6.972-0.337,10.428-0.788c3.456-0.444,6.89-1.021,10.293-1.734c1.538-0.325,3.08-0.678,4.61-1.056
										c-4.576-2.426-9.107-4.928-13.601-7.499l-1.464-0.844l-0.007-0.004c-0.161,0.06-0.329,0.104-0.509,0.115
										c-3.62,0.206-7.132,0.203-10.686,0.096c-3.542-0.115-7.075-0.372-10.589-0.766c-3.515-0.385-7.003-0.989-10.451-1.725
										c-3.446-0.76-6.827-1.779-10.116-2.998c3.384,0.942,6.808,1.669,10.271,2.135c3.465,0.443,6.939,0.749,10.424,0.84
										c3.483,0.098,6.965,0.061,10.437-0.116c2.083-0.109,4.18-0.267,6.255-0.473l-0.506-0.307l-6.86-4.178
										c-2.279-1.406-4.506-2.902-6.756-4.343l-3.367-2.182c-0.765-0.512-1.522-1.043-2.28-1.568
										c-0.614-0.072-1.535-0.194-1.607-0.196c-2.177-0.14-4.251-0.389-6.345-0.702c-2.093-0.319-4.162-0.722-6.215-1.202
										c-2.053-0.472-4.073-1.077-6.055-1.757c-1.989-0.695-3.909-1.534-5.763-2.484c1.952,0.735,3.937,1.353,5.955,1.81
										C1788.152,1192.016,1790.187,1192.383,1792.234,1192.617z"/>
								</g>
							</g>
						</g>
					</g>
				</g>
			</g>
		</g>
		<g>
			<g>
				<g>
					<g>
						<g>
							<g>
								<g>
									<path style="fill:#116D6A;" d="M1849.386,1255.406c-11.662,0.773-20.131,4.985-27.197,8.947
										c-9.479,5.315-21.022,5.468-30.557,0.255c-27.302-14.926-68.36-45.047-44.852-64.32c7.169-5.878,17.408-5.865,24.956-0.481
										c15.39,10.979,24.003-1.069,36.919,7.983c7.812,5.476,16.657,9.308,26.088,10.748c20.971,3.203,44.666,7.705,34.751,24.705
										C1865.31,1250.416,1857.671,1254.857,1849.386,1255.406z"/>
								</g>
							</g>
						</g>
					</g>
				</g>
			</g>
		</g>
		<g>
			<g>
				<g>
					<g>
						<g>
							<g>
								<g>
									<path style="fill:#7FC6A6;" d="M1777.666,1230.451c2.046-0.306,4.07-0.702,6.079-1.165
										c1.132-0.269,2.273-0.562,3.392-0.886l-3.868-1.357l-7.479-2.905l-3.726-1.456l-3.68-1.596l-7.345-3.189l7.518,2.737
										l3.756,1.37l3.808,1.227l7.607,2.442l3.747,1.062c-0.502-0.594-1.014-1.171-1.532-1.747
										c-1.38-1.531-2.826-3.003-4.33-4.418c-1.499-1.423-3.089-2.746-4.73-4.013c-1.647-1.259-3.392-2.385-5.207-3.41
										c1.916,0.813,3.796,1.749,5.601,2.826c1.793,1.087,3.555,2.253,5.233,3.519c1.684,1.264,3.327,2.595,4.907,4
										c1.587,1.402,3.11,2.835,4.61,4.416c0.03,0.036,0.069,0.078,0.1,0.12c0.01,0.012,0.02,0.024,0.023,0.038
										c1.029,0.296,2.066,0.597,3.097,0.871l3.869,0.968c2.581,0.64,5.151,1.326,7.74,1.914l7.209,1.596
										c-0.598-0.964-1.211-1.921-1.838-2.858c-1.572-2.337-3.257-4.602-5.048-6.786c-1.79-2.187-3.736-4.241-5.786-6.199
										c-2.069-1.94-4.311-3.691-6.695-5.269c2.528,1.324,4.97,2.854,7.26,4.599c2.272,1.763,4.464,3.649,6.513,5.685
										c2.05,2.034,4.006,4.168,5.86,6.393c1.44,1.74,2.814,3.498,4.133,5.359l0.002,0l0.076,0.018l3.914,0.762
										c5.453,1.052,10.928,2.013,16.414,2.87c0.001,0,0.001,0,0.002,0c-0.072-0.151-0.144-0.304-0.217-0.453
										c-0.546-1.113-1.137-2.208-1.765-3.283c-1.259-2.147-2.679-4.206-4.286-6.115c-1.609-1.906-3.42-3.651-5.461-5.115
										c-1.028-0.718-2.111-1.363-3.247-1.919c-1.144-0.536-2.341-0.967-3.577-1.294c1.263,0.183,2.518,0.476,3.743,0.888
										c1.216,0.431,2.401,0.963,3.546,1.582c2.274,1.263,4.365,2.859,6.267,4.65c1.9,1.794,3.629,3.771,5.203,5.864
										c0.786,1.048,1.536,2.123,2.246,3.23c0.539,0.847,1.05,1.676,1.546,2.57c0,0,0,0,0,0c3.669,0.547,7.353,1.04,11.032,1.484
										l7.902,0.895c2.64,0.251,5.276,0.518,7.909,0.742c2.638,0.216,5.271,0.44,7.91,0.597c2.622,0.176,5.292,0.313,7.841,0.398
										l0.08,0.003c0.071-0.003,0.146,0.008,0.219,0.013c2.123,0.201,3.68,2.079,3.478,4.203c-0.194,2.122-2.079,3.68-4.202,3.479
										c-2.771-0.256-5.415-0.557-8.097-0.899c-2.68-0.328-5.343-0.711-8.005-1.087c-2.665-0.39-5.313-0.826-7.969-1.239
										l-7.932-1.385c-3.84-0.694-7.666-1.448-11.481-2.249c-0.003-0.001-0.006-0.001-0.009-0.002
										c-2.611,1.298-5.226,2.468-7.893,3.579c-3.275,1.354-6.6,2.576-9.963,3.666c-3.361,1.097-6.789,1.985-10.234,2.735
										c-3.453,0.728-6.953,1.191-10.453,1.437c3.472-0.536,6.891-1.285,10.238-2.287c3.339-1.025,6.631-2.177,9.844-3.53
										c3.214-1.346,6.371-2.815,9.462-4.406c1.396-0.722,2.789-1.472,4.164-2.243c-5.056-1.124-10.089-2.332-15.104-3.616
										l-1.636-0.425l-0.008-0.002c-0.139,0.1-0.289,0.188-0.46,0.245c-3.435,1.16-6.822,2.091-10.276,2.931
										c-3.445,0.829-6.92,1.521-10.411,2.075c-3.491,0.562-7.015,0.907-10.534,1.113c-3.524,0.183-7.054,0.098-10.549-0.203
										c3.513,0.009,7.007-0.2,10.469-0.67c3.458-0.494,6.889-1.121,10.272-1.959c3.384-0.831,6.731-1.792,10.031-2.884
										c1.979-0.659,3.958-1.368,5.904-2.118l-0.57-0.162l-7.723-2.206c-2.571-0.75-5.115-1.601-7.667-2.392l-3.826-1.209
										c-0.873-0.291-1.744-0.601-2.615-0.906c-0.611,0.094-1.532,0.221-1.601,0.238c-2.136,0.443-4.202,0.754-6.303,1.009
										c-2.103,0.248-4.205,0.409-6.311,0.492c-2.104,0.09-4.213,0.043-6.304-0.086c-2.102-0.142-4.176-0.441-6.215-0.864
										c2.077,0.19,4.154,0.258,6.222,0.163C1773.571,1230.957,1775.63,1230.77,1777.666,1230.451z"/>
								</g>
							</g>
						</g>
					</g>
				</g>
			</g>
		</g>
		<g>
			<g>
				<g>
					<g>
						<g>
							<g>
								<g>
									<path d="M1871.927,1238.185c0.584-2.79,0.102-5.325-1.432-7.536c-5.014-7.229-20.386-10.117-35.702-12.456
										c-9.068-1.385-17.795-4.981-25.939-10.688c-6.254-4.384-11.45-3.908-16.951-3.405c-5.904,0.541-12.008,1.099-19.965-4.578
										l-0.407,0.571c8.168,5.827,14.405,5.256,20.436,4.704c5.369-0.492,10.44-0.956,16.485,3.281
										c8.233,5.769,17.06,9.406,26.236,10.808c15.164,2.315,30.375,5.162,35.232,12.162c1.439,2.076,1.871,4.363,1.321,6.993
										L1871.927,1238.185z"/>
								</g>
							</g>
						</g>
					</g>
				</g>
			</g>
		</g>
		<g>
			<g>
				<g>
					<g>
						<g>
							<g>
								<g>
									<path d="M1813.974,1267.942c2.884-0.686,5.705-1.781,8.386-3.284c6.958-3.9,15.359-8.129,27.049-8.903l-0.047-0.7
										c-11.836,0.787-20.321,5.053-27.345,8.991c-9.486,5.316-20.781,5.413-30.218,0.253l-0.336,0.615
										C1798.446,1268.732,1806.424,1269.737,1813.974,1267.942z"/>
								</g>
							</g>
						</g>
					</g>
				</g>
			</g>
		</g>
		<g>
			<g>
				<g>
					<g>
						<g>
							<g>
								<g>
									<path d="M1883.672,1224.619c2.2-2.237,3.043-4.569,2.507-6.932c-1.041-4.59-7.069-8.271-11.916-10.028
										c-3.872-1.404-8.691-3.152-10.938-7.102c-0.424-0.745-0.751-1.569-1.068-2.366c-0.38-0.961-0.775-1.954-1.349-2.851
										c-2.61-4.079-7.65-4.828-12.525-5.552c-4.429-0.658-9.011-1.338-11.79-4.492c-1.374-1.56-2.105-3.492-2.878-5.536
										c-0.564-1.491-1.147-3.033-2.002-4.409c-3.772-6.065-11.736-7.611-17.398-8.247l-0.698-0.077
										c-3.431-0.378-6.978-0.768-9.69-2.766c-2.643-1.946-4.071-5.132-5.451-8.212c-1.487-3.316-3.024-6.746-6.088-8.729
										c-4.723-3.058-11.151-1.802-19.654,3.841c-3.736,2.48-6.986,4.82-8.908,8.338c-3.779,6.913-0.819,15.299,2.943,23.332
										l0.635-0.297c-3.684-7.866-6.592-16.06-2.963-22.698c1.846-3.377,5.024-5.662,8.681-8.089
										c8.244-5.472,14.42-6.726,18.885-3.836c2.89,1.871,4.317,5.056,5.828,8.428c1.418,3.163,2.884,6.434,5.675,8.49
										c2.864,2.11,6.506,2.51,10.029,2.898l0.697,0.077c5.517,0.619,13.268,2.115,16.88,7.92c0.819,1.318,1.39,2.827,1.942,4.286
										c0.762,2.015,1.549,4.097,3.008,5.752c2.949,3.347,7.658,4.046,12.212,4.722c4.936,0.733,9.599,1.425,12.038,5.237
										c0.538,0.84,0.902,1.76,1.288,2.732c0.325,0.819,0.661,1.667,1.109,2.454c2.375,4.176,7.328,5.971,11.309,7.415
										c3.768,1.366,10.425,4.91,11.471,9.524c0.48,2.115-0.302,4.23-2.324,6.285L1883.672,1224.619z"/>
								</g>
							</g>
						</g>
					</g>
				</g>
			</g>
		</g>
		<g>
			<g>
				<g>
					<g>
						<g>
							<g>
								<g>
									<path d="M1881.079,1242.869l0.049-0.7c-0.245-0.017-24.649-1.717-38.199-3.923l-0.113,0.692
										C1856.398,1241.149,1880.834,1242.852,1881.079,1242.869z"/>
								</g>
							</g>
						</g>
					</g>
				</g>
			</g>
		</g>
		<g>
			<g>
				<g>
					<g>
						<g>
							<g>
								<g>
									<path d="M1829.009,1241.075l0.171-0.68l-9.236-2.311l-0.104,0.041c-0.19,0.075-19.193,7.4-42.085,6.138l-0.039,0.7
										c22.16,1.222,40.702-5.553,42.273-6.145L1829.009,1241.075z"/>
								</g>
							</g>
						</g>
					</g>
				</g>
			</g>
		</g>
		<g>
			<g>
				<g>
					<g>
						<g>
							<g>
								<g>
									<path d="M1887.437,1231.659l0.237-0.66c-0.233-0.084-23.33-8.406-34.436-13.458c-0.504-2.138-5.239-20.882-16.959-24.19
										l-0.19,0.674c11.769,3.322,16.458,23.635,16.504,23.84l0.038,0.17l0.158,0.072
										C1863.861,1223.165,1887.202,1231.574,1887.437,1231.659z"/>
								</g>
							</g>
						</g>
					</g>
				</g>
			</g>
		</g>
		<g>
			<g>
				<g>
					<g>
						<g>
							<g>
								<g>
									<path d="M1837.182,1210.878l0.311-0.628l-6.668-3.297c-0.579-1.674-6.359-17.812-17.111-27.569l-0.471,0.519
										c11.153,10.123,16.906,27.239,16.963,27.411l0.046,0.139L1837.182,1210.878z"/>
								</g>
							</g>
						</g>
					</g>
				</g>
			</g>
		</g>
		<g>
			<g>
				<g>
					<g>
						<g>
							<g>
								<path d="M1746.347,1221.706l0.572-0.406c-2.622-3.689-2.565-7.665-2.565-7.704l-0.701-0.016
									C1743.649,1213.75,1743.585,1217.82,1746.347,1221.706z"/>
							</g>
						</g>
					</g>
				</g>
			</g>
		</g>
		<g>
			<g>
				<g>
					<g>
						<g>
							<g>
								<path d="M1749.891,1222.733l0.572-0.406c-2.623-3.688-2.566-7.664-2.565-7.703l-0.701-0.016
									C1747.193,1214.778,1747.129,1218.848,1749.891,1222.733z"/>
							</g>
						</g>
					</g>
				</g>
			</g>
		</g>
		<g>
			<g>
				<g>
					<g>
						<g>
							<g>
								<g>
									<path d="M1788.802,1149.583l0.002-0.701c-0.257,0-6.327-0.006-8.422,1.375l0.385,0.585
										C1782.687,1149.578,1788.74,1149.583,1788.802,1149.583z"/>
								</g>
							</g>
						</g>
					</g>
				</g>
			</g>
		</g>
		<g>
			<g>
				<g>
					<g>
						<g>
							<g>
								<g>
									<path d="M1787.266,1152.538l0.002-0.701c-0.257,0-6.328-0.006-8.421,1.374l0.385,0.585
										C1781.152,1152.534,1787.204,1152.537,1787.266,1152.538z"/>
								</g>
							</g>
						</g>
					</g>
				</g>
			</g>
		</g>
	</g>
	<g>
		<g>
			<g>
				<g>
					<g>
						<path style="fill:#BC4D26;" d="M1883.072,1301.766h-70.102c-40.418,0-73.184-32.766-73.184-73.184l0,0h216.468l0,0
							C1956.255,1269.001,1923.489,1301.766,1883.072,1301.766z"/>
					</g>
				</g>
			</g>
			<g>
				<g>
					<g>
						<path style="fill:#4CB7D8;" d="M1883.072,1301.766h-70.102c-40.418,0-73.184-32.766-73.184-73.184l0,0h216.468l0,0
							C1956.255,1269.001,1923.489,1301.766,1883.072,1301.766z"/>
					</g>
				</g>
			</g>
		</g>
	</g>
	<g>
		<g>
			<g>
				<rect x="1739.786" y="1226.329" width="216.469" height="4.508"/>
			</g>
		</g>
	</g>
	<g>
		<g>
			<g>
				<rect x="346.776" y="332.201" style="fill:#F99247;" width="723.229" height="266.08"/>
			</g>
		</g>
		<g>
			<g>
				<g>
					<g>
						<g>
							<g>
								<g>
									<rect x="364.325" y="351.262" style="fill:#C5F1FF;" width="333.069" height="227.958"/>
								</g>
							</g>
						</g>
					</g>
				</g>
			</g>
		</g>
		<g>
			<g>
				<g>
					<g>
						<g>
							<g>
								<path style="fill:#21111D;" d="M698.429,580.26H363.291V350.222h335.138V580.26z M365.36,578.18h331V352.302h-331V578.18z"
									/>
							</g>
						</g>
					</g>
				</g>
			</g>
		</g>
		<g>
			<g>
				<g>
					<g>
						<g>
							<g>
								<polygon style="fill:#21111D;" points="434.318,474.467 433.012,472.854 545.003,381.26 546.309,382.873 								"/>
							</g>
						</g>
					</g>
				</g>
			</g>
		</g>
		<g>
			<g>
				<g>
					<g>
						<g>
							<g>
								<polygon style="fill:#21111D;" points="463.752,483.087 462.434,481.485 530.201,425.214 531.519,426.817 								"/>
							</g>
						</g>
					</g>
				</g>
			</g>
		</g>
		<g>
			<g>
				<g>
					<g>
						<g>
							<g>
								<g>
									<rect x="716.02" y="351.262" style="fill:#C5F1FF;" width="333.069" height="227.958"/>
								</g>
							</g>
						</g>
					</g>
				</g>
			</g>
		</g>
		<g>
			<g>
				<g>
					<g>
						<g>
							<g>
								<path style="fill:#21111D;" d="M1050.124,580.26H714.986V350.222h335.138V580.26z M717.055,578.18h331V352.302h-331V578.18z
									"/>
							</g>
						</g>
					</g>
				</g>
			</g>
		</g>
		<g>
			<g>
				<g>
					<g>
						<g>
							<g>
								<polygon style="fill:#21111D;" points="786.013,474.467 784.707,472.854 896.698,381.26 898.004,382.873 								"/>
							</g>
						</g>
					</g>
				</g>
			</g>
		</g>
		<g>
			<g>
				<g>
					<g>
						<g>
							<g>
								<polygon style="fill:#21111D;" points="815.447,483.087 814.129,481.485 881.896,425.214 883.214,426.817 								"/>
							</g>
						</g>
					</g>
				</g>
			</g>
		</g>
	</g>
</g>
</svg>
